<mxfile host="Electron" modified="2024-03-02T21:13:49.110Z" agent="Mozilla/5.0 (X11; Linux x86_64) AppleWebKit/537.36 (KHTML, like Gecko) draw.io/23.1.5 Chrome/120.0.6099.109 Electron/28.1.0 Safari/537.36" etag="oR2uEoNEVctHAU8_D_iX" version="23.1.5" type="device">
  <diagram name="StrÃ¡nka-1" id="iIuHVIF6_Wf35UW41iY5">
    <mxGraphModel dx="989" dy="664" grid="1" gridSize="10" guides="1" tooltips="1" connect="1" arrows="1" fold="1" page="1" pageScale="1" pageWidth="827" pageHeight="1169" math="0" shadow="0">
      <root>
        <mxCell id="0" />
        <mxCell id="1" parent="0" />
        <mxCell id="tsz8T1JmrRWFxbx-3Yt2-1" value="" style="shape=image;aspect=fixed;image=data:image/png,iVBORw0KGgoAAAANSUhEUgAAAysAAAFtCAYAAAAHyfUEAAAACXBIWXMAAA7EAAAOxAGVKw4bAAAgAElEQVR4XuzdZ1wU197A8d/MLh2k2GIFu4JosItdEY0m9t6SG2NJNIkaW5qaa3KTGHuJGpNojLHFXrACglSRIiBRYkcUFKUvUnbneQHqsgK7NB9z73w/H16wZ2Z2zv+cOWXKjtCoaTMJvQRsOi3k96VmLB+6CJ8M3XSZrAKYv86cbYuxWjWJfwemY0DF/B+hpMHEn9joso935nqQoNFNl8lkMplMJvvvJOibrCgcJrD5l2k4qa+xf+k8Vp5PQh4ryWQymUwmk8lkssqmd7Iik8lkMplMJpPJZP8fRN0PZDKZTCaTyWQymexVIE9WZDKZTCaTyWQy2StJnqzIZDKZTCaTyWSyV5I8WZHJZDKZTCaTyWSvJHmyIpPJZC+B1DibjGWpJO9IIXlrGirnwr9toi9dn/KuL3sFGbmy9NxhZjspdFNkrySBKkN+JGzH29STR1cyWYUpOJyMqddrJqv3nCYkLJwI/zMc2jiVtuaFF65Mgu0QNh5ZQBulgmYzdvPzqOoIugtVBsGKFoPnsmHvGULCI7jkf5ytn/bH3ig/WeE8h1NRl7kao/MXvo5BloU3VRmM3Vdw6fIlDk5vjAJAsGLg6mCuRB3ko2ZaHZjSmXnHIwnbMAg7rcAJNUaz7eI2Jrz2vOU0cl3C+bOf0UH5fDmDGLdgxp9hXP5zKo20+06xCk3d32flAX8i9+qklYZpKz7ee4ivulZ5XvZiTcZtjeBqTDRXoiMI8z3C1kXDaWHxPJNitc58sPYA/qERXArw4LfP36KxaX6a3vg92/5lrlyOJCrYkwPrZ+FWr6ACvASCbTumrjmIf+glIoM82LrAncJfr8B+/M+cXP0WtSulAyzh+Dc0PsXUv4qgPz7lVUL+nypv/gQNOWOzUP9lgc3bNthOtcLsL+0Dtfh0TesnZC5NI2V7Csm/ppL+bg5q3fyXsH75FR8focZotkVc5urlaGLC/PHcs4a5bzZF6/AsN0WtHszacBC/4ItEBJ5i59ejcLKswC8wgMLxIw7vLkfb9spS0PTtjXh4nicsMpqYsAB8Tx1gSR+rl9P/VpBKKx8944NXnuVw8mZdIGfwgOfvLas9m9z35iGJQJNvyfkkiNxODQsSrdAM8iFn9m7U1RVg2Z+8aXtR1y7oUBGRWiwjd9IMJCWF+oerl6OICfPj9I5vedvFGgED2wezpgxfvJVTfqFEhwfhd2IXy0c2yu+vX3WChuzFyTz+M5nHe5N5vCOF1KWZPHn6I7u22aT/ns6TqlrrtFKR8qOKPIUB68ueEUHArtcitv2nO493zOGt7q50HTyVr349x7Us3cUrj0nrdjSMCeEvTTXavC4RFv74pb0U0MxChd/qqbh3ak+XCRtJ6rWELwblT5bUUasZ8HorHJ2f/rWm22deJEWFEKHS3VJlkMiJv4eVa5f8gappO7q7ZJKQVPhtN0rHvvTkOvdaudPdtjK6GSVNJi7kDekGyYUKRkHTqRvZOLEmMX7RlP19oQoajV/AyAdbWeefplP2uQR/3QfHVh3p/c5abrX5jOVTHPMbM7Euo79bwQjNn8wc2IMeo78mrPkCNsxpT/5Y05D4ZeM5vwPNW7rQYcCH/KkZxHcLB5RtUFpaQhX6LFjGWGknU9w60mXSIczGfcsPExtoNdZqbu9dxUn72czpY1PBgwhDjn/98am0+mdQfMrDkPxXQP5ECY0NKC4rEdRAroCQZ0C6IKF2VCN4mmM1wxqbL80QW6nIdNN521Vx65ebAfHJC2Fpn9a06jaMj7ffpc3CX1k3xr5iykewZsDCbxnweAOjuren7Rvz8befw/fvNq+Y7RvIuE49albKiQJDSEiV1hmqif3tfQb06cdinyyubJ5Ir37DWOL5z3opb2WWT0njg3+E7FsI1UehqVpUgCRIvQ/2nZEEwMgFTe1MBFVB+5JxGkVgApruo/InNyadULs2RPTeqtW+5BL8dW9aOLWidY8xLA6qw8zlH9LRpCC5xPZBgdOUZXz5+t98P74X7bsOYMzsNewJvYf66eZfeQJGv1hjN8oWu6lVMI/WkDUri1yDJ7TlXf9/g4jCgRHT3Un6eQHfHI0mISOLjKSbhIfEkiqBsuUsjnktpYfF85UUjadxIGAdg5+OVhQ16DLtB3af8udSZDgXPXfypVt1g+4xU7Z6nx3HjuHxzQBqdpnPweO7+KRdA0atOci2qU6V3yFJ6YTt/JFdATdJzs4l4+ZZzkZBrTrVCvZfg1qtfv5HfYaMcebiriPEaY8XxLqM3XIer0WuPD0HUTEEiL9EVI2udK0uYvJ6N9reCSUyR3sZJU59eyGeW8eOy63o19229A2pnv1X2I/m86EJbN55VWfbamK3vI37xCVsD39sUJkXSenMyBG18N17mqTieklNNik3znE0MIla9eugBBQNBjKydQxbvt1DeEIqKXEBbFxzHOWA4XQ2B8PiV0BSk/UohmNnY1DUfA077czoiU+ZmXagf9dEdq4+QEyyRP2+bjhkq2nZrzf1tSt/7l/sPxRPj9Hu1ChzkIug5/gvpNj4GFD/yho/Q+NTVgblvxz5q5pDxopUUn5KJ6ueRM6cZB7vTCZ5k4pcpQHpkoDRLgvMzylRpAsI8cYYXxbQ1C1ofPStX14GxQdAIi8zkejjy/l4WRiOU96hk3YgiouPXkpMzURuh4dyP1tCnRJDyJVUjM1MXyyDsiqh/1K0nM4fnv4ELO+HjeNMDoeGExVxkSMfFfRNyvbM2XsKv6BQLp//N8P7f8quU+cI8D/F0u5mz7+jzPnPV6PHPLYd9yHkwnlObPqIbjV0Kn85t/8qE6zbMHnFXrwDLxB2wR/vfcsY0aBgqKuvfBCw6zyddXtOERxykfBgL/Yvn4SLlU7tKS5+escHAhbNR/LNjlMEBwcR6PEjU1oVcUtKcds3tP6Uh3gLMVqNxqW9bgogQFoUgmVnJAsRandBSo7IP+EBgAYhegWiZiRqx/pI7Wci3V2DIq6oM7USuel3CT7izXVre+oXunxSXPugoGadmiSHnMb3dhpZmY+5eyWIkBsv8Ux5RVKJGPkYobDUoCmiGuhV3vX/i4mCZSvaNLyDj++dImeyeTH72Hu3B6P62BV0DgoaurlR0+8w3o8lQIH9uB9YM9KY4wuH07ldZ9wmL2N/1GOD3nSfF7mRCW+NZ134bf6YMZCBcw9z98IKRgwcxDs/XS5ynyqPAhvncYxqcx8v3xtFfrdZu3GMsjnFH94phc88SRncjggiMOYBudqfVwBBiCUgpC7dOlWlZbcOJPqGkGqk1RAonXDvpcDX0x8vryu87t699FcFStp/sQ7DPx1HxpaVnEkRXpyQqPPyYyWIL6YZSNHIlU424fiGltBIiSbYNnFnRDcLwgKjyQVMmrbAPvEy0VpXSnKuRhNr2pQW9Qq6K33xe0bA2LY5b7k3Jz4gmDjtClBSfMpBUasB9uq/uRKvxqjJBL4c9pDlU1YRUqcxBf1xAQ33AgOIb+laobdn6jv+CysmPobUvzLGz/D4lI1B+S9P/h4ZY/mJNTZTrTCLEzBeaYvdOFtsp5tjlGdAui5RjbqhhOJ2wZFW2vVLyaD4FCKR5OtNVJXWuNhrFVBx8dFHeszJn3ZjNXEJ/+rYGMc3PmFGi0BW/B5JBWQPff2XOnoT4/t0oevnPmT9tZ7BbV1wfr0dg9YW9E15Iawc1Y9uA74lyHIAc0ZnsHxUb1y7D+LrAK22rKz5B1A0pG+nZFaN602H7hP4STWIH74YQLVCY8FybP+VJlJ78Cw+qHqcd3t1pE3Hngz95Ed87ubXRr3lg0Tq/Ug8lr+HW+d2tOs/G8+a77NoYpPCJ0INil8R4wMjZ95fPh+nqH/zVtfO9Jh8gKqubTDWXbW47Rtaf8pDNEGI3YPgMAaNZVE99DXEuDpo6tshNWgLNy9SqCPX3EbhfRDJdSN5LW6h8PPTStSmwNSuCX0nDqTxnTAuvXC2C15sH3KJOHMOYcBsFg5tTfUXAvfPIlmryRmYgzpBibIMt5mUd/3/ZkrByhprIZXk1GKmFpp4ju4JZeroN6l7bDtxQkP6utnitdqfNACxFj37OXFtxxD+CE9AA6huRZCis5kSKZrg6HCHyJsSln0ao7x2jpSi6nmlMabnVyf4vr8NlsJ9Tq+ex6aIbN2FQKhGv0n9SN7/NqFPdNKkFAI2zCNA5+MKIeQQ7hPOlIHjecMhDd+F96k7/nmy0smN3ka+LIrKJinei6sfu9PT7jD7HxUEUenCJ4fO8+HTIlaaYZm+79n6QAn7L1Jz4Hwmi9uZfCwRTTfddC2CUOaznUb2Dalz/xo3dOMKgBEdv/Diry9AyrvNiW+m8cm+e2gQMLMwR1RlkKm9eLaKTLU5luYFe6MnfmBCn2UXuLoMkHJ5GPIL87dFUqgGFBufcjIzx+yJiixFA8Z9Po7MLe9w8HprehuZY64EtK4Aqe9c55bgRoPaCog1bOioj97jH9AXH731D8oev1LEpywMyX+l5q9UJNQDVDwxM8bifFGDjopnSHx0Sao0UtUWWGqfWS1zfCQyYo6w++oa5i1ZwSQ7U6LWzSM4oWLqf4X0X8+o8Nm6hdBUDZBdce2HlIrXtt+4lKoGbnNkqwfTfu5JW7OjnHp6grs823+lSaTHxZFe35UBnX3Z7nOTlNu3dBcqkfpWACduFfyTHMWRs9eY2KI2CmKfT8BLjF/x4wNFw250rxnCtp8CeJArwX0vth6KZUBXnU2UuP2nSqg/5SLCEx8Uf79HXqvGiLd0koUchJuRSM1Ho7FNRzyRgOSis0zSWcSM99Akn0TM1B2cFfTPn0vkZSVxM+wEiz/5latqihwPFG4fJB6fXcSY9NFMn74Mj1nJnNuxntW/+RFfzrb95ZHInZzK43eBbBHFFWMsVpmgeFq5FHlkrUgh69n4C6RM7VmZnvVlACilzAwysMa2iggPioqORLLnHs58tIBhzf5gvdoNN/Mz/OdCwaxfsKGajYaEew8NupJSiGCF+5LtzOlUlddqiPTZfYQ5Vetg/aQRx7pGs3nqQg4mlnqrZZBD4MqxDNlshnU9F0bN2cBWq5lM2BxT6CyIotFwJra+xI5FNw08y1hBBFCF+BKz+BuGJ/3KmNtqJjxLVNLSvQ/2r1VlrdcANBhjZa0kp4cdBw48yl8kL5otU+Zy4EF+LJXt5rBn9rMNlEio6sa8963ZNXMfd9W8eMaoQgiYWFigUGXyQjsI5N8T24939lXjw92bcNYkky4BSKgyMtGYW6J1lyKYWGChUHEzU4Lq6Ikf5D+T0YUPjmVhVKUunSd/y4qf8pg8ZiMxFXP6tniqDFSmNWk6YiHvitt59884NHaumOVlodL9brUKVY4p5mZFdQFlo//4h5LjU3L9K7I4S6M08SkD/fmv5PwZTELtlkn6WwKm35hhVEEnXfXRH58XCVZ22ClT+bsizjiJdRm5cgujr3/OoDeDSK/ehQ+WrWZr1dmMXXOJIs9tlEZ5+i9d6nvcjCv+vHyZaVJ4+PD5dqXHD3mkcMLOUgCVATG26Mfy44voVtB45936nfcmbuIvw4pT//r60stFIs37K8ZljWLqtI2cnB/HiV/Xsn5/FCkGFZiAtfNIPpw6iHb1LRA1EgrruhiFlKYNLX58INnYUiXzAYkZT8tBw8PEpLK1C8XVH33x1ZcOQA5CxAGEEWPQ3EvTTsgX54fgtgR15m8YpWh0xjciUrMP0AiBCLWnoK4ZhCJReyZR0D/vTDToGHqxfcglIXgHS4J3sabFAGYs/o7f637K4CXnC/r5V52A0S9VsDpZzAkktRLTry0wSS74v0UWaeO0F9CzvgwApZQWTWScPV271GbTtbiiK9uTEHYfzmPdsA54JfdCeforwp/WVSmNlDQRlxpVEblX9PrFkdI5vXgo3q6LOTbEnyELoxi2ZS22y8ax/mqFtHQGy059wP1UuH/vDmt29+PcuG7Y/xzDtWe7YUan8cOxO7uEk9pnVF+WjECOHAlFuneGa+pqzz9XtsS9lwUenw/ju6BsQKTu6PVsce9B1YMHyJ+u5JL2MJGEgomfUXKWweVk1NYdN/v2vHUskk+1PveIeIMNI0awtkLKSSJHlYXG3JynF0OKlBPD1jXnOLx4Jr3OfI5nikTOtavcrtkWp6oCUQ/yy8W4mRNNnsSy764aHArWLS5+hWjITbuD3/6z3B7vSisbgZhiH6CpGOr717hhNItFcy6zZuxOrqvBrJkjDvE3uKMbWqUllsYq4oqe0ZWJQcf/M0XEJ6Xk+lfe8JUqPmWgN/96jq/y5s8ggkTewEwyBoDZNxaY3CnpIKlYeuPzApEaPfvgnBTKhkL3UZaNYNOJfm1vs3/xBR6pgQR/Nvx4jqFL+uO44RJh5Z2wlqb/Eoq4BbYQDZryZ/lFoi01qhtBwRBSsKtOVXUKj58NkPVQ+fD16GHPnpWQ8jLzY2kofevrSy+3HO4F7WBJ0C7WOI3i3+s2sST9DWaf1PkhlqLKx7QL89ZMxmTVdMZ73CRTLVLv7d/Y56i7YMmKGx/cTHlMqlkz7Ewh/8ymiLWN1q9Zlkox9UdffPWlP5XqgXh/LJomEaD7UzjZwYgxYZDmjaDR/ukqwKwb6q71EY+9i2izmLxeYxH3/oZQ4sFSnJLaBzXJfx1l+a89GfpROxzE80TpLvIPJSSLiAXnjkkrW+34XyeivsafWwOwf/8HPn3Tmbp2tlSv14LO7RtoDRzV/H1gH3HdpvKJmxqPo1eez7w18fh6X8Nx4iyGOdphrDDCsmYTnOwN/elDkWoN6pFy/SY5ioY0qXWHvytiFGIopQOd3NrQ+DUbzE1MsXHoyjvDWpMeewXtOw2E6v2Z2C+dA7uCKfKkpmBHt4+W8/XwhpXzowBSKl4/TGX2H1qXrgFly770MfXm0Nl4kpKSSEp6QORRD667uNOzqmElABS7/zmn5/K6kxPNHPP/nD84zOPoNQx4fWgFTVTy5dy5ScJrjWj49BdEiiSRdn4jG691Z857rTED1DeOsT/KiSkLR9CymiVV6nVlxqw3UXvsJ1D7GcBi4qdLYVGHzsPdafwwlqva99wWE59yexLK8TMPyL0WSNBDJVb1ujFzZm8ST57hps6OKuo3xkF9ixv3SspBKRl0/D+nGx+D619Z41eK+JSJnvxXev70ESTyRmWQ8YaA2TILjB+AZCohmUgY2MCWj574PCdgZFUHl8ELWDunKYHrfiNc+yRxGeMjqe4Sl9aQbr0aYC4CJrXp8UYHzG5f516ZBks6DOy/ch4lkVGnDR3qmgAixqbGpQt/GfMPgFCFXpPG09JKBJO6DJz0BtaBXlzU7ohK2r70hJTERBIK/hIfZZTueR996+tLLxeR2q0607yaKSJq0uJvkJCpwMS48LSk2PIxssHWIoP7tx+iUiuwcHBj8pCCX5LUVlz89IwP1Nd98L7fnnGTXsdGAUY1u/LOMEde+G2L4rZvCH3x1Zf+TBpi2Gmkpt3zf/lLN83nQ5Thf+t8bommy8dIt9ehSHiCcHU9itxRqFvX01lOn2LaB7E6rXt0onltG8wUIibVWjF6SFvybvxdMce37L+GCBoSjn7Gv769RIMp6zl2zgfPfeuY42aP9rhRk+jBnsjGuGR4cKzQKEHN39vmMv+EKePXn+BiaCCef/yH8c6WBjbmChwavUbc9Xik6o1okHadGy/zXkXBnEb9P+HHA55cDA3Ge/s8XK6vZcb3vlrnHhQ0GTmettG7+fPvYkZIogX2rTvSsWm10jdGZWaEc99emPl7FnqGRhPvg+et1+nfs5qBZUC59l/hPI3fDh3m4OfdsXR8l18OHebQ94PRerWLXurrQQRltKVbGz2/ZaO5x8FVu8gZMZexDRWgucvuBXM5aDSOzaf88PvzC9rELmPGyhCK+r2SohU8k3E5mqjze1nsEsuy2T8SoT3YKkd8SpaB3/I5rIjrxvqzQfjv/QyniKXM/133VkORuq6dqRUZSEm/QVB6hhz/xcWnFPWvzPEzND5lVVL+X0b+9LDJIWtwHpoaOWT+kELy7wV/2zJ4Yqe7cGUoKT4FlO350vMSl3z28P1IO3y/eJt5x/Kf/3imrPF5EszKWT+R8uYGzgYEcsFzG9MsjvDxFwdJqJDBjGH9V+6Fn1l62Ii3d/oSGnyek1/2wEoAhf1o1h09g9+Jz+ls5szsfefwPrKCkbpvBCxr/gFyA/ndozrz9ngTcn4371sdYd43Jyh0gb/M21fQdNKPHD97kq96mNF82na8Tu1ncW9DTzZWNoEqzmP5fs9ZLly4QPCxJTQP/ZaVpwv/wE1x5UOGN5s33KHXBi9CgzzZs6AZF44Fvfg8SHHx0zc+yLvM5vkruNl1BWeCAvHaPJT4QycouMj/XDHbN7j+VJTE/SgSS1FD6ryHutHfKAKC8v+X4hF99iG1n42mioH7WGL7YEzdXh+w6g8PAsPCCTm+gjef7GL2Up36LfufJzRqauDbZ4SqDFm3jwHeo5m2/0HZ7smUyYqloOn0XfzaYjtDZh17ObfX/JMYt2TO3tVUXzOUz7z/We9AkMlkMplMJisrA6fGAjYdpzK52Xn+OCVPVGSVQU3s9v9woNZkZnR6Vc7qvSqUNBg9B/cbK1njI09UZDKZTCaT/e/Qe2VF4TCBzb9Mw0l9jf1L57HyfFLJDyHKZDKZTCaTyWQyWQXQO1mRyWQymUwmk8lksv8PBt4GJpPJZDKZTCaTyWQvlzxZkclkMplMJpPJZK8kebIik8lkMplMJpPJXknyZEUmk8lkMplMJpO9kl540apMJpPJKp5RDWc6dW1NbRtjBHU6f589SGj883dN60v/7yZg6TyRr5f8i24NqqDIjmfP7FF8G/T0bZz60v9LGbmy9MwCHs8YxqrLFfMaVJlMJvunKbiyYky9XjNZvec0IWHhRPif4dDGqbQ1L7xwZRJsh7DxyALaKBU0m7Gbn0dVfznv2hCsaDF4Lhv2niEkPIJL/sfZ+ml/7I2eL6Ko1YNZGw7iF3yRiMBT7Px6FE6WL2XvMHZfwaXLlzg4vXH+m28FKwauDuZK1EE+aqb1JlqlM/OORxK2YRB2Wrsm1BjNtovbmKD1Onkj1yWcP/sZHUo7VTVuwYw/w7j851Qaab8EV6xCU/f3WXnAn8i9OmmlYdqKj/ce4quuVbTeDF6TcVsjuBoTzZXoCMJ8j7B10XBaWDzPpFitMx+sPYB/aASXAjz47fO3aGyan6Y3fs+2f5krlyOJCvbkwPpZuNXTqgCVTLBtx9Q1B/EPvURkkAdbF7hT+OsV2I//mZOr36J2pVwLLeH4NzQ+xdS/iqA/PuVVQv6fKnf+zHFo1w7rBC8Ob/uV3TsOcem+9kSkuHRjbJt2osfQcYya/B5jJ42mj2tDrLTrgWktnPqOYMS77zH27dH06dwQywqtJ8XHR6gxmm0Rl7l6OZqYMH8896xh7ptN0To8DSNU582PP6TxxYX0bd8Wlx5jWROqNRHRl17JFI4fcXh3Odq2V5aCpm9vxMPzPGGR0cSEBeB76gBL+vyz3nVVqeWjp38zse/H/M2H8Qu+QKjfUX6e60bdCm2fysFyOHmzLpAzeMDz93PVnk3ue/OQRKDJt+R8EkRup4YFiVZoBvmQM3s36uoKsOxP3rS9qGsXdKiISC2WkTtpBlJpxw8yWTmIIGDXaxHb/tOdxzvm8FZ3V7oOnspXv57jWpbu4pXHpHU7GsaE8JemGm1elwgLf/zSXn5nZqHCb/VU3Du1p8uEjST1WsIXgwomS4I1AxZ+y4DHGxjVvT1t35iPv/0cvn+3ef7gt9JJ5MTfw8q1S/5A1bQd3V0ySUgq/LYbpWNfenKde63c6W5bGd2MkiYTF/KGdIPkQgWjoOnUjWycWJMYv2gytJNKRUGj8QsY+WAr6/zTdMo+l+Cv++DYqiO931nLrTafsXyKY378xbqM/m4FIzR/MnNgD3qM/pqw5gvYMKc9+WNNQ+KXjef8DjRv6UKHAR/yp2YQ3y0cUMZBaSkJVeizYBljpZ1McetIl0mHMBv3LT9MbKBVv9Tc3ruKk/azmdPHpoIHEYYc//rjU2n1z6D4lIch+a+A/IlmmJtLpNxL5IkGUOeSp10FS0hXGuVyP8SDw9t+Zd+RUJ7Yd6d906czKRPqde5NU+kyXju3se9oLEqnnnRxrqh6YkB88kJY2qc1rboN4+Ptd2mz8FfWjbEvXfmIdtSopuZqSDiP1SDlZKLKLUV6JTOuU4+aFToBLA0JqdI6QzWxv73PgD79WOyTxZXNE+nVbxhLPP9ZL5+tvPLR078pnZi+6jOcw79icJeOdB7+PbEdlrDqX01KV/8rU/YthOqj0FQtKkASpN4H+85IAmDkgqZ2JoKqoPHJOI0iMAFN91H5kxuTTqhdGyJ6b0X4X7noK3sliCgcGDHdnaSfF/DN0WgSMrLISLpJeEgsqRIoW87imNdSelg8X0nReBoHAtYx+OloRVGDLtN+YPcpfy5FhnPRcydfulU36IEYZav32XHsGB7fDKBml/kcPL6LT9o1YNSag2yb6lT5B7yUTtjOH9kVcJPk7Fwybp7lbBTUqlOtYP+VmJqJ3A4P5X62hDolhpArqRibmRYeDIh1GbvlPF6LXHl6DqJiCBB/iagaXelaXcTk9W60vRNKZI72Mkqc+vZCPLeOHZdb0a+7bekHKnr2X2E/ms+HJrB551WdbauJ3fI27hOXsD38sUFlXiSlMyNH1MJ372mSiuslNdmk3DjH0cAkatWvgxJQNBjIyNYxbPl2D+EJqaTEBbBxzXGUA4bT2RwMi18BSU3WoxiOnY1BUfM17LQzoyc+ZWbagf5dE9m5+gAxyRL1+7rhkK2mZb/e1Neu/Ll/sf9QPD1Gu1OjzEEugp7jv5Bi42NA/Str/AyNT1kZlP+y50+wbEqXEWMYNmEQjrbG2JwShJAAACAASURBVLu9w9jJkxk7riu1RP3pkMPDy6HE3k0hW60hN+UWcQ/A3NI8fx+UtbCvl0lsyBUeP5GwatCAKnkSVRs4YPXCTpaBQfEBkMjLTCT6+HI+XhaG45R36KQdiGLiI742mOWHT+Hrs50pjS15Y2UwURHhXPL6Alcj/ekVooT+S9FyOn94+hOwvB82jjM5HBpOVMRFjnxU0Dcp2zNn7yn8gkK5fP7fDO//KbtOnSPA/xRLu5s9/45i8m+oGj3mse24DyEXznNi00d0q6FT+cu5/VeZYN2GySv24h14gbAL/njvW8aIBvn511s+CNh1ns66PacIDrlIeLAX+5dPwkX34Cg2fiX3bwqHbvSoEcDWbWE8ypPISfRj7arTVB3wBs21i6i47Rtaf8pDvIUYrUbj0l43BRAgLQrBsjOShQi1uyAlRyA8u+NQgxC9AlEzErVjfaT2M5HurkERp9LeiExW6ZSCZSvaNLyDj+8dirojNi9mH3vv7mRUHzt8jzxGQkFDNzdq+m3G+7EEKLAf9wNrRqawZt5w3r2cgnHt5tTOemzQm+7zIjcy4a2dDF23jcY/jWCleib7P7rHe9P/LH7QWmkU2DiPY1Sb+3j9fiM/HtJjTv60m+GfL+Ff8esIshvBjBaBrJgfSaETC1IGtyOCCEx8QEWf8BOEWAJCRtKrU1Vim3Ug0Xc7qWMbPV9A6YR7LwW+i/zxun2Fj927Y3f4EI9KE7+S9l+sw/BPx5Gx5V3OpH7MZ7rp6jzUgEIQX2jMDaVo5Eonm3A2hZZwOU80wbZRH0Z0syDst2hyAdOmLbBPvEy01pWSnKvRxJr+ixb1FJzHgPg9I2Bs24y33JsTH/AzcdoHREnxKQdFrQbYq//mcLwaoybv8OWwhyyfcpCBG1rRQAE3tTqNe4EBxL/vSlvzvXi8cIqvbPQd/4UVEx9D6l8Z42d4fMrGoPyXI39SRiz++2JBrErrYW9idXEHfre0vklfeiEiJjWcaPJaBnejk5EAwdIGK81jbqRLiHbOtG+WSbjHVez71aCKCGnFbcpABsWnEIkkX2+iFk3ExV6B/9WCtYqJjybhMHMHHwZFcz7ev5V663ow11PrTIK+9HLT039Fb2J8n01YvLkOv7ejGDHmJ65rByIvhJWj+rHKbgQ/ey5kzujf+GhUb0IzjDARsp8vV0z+DaJoSN9OJ3hvXG8is+sy5D+/8MMXN3nz46PP+8jybP+VJlJ78Cw+qHqcEb22czNbiU39Ohjdyy8Etb7yQSL1fiQey4/zWXgcKqvWTFu7iUUTgxjxY+zzOl1S/Erq30QBQZ1X6CppbloqWbXtqauEZ48ZFbd9Q+tPeYgmCLF7EIaNQWMZ8mIeuIYYNxRNfTuEGm3h5k543eF5suY2Cu+D5A7dSJ50CcVOv+dpMtlLohSsrLEWUklOLWZqoYnn6J5Qpo5+k7rHthMnNKSvmy1eq/1JAxBr0bOfE9d2DOGP8AQ0gOpWBCk6mymRogmODneIvClh2acxymvnSCnNQLvcjOn51Qm+72+DpXCf06vnsSniaUMhkRFzhN1X1zBvyQom2ZkStW4ewQk6XbeUQsCGeQQU/rRiCDmE+4QzZeB43nBIw3fhfeqOf56sdHKjt5Evi6KySYr34urH7vS0O8z+p6MppQufHDrPh0+LWGmGZfq+Z+sDJey/SM2B85ksbmfysUQ03XTTtQjCi2ecDWRk35A6969xo8jb0I3o+IUXf30BUt5tTnwzjU/23UODgJmFOaIqg0ztxbNVZKrNsTQv2Bs98QMT+iy7wNVlgJTLw5BfmL8tkkJdRbHxKSczc8yeqMhSNGDc5+PI3PIOB6+3preROeZKQGtcpr5znVuCGw1qKyDWsKGjPnqPf0BffPTWPyh7/EoRn7IwJP+Vmj+DKKjTfTSuDU0xIoO4EC+iEwvKX2mEIi+PPNGGpq6O5EUc43pKDeoojFCKYOAMo1iGxEeXpEojVW2BpfaDK5Uan3KoiP7rGRU+W7cQmqoBsiuu/ZBS8dr2G5dS1cBtjmz1YNrPPWlrdpRTT09wl2f7rzSJ9Lg40uu7MqCzL9t9bpJy+5buQiVS3wrgxK2Cf5KjOHL2GhNb1EaB9mTFgPgV0b+pbwUTnLmcMcOaErY3lhw7FyZMf5N6ypj84+8pQ7ZfUv0pFxGe+KD4+z3yWjVGvKWTLOQg3IxEaj4ajW064okEJBedZZLOIma8hyb5JGLmSx2cyWQAiFJmBhlYY1vlxfl2Polkzz2cqTmUYc0UKBq54WZ+hsMXCs6ACzZUs9GQcO+hQVdSChGscP/qICePr2RknbbM3n2EQwu7Unvgtxw7vIyhlXMTahFyCFw5liFDhzH8w59JHryBrdMcMQIQ6zJy5RYmPvqGQW8Oxn3wv7nuvpqtH7Z+eZfbBVCF+BLTbiLD8efcbe0RiJKW7n2wf20oa718Ob9vFm2sO9Cvh93zhjUvmi1TRjB46DAGDx3G8K/OGDwZFKq6Me99a3Z9t4+75Rz4FE/AxMIChSqTotvBXIK/7k2L10ex8ZoVVppk0iUACVVGJhpzS7TuUgQTCywUKtKfbqzE+MHTZzKaOTrTsvMgPrvUiRU/TcPxZTxAqMpAZVqFpiMW8q64nf/8GYfGzAKzvCxUuvcEq1WockwxN9PtMstO//EPJcfHgPpXHqWJTxnoz38l588gahKCD3F8335OnI7gSZN+uLkU3Kaal0ue0hib5p1xFKK5eCUNSWmMUqPzTEwZ6Y/PiwQrO+yUqSQb2sj8fypP/6VLfY+bcS+cly8/TQoPHz7frvT4IY8UNtgZ+iMvFv1Yfs6f4ID8P/+d02lRmlso9a2vL71cJNK8v2LcZ+epPmkjJ49v4YuRztgYXB0FrJ1H8cW6HRw6fJAjB/ex+e1mGAkGxk6fnHDWzt5AUv+VePic4+SmSZiEBXLvYQIPSlsViqs/+uKrLx2AHISIAwgtxqAxLuK4jPNDqDsONYGIKbpHgojU7AM0QiBC7SmoaxoXTtb3/eVNl8kApZQWTWScPV271GbTtbiiG+wnIew+nMe6YR3wSu6F8vRXhD89oymlkZIm4lKjKiL3il6/OFI6pxcPxdt1MceG+DNkYRTDtqzFdtk41j+9feAlyU59wP1UuH/vDmt29+PcuG7Y/xzDdetO9Gt7m/2LL/BIDST4s+HHcwxd0h/HDZcIq4ABk0EyAjlyJBTp3hmuqas9/1zZEvdeFnh8PozvgrIBkbqj17PFvQdVDx7gEQC5pD1MJCExv3SMkrMMLiejtu642bfnrWORfKr1uUfEG2wYMYK1FVJOEjmqLDTm5jy9GFKknBi2rjnH4cUz6XXmczxTJHKuXeV2zbY4VRWIepDfCBs3c6LJk1j23VWDQ8G6xcWvEA25aXfw23+W2+NdaWUjEFPJ9yKq71/jhtEsFs25zJqxO7muBrNmjjjE3+CObmiVllgaq4grekZXJgYd/88UEZ+UkutfecNXqviUgd786zm+yps/Q6mzVaiyQZWRyqWYhgxrWQ+riCRSMx6TJranQ4eHRByOJlUDSrtqVElPIf2FzJSe3vi8QKRGzz44J4WyodB9lK+o0vRfglDELTTaNGgqI8uiLTWqG/H0MplgV52q6hQeZxhY+VQ+fD162LOTa1JeZn5fZih96+tLL7cc7gXtYEnQLtY4jeLf6zaxJP0NZp/U+SGWosrHtAvz1kzGZNV0xnvcJFMtUu/t39jnqLtgWUmoru5n0Tv7C/5X0uyDXUy4tJm/Sj02KKb+6IuvvvSnUj0Q749F0yQCdH8qIDsYMSYM0rwRNFULp5l1Q921PuKxdxFtFpPXayzi3t8Qnh4s+r6/vOkyGSCivsafWwOwf/8HPn3Tmbp2tlSv14LO7RtoDRzV/H1gH3HdpvKJmxqPo1eeXz7VxOPrfQ3HibMY5miHscIIy5pNcLI39KcPRao1qEfK9ZvkKBrSpNYd/q6IUYihlA50cmtD49dsMDcxxcahK+8Ma0167BUS1CCp7hKX1pBuvRpgLgImtenxRgfMbl/nnnbPJtjR7aPlfD28YeX8KICUitcPU5n9h9ala0DZsi99TL05dDaepKQkkpIeEHnUg+su7vSsalgJAMXuf87pubzu5EQzx/w/5w8O8zh6DQNeH1pBE5V8OXdukvBaIxqa6KZok0g7v5GN17oz573WmAHqG8fYH+XElIUjaFnNkir1ujJj1puoPfYTqP0MYDHx06WwqEPn4e40fhjLVe0niIuJT7k9CeX4mQfkXgsk6KESq3rdmDmzN4knz7zwPIaifmMc1Le4UXC/doUw6Ph/Tjc+Bte/ssavFPEpEz35r/T86SNa85rDa1hbmqJUKDGxrkeL5jXJefQIlQTkJXDrVibq5HgSVSJGVerh3M4e1Y2bpBk4li2Rnvg8J2BkVQeXwQtYO6cpget+I1z7JHFlxae8DOy/ch4lkVGnDR3qmgAixqbGBvZvBcqTf6EKvSaNp6WVCCZ1GTjpDawDvbio/XhfSduXnpCSmEhCwV/io4zCz1vqo299fenlIlK7VWeaVzNFRE1a/A0SMhWYGBeelhRbPkY22FpkcP/2Q1RqBRYObkweUvBLktpKip8+CiVKAUSzmrw+bBHLxjxh688+hacD5dm+vvjqS38mDTHsNFLT7vm//KWb5vMhyvC/dT63RNPlY6Tb61AkPEG4uh5F7ijUres9X0Tf95c3XSYDRNCQcPQz/vXtJRpMWc+xcz547lvHHDd7tMeNmkQP9kQ2xiXDg2OFRglq/t42l/knTBm//gQXQwPx/OM/jHe2NLAxV+DQ6DXirscjVW9Eg7Tr3CjnfeilIpjTqP8n/HjAk4uhwXhvn4fL9bXM+N43v7F5EszKWT+R8uYGzgYEcsFzG9MsjvDxFwdJ0J6siBbYt+5Ix6bVSt8YlZkRzn17YebvifYrBzTxPnjeep3+PasZWAaUa/8VztP47dBhDn7eHUvHd/nl0GEOfT8YrVe76KW+HkRQRlu6tdFzc53mHgdX7SJnxFzGNlSA5i67F8zloNE4Np/yw+/PL2gTu4wZK0Mw/PdKCp7JuBxN1Pm9LHaJZdnsH4nQHmyVIz4ly8Bv+RxWxHVj/dkg/Pd+hlPEUub/flNnUiVS17UztSIDKek3CErPkOO/uPiUov6VOX6GxqesSsr/y8ifPkZYN+pIz2HjGP3uOwx9qxPVk0PwCbpT8KBuDveCzhKRVo/uY99hxNAuVE30JyAqpfBZ5zIrKT4FlO350vMSl3z28P1IO3y/eJt5x/Kf/3im0uJTXob1X7kXfmbpYSPe3ulLaPB5Tn7ZAysBFPajWXf0DH4nPqezmTOz953D+8gKRtbTafzKk//cQH73qM68Pd6EnN/N+1ZHmPfNicI/8FDm7StoOulHjp89yVc9zGg+bTtep/azuLehJxsrm0AV57F8v+csFy5cIPjYEpqHfsvK04Xrd3HlQ4Y3mzfcodcGL0KDPNmzoBkXjgW9+DxICfHT178ZuX7JudAwwn328PUbueyaMZNfYnVu5ypm+wbXn4qSuB9Fom4OS1DnPdSN/kYREJT/vxSP6LMPqf1sNKW4NVQmKy+hUdNmhvVpQlWGrNvHAO/RTNv/oII6QpnsKQVNp+/i1xbbGTLr2Eu7veYfw7glc/aupvqaoXzm/c96B4JMJpPJZDJZWRk4NRaw6TiVyc3O88cpeaIiqwxqYrf/hwO1JjOj06tyVu9VoaTB6Dm431jJGh95oiKTyWQymex/h94rKwqHCWz+ZRpO6mvsXzqPleeTSn4IUSaTyWQymUwmk8kqgN7Jikwmk8lkMplMJpP9fzDwNjCZTCaTyWQymUwme7nkyYpMJpPJZDKZTCZ7JcmTFZlMJpPJZDKZTPZKkicrMplMJpPJZDKZ7JUkT1ZkrzZFU6ZsO4Ovtxd+QWFE73ibynpflkwmk71SjFxZeu4ws51K8SI/mUwm+y9TMOwzpl6vmazec5qQsHAi/M9waONU2poXXrgyCbZD2HhkAW2UCprN2M3Po6q/nHdtCFa0GDyXDXvPEBIewSX/42z9tD/2Rs8XMbHvx/zNh/ELvkCo31F+nutGXa30ymTsvoJLly9xcHrj/DffClYMXB3MlaiDfNRMqwNTOjPveCRhGwZhpxU4ocZotl3cxgSt18kbuS7h/NnP6KB8vlx5CLbtmLrmIP6hl4gM8mDrAnfqlSU+pq34eO8hvupa5XnZq2PZ8k5fuvfqw6AfQgre2v3fRX/8FNiP/5mTq9+idqVM1Eo4/sWajNsawdWYy1y5HElUsCcH1s/CTbeAi6l/FUF/fMqrhPw/VYn5A4nGOVl8nZaMX1oWDrrJeig0ubyfkYpHSjI+KSn8pMqmeYX+xmPx8RFqjGZbxGWuXo4mJswfzz1rmPtmUywqMEa1stPwT37MhWd/KXySp7tU5VI4fsTh3VNp9F83Z1DQ9O2NeHieJywympiwAHxPHWBJn3/Wu64qtXzEKjR1f5+VB/yJ3Fux39FRlcKvT9QvnDXulpnCpmzNC5+XmuVw8mZdIGfwgOfv56o9m9z35iGJQJNvyfkkiNxODQsSrdAM8iFn9m7U1RVg2Z+8aXtR1zYtSBeRWiwjd9IMJAPGDy+jfZD9bxBBwK7XIrb9pzuPd8zhre6udB08la9+Pce1LN3FK49J63Y0jAnhL0012rwuERb++KW9/M7MQoXf6qm4d2pPlwkbSeq1hC8GFUyWlE5MX/UZzuFfMbhLRzoP/57YDktY9a8m+ZOHSieRE38PK9cu+QNV03Z0d8kkIanw226Ujn3pyXXutXKnu+1LbAmEKvRZsIyx0k6muHWky6RDmI37lh8mNihlfBQ0Gr+AkQ+2ss4/7aWV/f87g+Kn5vbeVZy0n82cPjYVPIgw5PjPxnN+B5q3dKHDgA/5UzOI7xYOKDRor7T6Z1B8ysOQ/Fdi/oDGT9JZnq3hqpGSzFJvWsJNlYGbaMZka1t6W1tyQa1i8RP1y4tPXghL+7SmVbdhfLz9Lm0W/sq6MfYV9P1gq5G4b1qFbrZ2dLa1o7OtDasMGChVJOM69ahZ7pFjWUlIldYgqon97X0G9OnHYp8srmyeSK9+w1ji+c96+WzllY+CplM3snFiTWL8osnQTS6nh6KItUbSmZRI2EgSjwShYt5pl30LofooNFWLCpAEqffBvjOSABi5oKmdiaAq+OaM0ygCE9B0H5U/uTHphNq1IaL3VgRDTxhUcvsg+98gonBgxHR3kn5ewDdHo0nIyCIj6SbhIbGkSqBsOYtjXkvpYfF8JUXjaRwIWMfgp6MVRQ26TPuB3af8uRQZzkXPnXzpVt2gswLKVu+z49gxPL4ZQM0u8zl4fBeftGvAqDUH2TbVqfIrtJRO2M4f2RVwk+TsXDJunuVsFNSqUw0RUDh0o0eNALZuC+NRnkROoh9rV52m6oA3aK69c2Jdxm45j9ciV56eg6gYAsRfIqpGV7pWFzF5vRtt74QSmaO9jBKnvr0Qz61jx+VW9OtuW/oBbVn337QD/bsmsnP1AWKSJer3dcMhW03Lfr2pX5rCUzozckQtfPeeJqmUvaTyte58uGYf5wICCfE9ytbPBtHEHKAKgzcEsWWYbjwUOM8+zIm5rTF4zFPW+OhjaPxy/2L/oXh6jHanhiEHlqH0HP+FSGqyHsVw7GwMipqvYfdsPwyof2WNn6HxKSuD8l+J+QOumVZhuJUFe5Qigm7MAUHKY5gqjf0pyXilpPBLoSsnEqZAnMKIBAHUgpIwhYAx0ov7WBYGxQdAIi8zkejjy/l4WRiOU96hk3YgyhEfW41EkiiSC6gL/ipkEPdUCf2XouV0/vD0J2B5P2wcZ3I4NJyoiIsc+aigb1K2Z87eU/gFhXL5/L8Z3v9Tdp06R4D/KZZ2N3v+HeXIP0CNHvPYdtyHkAvnObHpI7rV0Kn85dz+q0ywbsPkFXvxDrxA2AV/vPctY0SD/PzrLR8E7DpPZ92eUwSHXCQ82Iv9yyfhYqVzdBQbPzWxW97GfeIStoc/LnpMU0L9eaaY7T8UBapIGhRoGJaRzAlVLsZosJNEHooVcgSDeAsxWo3Gpb1uCiBAWhSCZWckCxFqd0FKjkBQP03XIESvQNSMRO1YH6n9TKS7a1DEqbQ3YgA97YNMpocoWLaiTcM7+Pje4Vn91JIXs4+9d3swqo9dQeenoKGbGzX9DuP9WAIU2I/7gTUjjTm+cDid23XGbfIy9kc9NqhDyYvcyIS3xrMu/DZ/zBjIwLmHuXthBSMGDuKdny4XuU+VR4GN8zhGtbmPl++N/O8WBQR1HnlamclNSyWrtj11tUe6Uga3I4IIjHlQ4bcqCUIsASF16dapKi27dSDRN4RUI62GTOmEey8Fvp7+eHld4XX37qW/VaWM+6+o1QB79d9ciVdj1GQCXw57yPIpqwip05iC/sQgikaudLIJxze0lJfzFE15d/W39Ipfyagenen05kJ87OewcX5XqgiZ3LqZRG2HuohiLfrPW85341tihBn2DtW5c/224fWrjPHRx/D4abgXGEB8S9cKvT1T3/FfmICxbXPecm9OfEAwcU9XMKT+lTF+hsenbAzKfyXm76n879Y9wwqgwV2VwWSNMYutbeljbcUBKYvvsnLJP38k4mlqilV2JuPy1DTLUfGe2ogfTZQYeuKzJAbFpxCJJF9voqq0xsVeq4DKHB8JS0nCMSuN0ynJnEpNY8mTPOx0FyuzkvsvdfQmxvfpQtfPfcj6az2D27rg/Ho7Bq0t6JvyQlg5qh/dBnxLkOUA5ozOYPmo3rh2H8TXAVptWZnzDyga0rdTMqvG9aZD9wn8pBrED18MoJp2HSzP9l9pIrUHz+KDqsd5t1dH2nTsydBPfsTnbn5t1Fs+SKTej8Rj+Xu4dW5Hu/6z8az5Posm6twZUVL81Hn52xLEIo7PkuvPM8Vs/4kootJosJXycNaIpKvzaCBJVNMIPHzxy8pGNEGI3YPgMAaNZVEbvYYYVwdNfTukBm3h5kUKZVRzG4X3QSTXjeS1uIXCz08rsbSKaR9kMj1EwcoaayGV5NRiphaaeI7uCaX1iDepK5LfcLrZ4nXEnzQAsRY9+zlxbccP/BGegCrnCSm3IohJNKxrA0DRBEeHO1y5KWHZpDHKa7GkFHGGsfIY0/MrT4KDL+D/yzDStnzGpohsANS3ggnO7MKYYU2xFMG4mgtvT3+TekolSu0DWkohYMM8Pt93zcBOvRSEHMJ9wmncczxvdE7D1/d+ocZE6eRGbyNfzkZlk+TjxdXW7vQsdI+OC58cOk9wgD/BAf74rS7ivvuy7r+ZOWZPVGQpGjDu83FkbvmOg9fTyTIyx9zgyxZgZN+QOvevceOJbkrJFI37MtDhIr9uDOBBLqjTLrPjx2No+g2mk6mG29fvUN2+HubVujKifzu6jHHH0aQODeo+5sbNDMNvdShrfPQpRfzUd65zS6hHg9oV18jrPf4BMKHPsgtcjYkmym83H1ge5j/bIsk/Qgyof1D2+JUiPmVhSP4rNX86dA9LUZPLkFyRvWamRAsgCQpOmRijzs2hVcEymQpj9ivUTMzMYLkqh3RjEy4WNSYpA0Pio0tSpZGqtsBS+8b0MsdH4LSFDYOtbehrY8MEC2NsstP5d0Xczw8V0389o8Jn6xZCUzWgziZbe7ZY5vwDUipe237jUqoa6cltjmz1IKVjT9pqXbgp1/ZfaRLpcXGk13dlQGcHrIRcUm7f4uELM4riqW8FcCIkjvQ8UCdHceTsNV6rX1tnsmJA/AThhePT4PpTzPbVgsgjSaKaOo+GChNOk0crSYOtJPLwhS8rKxGe+KD4uw7qVo11E0HIQbgZidRoNJr66Yg3E15siJLOImbYwt2TiJkG95pFKrJ9kMn0UEqZGWRgjW0VER4UdZhKJHvu4cxHCxjW7A/Wq91wMz/Dfy4UnDUSbKhmoyHh3kODrqQUIljhvmQ7czpV5bUaIn12H2FO1TpYP2nEsa7RbJ66kIOJpd5qGeQQuHIsQzabYV3PhVFzNrDVaiYTNseQmxPO2tkbWPjpSjxmWJKXGM6fxwO51zSLB6VoMMtFAFWILzGLv2F40q+Mua1mwrNEJS3d+2D/WlXWeg1AgzFW1kpyethx4MCj/EXyotkyZS4HHuTHUtluDntmP9tA+agyUJnWpOmIhbwrbufdP+PQ2LlilpeFyuBTuwImFhYoVJmUth0UbWyxTk/kgdZJTM2D+yQataCqFWTcusXj2g4079QUhwu/c6ChG65NLuNQ8y4Bt4uq7y9ZaeKnVqHKMcXcrOIaef3HP+Q/s9KFD45lYVSlLp0nf8uKn/KYPGYjMXkl179SFueLShOfMtCf/0rOnx6CpKGqpGZSRgpjn34oSZhghKUECBoGZ6YzVGHBWGsjMjW5TM7MYL3GkvfMlM8mlGWlPz4vEqzssFOm8ncFnXGSBIFkAAQeKk3ZZJzN5txcrE1MCj4vh/L0X7rU97gZVwmdgiaFh1qjc+nxQx4pnLCzFEBlQIwt+rH8+CK6Gef/m3frd96buIm/DCtO/evrSy8XiTTvrxiXNYqp0zZycn4cJ35dy/r9UaQYVGAC1s4j+XDqINrVt0DUSCis62IUUkFtaDnrj0ZUkCTl0iRPQ7rSlBBNDiNyNVQRRB493UV98dWXDkAOQsQBhBFj0NxL007IF+eH4LYEdeZvGKVodCZsIlKzD9AIgQi1p6CuGYQiUes+dIO+/7kX2odSri/736SU0qKJjLOna5fabLoWV/QB9ySE3YfzWDesA17JvVCe/orwp3VVSiMlTcSlRlVE7hW9fnGkdE4vHoq362KODfFnyMIohm1Zi+2ycay/+nJranbqA+6nwv17d1izux/nxnXD/ucYrqklVFf3s+id/QVLKmn2wS4mXNrMXxUwWDJYRiBHjoQiLrwAAQAAIABJREFU3TvDNXW1558rW+LeywKPz4fxXVA2IFJ39Hq2uPeg6sED5E9Xckl7mEhCwcTPKDmrdOVUAvX9a9wwmsWiOZdZM3Yn19Vg1swRh/gb3DG4CCVyVFlozM0xL2Ufokl6yOMqTtS0EHh6E71YszY1cx+TlC6hvn2duGodcO/cnL/8l3I+ZSgz+7fCOPUmN9MN6OgrWanip7TE0lhFXGlndCUw6Ph/RkNu2h389p/l9nhXWtkIxKT8H3vnHRbF1fbhe2aWDorYYsVewIZd7IoYS2KXqLG8MbZoYkmMRhM1r6nGEixRo4klxhYbilgBQSmKFBGJYhdRUJQiopTd+f4AZUFgFxZ8zZe5r4srcZ+ZM/P8znP6zJzC46+o7x/lpUj6FAOd/usoX4b6pwtZEHgkqNhpZcW+fJYSBDmDHpkSh8yNsjruohEbzYzo9zSdRmYqLuQ9oYjo1OcVRCp160nT+GDWvHxOsGRRA3L2fw2mKO2XIOhYzdGgKZGbyoNYjkoVjXjhsWBTkfLqRB6n6Bl8qT584zL45bsScuZTHhXlPnWdr8tuMOncC9zGosAduNoP57+r1rHoSR9mHs3zIZb88se0I7Ndx2OyYjKjPG7yVC1SY+wW9tjlPbCYFCV+8kMQeIiGtpkyf5uKXBElbNMyyRBV2W03uvXVZX9Bkgfi/RFo6odB3k8FpJ1FjAyBZG8ETfncNrPOqDvVRHT/ANF6IZndRyDu3oLwwll9rw/kWz8U6XyFfysi6mv8tckf2yk/8UX/plS3KUfFGo3p0Ka2VsdRzdV9e4juPJFPndR4HLqc01BoYvD1vobd6BkMtrPBWDLCsnJ97G31/fShSIXaNUi8fpN0qQ71q9zhakn0QvRFVYv2Ti2p95Y15iamWNfqxLjBzXkSdZnYF7chqVAJIJpVpsXgBSx57zmbNvrkLu6CDZ0/Wco3Q+qUzkcB5CS8fprIzD+jcjXSqia96GnqzYGTMcTHxxMf/4DwQx5cd3CmW3n9cgAo/v0/D+bwiQdkXAsg8KEKqxqdmTatB3FHT3CzCNmYfucmsW/VpY5JXkvhqG8d59DVloz/qDNvGYNoZcf7U/pj7HWYs89BTr7FrTQ7OtjFcC44gUvnwqnZpSMVoq9TpIWV4uqjiyLoJ9WsRy31LW7cK8qN60Cv8p+DZFGNDkOcqfcwiitJsv7xV1z9iqBPsdDhf6n7pwONaIy7Ss17z9JomN0zM5bVtMxUYwzIiMQIajpkqDEHkDU4pmdiKknc10qn2OjQJwcBI6tqOAyYw8pZDQhYtYVQ7UWGYuujpl16BvU0MqayTI3M50xJ13De2Chvd6t46Nl+pT+KJ6VaS9pWNwFEjE2N9Wzfsim2/4BQhu5jRtHESgST6vQb04eyAV6c1369r7D05eckxsURm/0X9yilaO8z6Tpfl90gRKo260CjCqaIqEmOuUHsUwkT49zDkgLzx8iachYp3L/9kFS1hEUtJ8YPtHtVo8L0Kww946fg9EViRTUt1RIXJUiTVCSoM3lLEHIGK7r01WV/STJiyHHkBl2yvvyV1+bzMarQq3l+t0TTcTry7VVIsc8RrqxGyhiOunmNnEP0un4h9YNe5yv82xFBQ+yhefzn+wvUnrAa91M+eO5ZxSwnW7T7jZo4D3aF18MhxQP3XL0ENVc3f8bnR0wZtfoI54MD8PzzO0Y1tdSzMpeoVfctoq/HIFesS+3k69zI9aWrUkYwp+7bn/LLPk/OB5/Fe+tsHK6vZOqPvi8bQyPHrzgVHEKozy6+6ZPBjqnT+C0qz3K/aIFt83a0a1ChaJWdQRjRtFd3zPw8CdZ610MT44PnrRa83a2CnnmAAfefwpmls1gW3ZnVJwPx2z0P+7DFfP7HzSLNfKqvBxKY0orOLfN8IkTVnKl/uOPtcwbPBY6YtZjJwTNenNw/j27mgPomWz+dw4nKU/njpD/njq3A+cEvTP3Bh2QZUN/m2t3q1NEEc+6BhucXgrhWvQ6q2zdf/dpVYRRbH13oq59IdccOVAkPoKjfICgcfcp/9jsrlyK4eHo3Cx2iWDLzF8IyihB/xdZPX32KS2H+vw7/QMp8xi/JSfyRmoGF+jmrkpPY9jSNSgCIeFhYskNIZ1FyAqcSEziU/BSXTDnrOoIRv1iYkpT+hP2JCZxMSmacbMwX5iY8yHWV4lKYPtmo2vCV5wUu+Ozix2E2+H45ltnusblnmQ3Qp3LGM5YkJ3IyMZFNT9N5bGrFf43Fos9i54t+7VfGuY0sdjNi7HZfgs+e5uhXXbESQLJ1YdWhE5w5Mp8OZk2ZuecU3geXMSzvzrUG+E9GAH94VGT2Lm+CTu9kitVBZn97hEfa9Vex05doMOYXDp88ytddzWg0aStex/aysIe+k42ljUCZpiP4cddJzp07x1n3RTQK/p7lxxNzraoUlD+keLN+zR26r/EiONCTXXMacs498NXHIwvRT2o6iS0H3Ng/vwuWdh/w2wE3Dvw4gKyty/SLn4LTF3kgyFhIKiIFkEUVFwQNoihSxNc39SNuL1JcXg8LodqHqOteRfIPzPq3HIPoswe5zUw0ZV5Zx8offeoHBQUdCHUbvJiv04FQnoGr9tDX24VJex+U+rPaCv82JBpM3sHvjbcycIZ7qT9e84/DuAmzdv9MRddBzPP+Z+2BoKCgoKCgoKBQXPQcGgtYt5vI+Ian+fOYMlBRKA3URG39jn1VxjO1/Zsyq/emoKK2yyycbyzH1UcZqCgoKCgoKCj8e9C5siLVep/1v03CXn2NvYtns/x0vLJ8p6CgoKCgoKCgoKBQ6ugcrCgoKCgoKCgoKCgoKPwv0PMxMAUFBQUFBQUFBQUFhdeLMlhRUFBQUFBQUFBQUHgjUQYrCgoKCgoKCgoKCgpvJMpgRUFBQUFBQUFBQUHhjUQZrCgoKCi8BuR6aaQsSSJhWyIJm5JJbZr72ya67Ar/QowcWXzKjZn2RdjIT+F/iECZgb8Qsm0sefcFVVBQKD7ZxcmYGt2n8fOu4wSFhBLmd4IDayfSyjz3waWJUG4gaw/OoaVKouHUnWwcXvH177Vh3Jipf4Vw6a+J1NVqG4RyrZnouh+/4AuEB3qwaY4zNYxy7KWJsfMyLly6wP7J9bJ3rLai389nuXxxP5801LpJVVNmHw4nZM272GgJJ1RyYfP5zbyftd0uAEaOizh9ch5tVTnH6UUB+iCWoYHzFJbv8yN8dx5bUTBtxvTdB/i6UxmtncErM3JTGFciI7gcEUaI70E2LRhCY4scJ8UKHfho5T78gsO44O/BlvnvUM80y6ZTv5fpX+LypXAunvVk3+oZOL2uDEaf+JKwHbWRoz+/Q9VSaQALKf/66lNA/JUEuvUxlEL8f4Gh/gka0kc8Q/23BdZjrSk30Qqzv7ULagF2QUbd9RkpPySRsD2BhN+TefKfdNTaZdcqk+efJZO4LYGEzUk8GZuOpqhlu1AK1keo5MLmsEtcuRRBZIgfnrtc+ax/A7SKpw6MqNLxQ5ZsO4xfUEh2+e1LLeOcI6QqXZmxZj9nzp4nLOAY278Zjr2l3hcoESS7T3DbaUDd9sYi0WDsWjw8TxMSHkFkiD++x/axqOc/a6+rUssfwYrGAz5jze4TBIWGccHvMJu+eBvbEq1/ShHLIWTOOEf6gL45+3NVnUnGh7ORRaD+96R/GkhG+zrZRis07/qQPnMn6ooSWL5N5qTdqKtmN6iIyI2XkDFmKrKKXO3DlUsXiQw5w/Ft3zPWoSwCetYPZg0YsnATx84EExEayJkjO1g6rG5We/2mI2hIW5jA478SeLw7gcfbEkla/JTnWh/ZVQ9OJmF2ev77o+lxvkIWIgjYdF/A5u+68HjbLN7p4kinARP5+vdTXHuW9/DSw6R5a+pEBvG3pgItW8iEhD7OP3NLDRX1R8+lj3yDBO0LC2XoOWcJI+TtTHBqR8cxBzAb+T0/ja79mgqTTHrMPawcO2Z1VE1b08XhKbHxuXe7Udn1ohvXudfMmS7lSqOZKUAfJBpMXMva0ZWJPBNBirapSEjUHTWHYQ82scovOU/eZ3D2m57YNWtHj3ErudVyHksn2GXpL1bH5YdlDNX8xbR+Xenq8g0hjeawZlYbsvqa+uiXhufnbWnUxIG2fT/mL827/DC3b/E6pUVFr/hSc3v3Co7azmRWT+sS7kToU/5161Nq8aeXPoagj/8l4J8oo7EG6ZIKQQ1kCAiZ+tllMwGj7ZZYjy2H9ZemCK1TSe2SHb+CTPq4pzyXTbCaYo31AhPkt1NJ6at+mbRh6KFPZhCLezanWefBTN96l5Zzf2fVe7b65Y9gRf3WtXi4ZwEjnTvR+X1XojssYvGw6lkzaUJZ+s79nr6P1zC8Sxta9fkcP9tZ/PhBI/3SLyGMq9WgcqlMFOiDjFxqjaGaqC1T6NuzNwt9nnF5/Wi69x7MIs9/1uazpZk/ZhapnPl5Is7t29Dx/bXEd1/El+/+DyZTi0vaLYSKw9GUz08gGZLug20HZAEwckBT9SlCanb9knIcKSAWTZfhWYMbk/aoHesgem/Sqr8yOPtNDxrbN6N51/dYGFiNaUs/pp1JtrnQ+kHCfsISvmpxlR9HdadNp768N9OVXcH3KKkarPQRMPqtLDbDy2EzsQzmERqezXhGht4DWkPP/3cgItVi6GRn4jfO4dtDEcSmPCMl/iahQVEkyaBqMgN3r8V0tcg5Sao3iX3+qxjworciVaLjpJ/YecyPC+GhnPfczldOFfV6xkzVbArb3N3x+LYvlTt+zv7DO/i0dW2Gu+5n80T719YgSbYuzB8Uy/rtV3JXQqZtebtTHNt/3kdkgkzNXk7USlPTpHcPauZaXajOiA2n8VrgyIs5iJJBgJgLXKzUiU4VRUxadKbVnWDC07WPUWHfqzviqVVsu9SM3l3KFb0i1XH/BeqDmqgNY3EevYitoY/1yvN8UTVl2NAq+O4+TnxBraQmjcQbpzgUEE+VmtVQAVLtfgxrHsmG73cRGptEYrQ/a10Po+o7hA7moJ9+2chqnj2KxP1kJFLlt7DRdkaHPsVG3/jK+Ju9B2Lo6uJMpWKLnA86yn8uCtRHj/grrn766lNc9PLfAP/Kp5OyLInEX5/wrIZM+qwEHm9PIGFdKhkqPeyygOqoKSbhEkIGCPeMML4GmkrZN2ecSXoLEdPtJkhPQN0+HXUGZHbIQF0ScaKXPgAymU/jiDi8lOlLQrCbMI722kIUpI/8GF/XL/npQDC3E1JJvuGF+7kUatatll33qzA1E7kdGsz9NBl1YiRBl5MwNjN9NQ+KSyHtl9RkMn96+uG/tDfWdtNwCw7lYth5Dn6S3Tap2jBr9zHOBAZz6fR/GfL2F+w4dgp/v2Ms7mKWc42C/NeTSl1ns/mwD0HnTnNk3Sd0rpQn+A1M/01GKNuS8ct24x1wjpBzfnjvWcLQ2tldXV35g4BNh8ms2nWMs0HnCT3rxd6lY3CwyhM9BeknPyFk+y/s8L9JQloGKTdPcvIiVKlWIbutE7BoNIxvtx3j7NlAAjx+YUKzfB5JKSh9fePHEMRbiBFqNA5t8loAAZIvIlh2QLYQoWpH5ISwrAkTADQIEcsQNcNQ29VEbjMN+a4rUnSqdiLZyGQ8ucvZg95cL2tLzVzLJwXVDxKVq1UmIeg4vreTefb0MXcvBxJ04zXOlJckqSJGPkZIlho0+YSBTgw9//8xomDZjJZ17uDjeyffkWxm5B523+3K8J422Y2DRB0nJyqfccP7sQxI2I78CddhxhyeO4QOrTvgNH4Jey8+1mun+8zwtbz/zihWhd7mz6n96PeZG3fPLWNov3cZ9+ulfO+pxBGrMeSLkaRsWM6JRCFXh1uqUhtb9VUux6gxqv8+Xw1+yNIJKwiqVo/s+jILOYXbYYEERD4gQ+vnkkAQovAPqk7n9uVp0rktcb5BJBlpVQQqe5y7S/h6+uHldZkWzl2KvipQ2P0Xog8A6sysfBLEV216ItV1pL11KL7BhVRSognl6jsztLMFIQERZAAmDRpjG3eJCK2VkvQrEUSZNqBxjezmSpd+LxEwLteId5wbEeN/lmjt4CtMHwPQO77QcC/An5gmjiX6eKau8p+bAvTRJ/6KqZ/++hQPvfw3xL9Hxlh+WhbriVaYRQsYLy+HzchylJtsjlGmHvY8yPXSSGskYhySXdIqqNGoJaSHQM00UruLmH9jhlFFNZrXpU8uZOJ9vblYpjkOtlo3UJA+eZFq0MzenBtXbmVdT37M0V93YjV6Ef9pVw+7Pp8ytXEAy/4IJx95ikHh7Zc6Yh2jenak03wfnv29mgGtHGjaojXvrsxumzKDWD68N537fk+gZV9muaSwdHgPHLu8yzf+WnWZvv7nh1SHXu0TWDGyB227vM+vqe/y05d9qZCrL2hA+m80IlUHzOCj8of5oHs7WrbrxqBPf8HnblY06swfZJLuh+Ox9EOcOrSm9dsz8aw8hQWj6+eeCNVLPwnrpiMZ3vI+Xr43stI3asqUpZ9jf/G/vNOpA13H76O8Y0u0nmLMoqD09Y0fQxBNEKJ2IdR6D41lfi30NcToamhq2iDXbgU3z5OrIdfcRvLej+y4lszGt5DOnNEyaiNhalOfXqP7Ue9OCBdeme2CV+uHDMJOnELoO5O5g5pT8RXh/lnIZdWk90tHHatCVYzHTAw9//8zKsGqLGWFJBKSChhaaGI4tCuYiS79qe6+lWihDr2cyuH1sx/JAGIVuvW259q2gfwZGosGSL0VRmKeZApFqo9drTuE35Sx7FkP1bVTJOYX56WCSOV+nzNe3Mp49zg0nfOYzcwxe57KM6k2I+eP5OmGcey/3pweRuaYq4AXM/RyIv5rZuOvfW5JIaQT6hPKhH6j6FMrGd+596k+Ksessneih5EvCy6mER/jxZXpznSzcWPvo2wRVQ58euA0H7/IYpUZlk/2vDwfKOT+deijjSAUe7bTyLYO1e5f48bzvBYAI9p96cXfX4KceZsj307i0z330CBgZmGOmJrCU+3D01J5qjbH0jz7bnToByb0XHKOK0sAOYOHQb/x+eZw0rQPKVAfA9E3vgD1nevcEpyoXVWCKP26jrrQWf4BXfrojD8ovn5F0Kc46ON/qfqnJxmTkkhxlJEFEePtFphGZce2iYycDoKo5vkHaQj7rTCJziTDSEbO6gsYhD765EVOTSZJbYGl9syqXvqYUP/9+Yyz2M8M97jsyS6ZlMiD7LziyuxFyxhjY8rFVbM5G1sy8V8i7ddLUvHZtIHgJA2QVnL1h5yE1+YtXEhSA7c5uMmDSRu70crsEMdeTHAbkv4bjcyT6Gie1HSkbwdftvrcJPH2rbwHFYr6lj9HbmX/I+EiB09eY3TjqkhE5QzAC9XPmG5fH+HHt62xFO5z/OfZrAvLyl2pTme6VA5i86/+PMiQ4b4Xmw5E0bdTniQKTf8FhcSPQYjw3Afp6odkNquHeCuPWUhHuBmO3MgFTbkniEdikR3yHBN/EjHlQzQJRxGf5u2cZbfP82Uyn8VzM+QICz/9nStq8u0P5K4fZB6fXMB7T1yYPHkJHjMSOLVtNT9vOUOMgXX760MmY3wSjz8A0kSky8ZYrDBB0ruKMvT8fwcq+WkKKZSlXBkRHuSnjkyC5y5OfDKHwQ3/ZLXaCSfzE3x3LnvUL1hTwVpD7L2Heq2k5EKwwnnRVma1L89blUR67jzIrPLVKPu8Lu6dIlg/cS7744qcapEQyjsxe0pZdkzbw101r86IpKaQalqZBkPn8oG4lQ/+ikZj44hZ5jNSS2ZqTzcCpAb5ErnwW4bE/857t9W8/9KooolzT2zfKs9Kr75oMMaqrIr0rjbs2/co65DMCDZM+Ix9D7K0VLWexa6ZLxMoFJ36lAgCJhYWSKlPeaUeBLKeie3NuD0V+HjnOppqEngiA8ikpjxFY26J1lOKYGKBhZTKzacyVESHfpD1TkZHPnJ/hlGZ6nQY/z3Lfs1k/HtriSztPC5KfKlTSU03xdwsvyageOgu/1C4PoXHX77ZWRSKok8x0O1/KfunJ6o/rSi7D+TKmaSNSuGJuSVl9knwXEAw1qB2esZzwQQrTxHKyMhqAT2XQgpFtz6vIljZYKNK4mqRZpxMqTfsR34dl8kvE10592L2QazOsOUbcLk+n3f7B/KkYkc+WvIzm8rPZITrBfKd2ygKhrRfeVHf42a0gaPD/NAk8vBhTrry44c8kuyxsRQgVQ+NLXqz9PACOmdX3pm3/uDD0ev4W7/s1H2+LrtByCR7f83IZ8OZOGktRz+P5sjvK1m99yKJemWYQNmmw/h44ru0rmmBqJGRylbHKKgodWg6ActHMHC9GWVrODB81ho2WU3j/fWRyNblKPP0AXEpL/JBw8O4+OLVCwXFjy59ddkBSEcI24cw9D0095K1DVlEn0FwWoT66RaMEjV5qg4RueFHaIQAhKoTUFcORIrTHklkt8/bX0wwFM6r9UMGsWe3sejsDlwb92Xqwh/4o/oXDFh0Orudf9MRMPqtDFZH81u10gdDz/93oJKTIwiPtqVTx6qsuxadf7A9D2KnWyarBrfFK6E7quNfE/pyRSGZxGQRh0rlEbmX//kFIT/h+MJBeDsuxH2gHwPnXmTwhpWUWzKS1VdKpKbTiVErZ5xs2/COezhfaP3uEdaHNUOHsvL2NW4YzWDBrEu4jtjOdTWYNbSjVswN7ryeW8wiJYCDB4OR753gmrpCzu+qJjh3t8Bj/mB+CEwDRKq7rGaDc1fK799H1nAlg+SHccRmD/yMEp7pnU869SmRfJJJT32GxtycF4sh+ZIeySbXU7gtnEb3E/PxTJRJv3aF25VbYV9e4OKDrJrNuKE99Z9HseeuGmpln1uQfrnQkJF8hzN7T3J7lCPNrAUiC3yBpmRQ3y9CfKkssTROJTr/EV2x0Kv8vyQffRILjz9D5SuSPsVAp/86ypeh/umLkCIipAAPjTE7lk5inwzUBySkeAlJ9Yyno1SYzTdFUoNsq0YdJ5XIzJxOfV5BpFK3njSND2ZNrucoC0GwwH7sCn4Zlca6SdPZcTVnCCJYt6d3q9vsXXiOR2og1o81v5xi0KK3sVtzgRBDB6xFab+EfB6BzYUGjZ4uFwmxHJUqGvFi9CnYVKS8OpHHLzvIOkj14RuXwS/flZAzn2ZpqS+6ztdlN5h07gVuY1HgDlzth/PfVetY9KQPM4/m+RBLfvlj2pHZruMxWTGZUR43eaoWqTF2C3vs8h5YOGlJD7ifBPfv3cF1Z29OjeyM7cZIbiY+JsmsITamZK9iipS11vqaZZEoIH506avL/oIkD8T7I9DUD4O8n8JJO4sYGQLJ3gia8rltZp1Rd6qJ6P4BovVCMruPQNy9BaHQwlIQhdUPahL+PsTS37sx6JPW1BJPczHvIQr/WkTU1/hrkz+2U37ii/5NqW5Tjoo1GtOhTW2tjqOaq/v2EN15Ip86qfE4dDln5K2Jwdf7GnajZzDYzgZjyQjLyvWxt9X304ciFWrXIPH6TdKlOtSvcoerJdEL0ZP045/Rwt6ehnZZf00/cuNxhCt9WwzK6og/D+bwiQdkXAsg8KEKqxqdmTatB3FHT3BT+zYFGzp/spRvhtQpnY8CyEl4/TSRmX9qLV0Dqia96GnqzYGTMcTHxxMf/4DwQx5cd3CmW3n9cgAo8P516lNCpN+5Sexbdanz4gsi+SKTfHota691YdaHzTED1Dfc2XvRnglzh9KkgiVlanRi6oz+qD32EqD9DmAB+uVFsqhGhyHO1HsYxRXtZ24L0Mdg9I0vQKpZj1rqW9y4V5gHRUSv8p9DXn30jr/i6lcEfYqFDv9L3T9dSGoy2maiLi8jG8nIVTJ43iMT4baEqAHSVRifFSFahVGCjFw5g2fD0xEDjJCK1ZnIgw59chAwsqqGw4A5rJzVgIBVWwjVniQuSB/BmjZT1/HryKesmfYlbndFzM3NMTczQRJATr1LdHIdOnevjbkImFSla5+2mN2+zr2S8E/P9iv9UTwp1VrStroJIGJsaqxn+5ZNQf7rg1CG7mNG0cRKBJPq9BvTh7IBXpzXfqWhsPTl5yTGxRGb/Rf3KKVo7/voOl+X3SBEqjbrQKMKpoioSY65QexTCRPj3MOSAvPHyJpyFincv/2QVLWERS0nxg/M/pKkNgXpp6pFe6eW1HvLGnMTU6xrdWLc4OY8ibpMrBrU133wvt+GkWNaYC2BUeVOjBtsxytfDi8ofX3Qpa8u+0uSEUOOIzfokvXlr7w2n49RhV7N87slmo7TkW+vQop9jnBlNVLGcNTNa+Q5ThcF1A9iRZp3bU+jqtaYSSImFZrhMrAVmTeulkz5flNQycgWWn+F9nMU8kMEDbGH5vGf7y9Qe8Jq3E/54LlnFbOcbNHWUxPnwa7wejikeOCeq5eg5urmz/j8iCmjVh/hfHAAnn9+x6imlnpW5hK16r5F9PUY5Ip1qZ18nRtv1LOKKZxZOotl0Z1ZfTIQv93zsA9bzOd/3Mzd6RUtsG3ejnYNKhS9Mio2RjTt1R0zP0+CtZ6H0MT44HmrBW93q6BnHmDQ/UtNJ7HlgBv753fB0u4DfjvgxoEfB6C1tYtO1NcDCUxpReeWOr5lo7nH/hU7SB/6GSPqSKC5y845n7HfaCTrj53hzF9f0jJqCVOXB5Hf90ryJ/udjEsRXDy9m4UOUSyZ+Qth2p0tA/QpHD3jC5Hqjh2oEh5AYd8gKDr6lP+C9ClC/BVbP331KS6F+f86/NOBAGrHZ6T8lETCn4kk/vcZmTFmWG4xyr62gNE2C8zjMkhZk0jiD6moo8yx9CipuyhMn2xUbfjK8wIXfHbx4zAbfL8cy2z3rPc/XlKAPkKF3kz9sCUVqjuzeL8/oeeDsv4C1zOisgjPz7J8xq8k9l/DSf8AznluZpLFQaZ/uZ/YEunM6Nd+ZZzbyGITlHQiAAAgAElEQVQ3I8Zu9yX47GmOftUVKwEkWxdWHTrBmSPz6WDWlJl7TuF9cBnD8u4IWID/epERwB8eFZm9y5ug0zuZYnWQ2d8eQfuVqeKnL9FgzC8cPnmUr7ua0WjSVryO7WVhD30nG0sbgTJNR/DjrpOcO3eOs+6LaBT8PcuPJ+ZaVSkof0jxZv2aO3Rf40VwoCe75jTknHvgq++DFKSfYE7dtz/ll32enA8+i/fW2ThcX8nUH32z1iYyL7H+82Xc7LSME4EBeK0fRMyBI2Qv8udQQPp6x09JEbcXKa4IEVLtQ9R1ryL5B2b9W45B9NmD3GYmmjJ63mOh9YMx1bt/xIo/PQgICSXo8DL6P9/BzMV54vsfjtwylcTNiSRk/yXOKGDfFYUCEeo20HP3GaE8A1ftoa+3C5P2PlCEVihhJBpM3sHvjbcycIb7a3u85h+DcRNm7f6Ziq6DmOf9z9oDQUFBQUFBQUGhuOg5NBawbjeR8Q1P8+cxZaCiUBqoidr6HfuqjGdq+zdlVu9NQUVtl1k431iOq48yUFFQUFBQUFD496BzZUWq9T7rf5uEvfoaexfPZvnp+MJfQlRQUFBQUFBQUFBQUCgBdA5WFBQUFBQUFBQUFBQU/hfo+RiYgoKCgoKCgoKCgoLC60UZrCgoKCgoKCgoKCgovJEogxUFBQUFBQUFBQUFhTcSZbCioKCgoKCgoKCgoPBG8spGqwoKCgoKJY9Rpaa079ScqtbGCOonXD25n+CYnL2mddn/fyNg2XQ03yz6D51rl0FKi2HXzOF8H/hiN05d9v+nGDmy+MQcHk8dzIpLJbMNqoKCgsI/jeyVFWNqdJ/Gz7uOExQSSpjfCQ6snUgr89wHlyZCuYGsPTiHliqJhlN3snF4xde/14ZxY6b+FcKlvyZSV3uTV7EMDZynsHyfH+G789hKGWPnZVy4dIH9k+tl7XwrWNHv57NcvrifTxpq3YiqKbMPhxOy5l1stIQTKrmw+fxm3tfaTt7IcRGnT86jbVGHqqWtj2kzpu8+wNedymjtDF6ZkZvCuBIZweWIMEJ8D7JpwRAaW+Q4KVbowEcr9+EXHMYFfw+2zH+HeqZZNp36vUz/EpcvhXPxrCf7Vs/AqYbRy/RLG6Fcaya67scv+ALhgR5smuNM7stL2I7ayNGf36FqqayFFlL+9dWngPgrCXTrYyiF+P8Cg/0zp1br1pSN9cJt8+/s3HaAC/e1ByIF2Y0p16A9XQeNZPj4DxkxxoWejnWw0o4DwQTrOi3pNGQMIwY5ULZY91cYBesjVHJhc9glrlyKIDLED89drnzWvwFaxVM/hIr0n/4x9c7PpVebVjh0HYFrsNZARJe9lJHsPsFtpwF12xuLRIOxa/HwPE1IeASRIf74HtvHop7/rL2uSjV/dLRvJra9+Xy9G2fOniP4zCE2fuZE9RKtnwzAcgiZM86RPqBvzv5cVWeS8eFsZBGo/z3pnwaS0b5OttEKzbs+pM/cibqiBJZvkzlpN+qq2Q0qInLjJWSMmYpc1P6DgoIBiCBg030Bm7/rwuNts3iniyOdBkzk699Pce1Z3sNLD5PmrakTGcTfmgq0bCETEvr4NW9+p6L+6Ln0kW+QkOvCEg0mrmXt6MpEnokgRdv0WpBJj7mHlWPHrI6qaWu6ODwlNj73bjcqu1504zr3mjnTpVxpNDOlrY9E3VFzGPZgE6v8kvPkfQZnv+mJXbN29Bi3klst57F0gl3W4EOsjssPyxiq+Ytp/brS1eUbQhrNYc2sNmT1NfXRLw3Pz9vSqIkDbft+zF+ad/lhbt9idkqLiFCGnnOWMELezgSndnQccwCzkd/z0+jaWf4BoOb27hUctZ3JrJ7WJdyJ0Kf869an1OJPL30MQR//S8A/0Qxzc5nEe3E81wDqDDK1Q7AQu8oog/tBHrht/p09B4N5btuFNg1ejKRErB3eplsTCxKiH5LxIr0SQw99MoNY3LM5zToPZvrWu7Sc+zur3rMtWv6INlSqoOZKUCiP1SCnPyVV2xld9lLGuFoNKpfKRIE+yMil1hiqidoyhb49e7PQ5xmX14+me+/BLPL8Z20+W3r5o6N9U9kzecU8moZ+zYCO7egw5Eei2i5ixX/qFy3+S5O0WwgVh6Mpn59AMiTdB9sOyAJg5ICm6lOE1OzKJ+U4UkAsmi7DswY3Ju1RO9ZB9N6E8G9Z9FV4IxCRajF0sjPxG+fw7aEIYlOekRJ/k9CgKJJkUDWZgbvXYrpa5Jwk1ZvEPv9VDHjRW5Eq0XHST+w85seF8FDOe27nK6eKer0Qo2o2hW3u7nh825fKHT9n/+EdfNq6NsNd97N5ov1rK/CSrQvzB8WyfvuVPJ1BNVEbxuI8ehFbQx8X7JNYnREbTuO1wJEXcxAlgwAxF7hYqROdKoqYtOhMqzvBhKdrH6PCvld3xFOr2HapGb27lCt6h1bH/Rusjy5UTRk2tAq+u48TX1ArqUkj8cYpDgXEU6VmNVSAVLsfw5pHsuH7XYTGJpEY7c9a18Oo+g6hgznop182sppnjyJxPxmJVPktbLSd0aFPsTFty9ud4tj+8z4iE2Rq9nKiVpqaJr17UFM7+DP+Zu+BGLq6OFOp2CLng47yn4sC9dEj/oqrn776FBe9/C++f4JlAzoOfY/B77+LXTljbJ3GMWL8eEaM7EQVUbcd0nl4KZiou4mkqTVkJN4i+gGYW5pn34OGxLBDuB08zeW456/el6HopQ+ATObTOCIOL2X6khDsJoyjvbYQBegjvjWApW7H8PXZyoR6lvRZfpaLYaFc8PoSRyPd9hKhkPZLajKZPz398F/aG2u7abgFh3Ix7DwHP8lum1RtmLX7GGcCg7l0+r8MefsLdhw7hb/fMRZ3Mcu5RgH+60ulrrPZfNiHoHOnObLuEzpXyhP8Bqb/JiOUbcn4ZbvxDjhHyDk/vPcsYWjtLP915g8CNh0ms2rXMc4GnSf0rBd7l47BwSpPSSlQv8LbN6lWZ7pW8mfT5hAeZcqkx51h5YrjlO/bh0baWVRQ+vrGjyGItxAj1Ggc2uS1AAIkX0Sw7IBsIULVjsgJYQgvnzjUIEQsQ9QMQ21XE7nNNOS7rkjRqdqJKCiUOirBshkt69zBx/cO+T0Rmxm5h913tzO8pw2+Bx8jI1HHyYnKZ9bj/VgGJGxH/oTrsERcZw/hg0uJGFdtRNVnj/Xa6T4zfC3vv7OdQas2U+/XoSxXT2PvJ/f4cPJfBXdaSxqxGkO+GEnKhg84kTSdeXnt6kzUgCSIr1RWL5FTuB0WSEDcgxKf3RSEKPyDhtG9fXmiGrYlzncrSSPq5hygsse5u4TvAj+8bl9munMXbNwO8Kgo+hV2/yWhjw6kuo60tw5lXXAhy3miCeXq9mRoZwtCtkSQAZg2aIxt3CUitFZK0q9EEGX6HxrXkDiNHvq9RMC4XEPecW5EjP9GorULRGH6GIBUpTa26qu4xagxqj+OrwY/ZOmE/fRb04zaEtzUajTuBfgTM8WRVua78Xhliq946Cr/uSlAH33ir5j66a9P8dDLfwP8k1Oi8NsTBWJ5mg/uj9X5bZy5pXUlXfZciJhUsqf+WyncjUjImfnWaLL+XxBKfLCilz65kIn39ebigtE42Er4Xck+qwB9NLFufDbADaRGTN+7iRqruvKZp9ZMgi67wehovyLWMarnOiz6r+LM2IsMfe9XrmsLkRnE8uG9WWEzlI2ec5nlsoVPhvcgOMUIEyEt57gC/NcLqQ692h/hw5E9CE+rzsDvfuOnL2/Sf/qhnDbSkPTfaESqDpjBR+UPM7T7Vm6mqbCuWQ2je1mZoNaVP8gk3Q/HY+lh5oVGk2rVnEkr17FgdCBDf4nKienC9CusfRMFBHVmrlXSjOQknlW1pboKXr5mVFD6+saPIYgmCFG7EAa/h8Yy6FUfuIYYPQhNTRuESq3g5nZoUSvHrLmN5L2fjEFryZQvIG0/k2NTUHhNqASrspQVkkhIKmBooYnh0K5gJrr0p7r7VqKFOvRyKofXz34kA4hV6NbbnmvbBvJnaCwaIPVWGIl5kikUqT52te4QflPGsmc9VNdOkViUjrZBiFTu9znjxa2Md49D0zmvXYvCOgNyIv5rZuOf9/eSQEgn1CeUCf1G0adWMr5z71N9VI5ZZe9EDyNfFlxMIz7GiyvTnelm48beF70plQOfHjjNxy+yWGWG5ZM9L88HCrn/EtJHB0a2dah2/xo38n0M3Yh2X3rx95cgZ97myLeT+HTPPTQImFmYI6am8FT78LRUnqrNsTTPvhsd+oEJPZec48oSQM7gYdBvfL45nFxNRYH6GIiZOWbPU3km1Wbk/JE83TCO/deb08PIHHMVoNUvU9+5zi3BidpVJYjSr+uoC53lH9Clj874g+LrVwR9ioM+/peqf3ohUa2LC451TDEiheggLyLiSib/daGPPnmRU5NJUltgqf3iSqnqYwAl0X69JBWfTRsITtIAaSVXf8hJeG3ewoUkNXCbg5s8mLSxG63MDnHsxQS3Iem/0cg8iY7mSU1H+nbwZavPTRJv38p7UKGob/lz5Fb2PxIucvDkNUY3roqE9mBFD/3yad/Ut85y9ulS3hvcgJDdUaTbOPD+5P7UUEWi0h4V6JN+YfFjECI890G6+iGZzeoh3spjFtIRboYjN3JBU+4J4pFYZIc8x8SfREz5EE3CUcSnr61zpqDwElF+mkIKZSlX5tXxdhYyCZ67OFF5EIMbSkh1nXAyP4HbuewZcMGaCtYaYu891GslJReCFc5f7+fo4eUMq9aKmTsPcmBuJ6r2+x53tyUMKp2HUHMhlHdi9pSy7PhhD3dfT/tfdARIDfIlsvVohuDHqdvaN6qiiXNPbN8axEovX07vmUHLsm3p3dUmp2LNjGDDhKEMGDSYAYMGM+TrE3oPBl+PPgImFhZIqU/Jvx7M4Ow3PWjcYjhrr1lhpUngiQwgk5ryFI25JVpPKYKJBRZSKk9eJFaofvDinYyGdk1p0uFd5l1oz7JfJ2H3Ol4gTE0h1bQMDYbO5QNxK9/9FY3GzAKzzGek5n0mWJ1Karop5mZ5m8zio7v8Q+H66BF/hlAUfYqBbv9L2T+9UBN79gCH9+zlyPEwntfvjZNDhXxmSEse3fq8imBlg40qiQR9K5n/JYa0X3lR3+Nm9Cvz8oajSeThw5x05ccPeSRZY2OpZwRa9GbpKT/O+mf9+W2fTOOiPEKp63xddoOQSfb+mpHzTlNxzFqOHt7Al8OaYq13OAqUbTqcL1dt44Dbfg7u38P6sQ0xEvTUThfpoaycuYb4t5fj4XOKo+vGYBISwL2HsTwoaigUFD+69NVlByAdIWwfQuP30BjnUy6jzyBUH4maAMTEvCVBRG74ERohAKHqBNSVjXObdV3fULuCAqCSkyMIj7alU8eqrLsWnX+F/TyInW6ZrBrcFq+E7qiOf03oixlNOZnEZBGHSuURuZf/+QUhP+H4wkF4Oy7EfaAfA+deZPCGlZRbMpLVLx4fKGWMWjnjZNuGd9zD+ULrd4+wPqwZOpSVr+k+dJISwMGDwcj3TnBNXSHnd1UTnLtb4DF/MD8EpgEi1V1Ws8G5K+X37+MRABkkP4wjNi4rd4wSnumdT69HH5n01GdozM15sRiSL+mRbHI9hdvCaXQ/MR/PRJn0a1e4XbkV9uUFLj7IqoSNG9pT/3kUe+6qoVb2uQXplwsNGcl3OLP3JLdHOdLMWiCylJ9FVN+/xg2jGSyYdQnXEdu5rgazhnbUirnBnbzSqiyxNE4lOv8RXbHQq/y/JB99EguPP0PlK5I+xUCn/zrKl6H+6Ys6LZXUNEhNSeJCZB0GN6mBVVj8q+8VlTA69XkFkUrdetI0Ppg1uZ6jfEMpSvslCDoGiBo0peGyWI5KFY0gex1AsKlIeXUij1P0zPxUH75xGfzyXQk58ymPinKfus7XZTeYdO4FbmNR4A5c7Yfz31XrWPSkDzOP5vkQS375Y9qR2a7jMVkxmVEeN3mqFqkxdgt77PIeWFxkUq/sZcG4vdn/VtHwox28f2E9fxd5MqWA+NGlry77C5I8EO+PQFM/DPJ+KiDtLGJkCCR7I2jK57aZdUbdqSai+weI1gvJ7D4CcfcWhBeFRdf1DbUrKAAi6mv8tckf2yk/8UX/plS3KUfFGo3p0Ka2VsdRzdV9e4juPJFPndR4HLqcs3yqicHX+xp2o2cw2M4GY8kIy8r1sbfV99OHIhVq1yDx+k3SpTrUr3KHqyXRC9GT9OOf0cLenoZ2WX9NP3LjcYQrfVsMKlpHXLCh8ydL+WZIndL5KICchNdPE5n5p9bSNaBq0ouept4cOBlDfHw88fEPCD/kwXUHZ7qV1y8HgALvv8T00UH6nZvEvlWXOiZ5LdrIJJ9ey9prXZj1YXPMAPUNd/ZetGfC3KE0qWBJmRqdmDqjP2qPvQRovwNYgH55kSyq0WGIM/UeRnFFuydYgD4G8zyYwycekHEtgMCHKqxqdGbatB7EHT3xyvsYUs161FLf4kb289olgl7lP4e8+ugdf8XVrwj6FAsd/pe6f7oQy/JWrbcoa2mKSlJhUrYGjRtVJv3RI1L17KsahA59chAwsqqGw4A5rJzVgIBVWwjVniQuLX0MRc/2K/1RPCnVWtK2ugkgYmxqrGf7lo0h/gtl6D5mFE2sRDCpTr8xfSgb4MV57df7Cktffk5iXByx2X9xj1IoUj9a1/m67AYhUrVZBxpVMEVETXLMDWKfSpgY5x6WFJg/RtaUs0jh/u2HpKolLGo5MX5g9pcktSlMP11IKlQCiGaVaTF4AUvee86mjT65hwOGpK9LX132lyQjhhxHbtAl68tfeW0+H6MKvZrnd0s0Hacj316FFPsc4cpqpIzhqJvXyDlE1/UNtSsoACJoiD00j/98f4HaE1bjfsoHzz2rmOVki3a/URPnwa7wejikeOCeq5eg5urmz/j8iCmjVh/hfHAAnn9+x6imlnpW5hK16r5F9PUY5Ip1qZ18nRsGPode0khNJ7HlgBv753fB0u4DfjvgxoEfB6C1dQmIFtg2b0e7BhWKXhkVGyOa9uqOmZ8n2lsOaGJ88LzVgre7VdAzDzDo/vXSRwfq64EEprSic0sd37LR3GP/ih2kD/2MEXUk0Nxl55zP2G80kvXHznDmry9pGbWEqcuD0P97JdnvZFyK4OLp3Sx0iGLJzF8I0+5sGaBP4aRwZukslkV3ZvXJQPx2z8M+bDGf/3Ezz6BKpLpjB6qEB1DYNwiKjj7lvyB9ihB/xdZPX32KS2H+vw7/dGFE2brt6DZ4JC4fjGPQO+2pmBCET+Cdly/qCpUccBo6jL6ONTGq0JyeQ4fRr3uDfAebRacwfbJRteErzwtc8NnFj8Ns8P1yLLPds97/eEmp6WMo+rVfGec2stjNiLHbfQk+e5qjX3XFSgDJ1oVVh05w5sh8Opg1ZeaeU3gfXMawGnkqP0P8zwjgD4+KzN7lTdDpnUyxOsjsb4/k/sBDsdOXaDDmFw6fPMrXXc1oNGkrXsf2srCHvpONpY1AmaYj+HHXSc6dO8dZ90U0Cv6e5ccTc62qFJQ/pHizfs0duq/xIjjQk11zGnLOPfDV90EK0U9X+2bk+BWngkMI9dnFN30y2DF1Gr9F5Xmcq4D09Y6fkiJuL1JcXg8LodqHqOteRfIPzPq3HIPoswe5zUw0RXg0VEHBUIS6DRrqNz8nlGfgqj309XZh0t4HuZdfFRQMRqLB5B383ngrA2e4v7bHa/4xGDdh1u6fqeg6iHne/6w9EBQUFBQUFBQUioueQ2MB63YTGd/wNH8eUwYqCqWBmqit37Gvynimtn9TZvXeFFTUdpmF843luPooAxUFBQUFBQWFfw86V1akWu+z/rdJ2KuvsXfxbJafji/8JUQFBQUFBQUFBQUFBYUSQOdgRUFBQUFBQUFBQUFB4X+Bno+BKSgoKCgoKCgoKCgovF6UwYqCgoKCgoKCgoKCwhuJMlhRUFBQUFBQUFBQUHgjUQYrCgoKCgoKCgoKCgpvJKq8PygoKCgolDxGlZrSvlNzqlobI6ifcPXkfoJjcvZq1mX//42AZdPRfLPoP3SuXQYpLYZdM4fzfeCL3Th12f+fYuTI4hNzeDx1MCsulcw2qAoKCgr/NLJXVoyp0X0aP+86TlBIKGF+JziwdiKtzHMfXJoI5Qay9uAcWqokGk7dycbhFV//XhvGjZn6VwiX/ppI3ZebvBpRpeOHLNl2GL+gEC74e7Blfl9qGWufWHoYOy/jwqUL7J9cL2vnW8GKfj+f5fLF/XzSUGsnWlVTZh8OJ2TNu9hoCSdUcmHz+c28r7WdvJHjIk6fnEfbog5V89UHEMvQwHkKy/f5Eb47j60omDZj+u4DfN2pjNbO4JUZuSmMK5ERXI4II8T3IJsWDKGxRY6TYoUOfLRyH37BYdn58w71TLNsOvV7mf4lLl8K5+JZT/atnoFTDaOX6Zc2QrnWTHTdj1/wBcIDPdg0x5ncl5ewHbWRoz+/Q9VSWQstpPzrq08B8VcS6NbHUArx/wUG+2dOrdatKRvrhdvm39m57QAX7msPRAqyG1OuQXu6DhrJ8PEfMmKMCz0d62ClHQeCCdZ1WtJpyBhGDHKgbLHurzAK1keo5MLmsEtcuRRBZIgfnrtc+ax/A7SKp34IFek//WPqnZ9LrzatcOg6AtdgrYGILnspI9l9gttOA+q2NxaJBmPX4uF5mpDwCCJD/PE9to9FPf9Ze12Vav7oaN9MbHvz+Xo3zpw9R/CZQ2z8zInqJVo/GYDlEDJnnCN9QN+c/bmqziTjw9nIIlD/e9I/DSSjfZ1soxWad31In7kTdUUJLN8mc9Ju1FWzG1RE5MZLyBgzFbmo/QcFBQMQQcCm+wI2f9eFx9tm8U4XRzoNmMjXv5/i2rO8h5ceJs1bUycyiL81FWjZQiYk9PFr3vxORf3Rc+kj3yBB+8KCFfVb1+LhngWMdO5E5/ddie6wiMXDqr+mZ+hk0mPuYeXYMaujatqaLg5PiY3PvduNyq4X3bjOvWbOdClXGs1MAfog0WDiWtaOrkzkmQhStE1FQqLuqDkMe7CJVX7JefI+g7Pf9MSuWTt6jFvJrZbzWDrBLmvwIVbH5YdlDNX8xbR+Xenq8g0hjeawZlYbsvqa+uiXhufnbWnUxIG2fT/mL827/DC3bzE7pUVEKEPPOUsYIW9nglM7Oo45gNnI7/lpdO0s/wBQc3v3Co7azmRWT+sS7kToU/5161Nq8aeXPoagj/8l4J9ohrm5TOK9OJ5rAHUGmdohWIhdZZTB/SAP3Db/zp6DwTy37UKbBi9GUiLWDm/TrYkFCdEPyXiRXomhhz6ZQSzu2ZxmnQczfetdWs79nVXv2RYtf0QbKlVQcyUolMdqkNOfkqrtjC57KWNcrQaVX0+Fnw8ycqk1hmqitkyhb8/eLPR5xuX1o+neezCLPP9Zm8+WXv7oaN9U9kxeMY+moV8zoGM7Ogz5kai2i1jxn/pFi//SJO0WQsXhaMrnJ5AMSffBtgOyABg5oKn6FCE1u/JJOY4UEIumy/CswY1Je9SOdRC9NyH8WxZ9Fd4IRKRaDJ3sTPzGOXx7KILYlGekxN8kNCiKJBlUTWbg7rWYrhY5J0n1JrHPfxUDXvRWpEp0nPQTO4/5cSE8lPOe2/nKqaJenXlVsylsc3fH49u+VO74OfsP7+DT1rUZ7rqfzRPtX1uBl2xdmD8olvXbr+TuDMqP8XX9kp8OBHM7IZXkG164n0uhZt1que9NrM6IDafxWuDIizmIkkGAmAtcrNSJThVFTFp0ptWdYMLTtY9RYd+rO+KpVWy71IzeXcoVvUOr4/4L1Ac1URvG4jx6EVtDH+uV5/miasqwoVXw3X2c+IJaSU0aiTdOcSggnio1q6ECpNr9GNY8kg3f7yI0NonEaH/Wuh5G1XcIHcxBP/2ykdU8exSJ+8lIpMpvYaPtjA59io1pW97uFMf2n/cRmSBTs5cTtdLUNOndg5raAZbxN3sPxNDVxZlKxRY5H3SU/1wUqI8e8Vdc/fTVp7jo5X/x/RMsG9Bx6HsMfv9d7MoZY+s0jhHjxzNiZCeqiLrtkM7DS8FE3U0kTa0hI/EW0Q/A3NI8+x40JIYdwu3gaS7HPX/1vgxFL30AZDKfxhFxeCnTl4RgN2Ec7bWFKEAf8a0BLHU7hq/PVibUs6TP8rNcDAvlgteXOBrptpcIhbRfUpPJ/Onph//S3ljbTcMtOJSLYec5+El226Rqw6zdxzgTGMyl0/9lyNtfsOPYKfz9jrG4i1nONQrwX18qdZ3N5sM+BJ07zZF1n9C5Up7gNzD9NxmhbEvGL9uNd8A5Qs754b1nCUNrZ/mvM38QsOkwmVW7jnE26DyhZ73Yu3QMDlZ5SkqB+hXevkm1OtO1kj+bNofwKFMmPe4MK1ccp3zfPjTSzqKC0tc3fgxBvIUYoUbj0CavBRAg+SKCZQdkCxGqdkROCEN4+cShBiFiGaJmGGq7mshtpiHfdUWKTtVOREGh1FEJls1oWecOPr53yO+J2MzIPey+u53hPW3wPfgYGYk6Tk5UPrMe78cyIGE78idchyXiOnsIH1xKxLhqI6o+e6zXTveZ4Wt5/53tDFq1mXq/DmW5ehp7P7nHh5P/KrjTWtKI1RjyxUhSNnzAiaTpzMtr10aqQTN7c27su5VbLzmF22GBBMQ9KPHZTUGIwj9oGN3blyeqYVvifLeSNKJuzgEqe5y7S/gu8MPr9mWmO3fBxu0Aj4qiX2H3r0sfdSZqQBLEVypzfZHqOtLeOpR1wYUs54kmlKvbk6GdLQjZEkEGYNqgMbZxl4jQWilJvxJBlOl/aFxD4jR66PcSAeNyDXnHuREx/huJ1s7gwvQxAKlKbWzVV3GLUWNUfxxfDX7I0gn76bemGbUluKnVaNwL8CdmimKL93oAACAASURBVCOtzHfj8coUX/HQVf5zU4A++sRfMfXTX5/ioZf/Bvgnp0ThtycKxPI0H9wfq/PbOHNL60q67LkQMalkT/23UrgbkZAz863RZP2/IJT4YEUvfXIhE+/rzcUFo3GwlfC7kn1WAfpoYt34bIAbSI2YvncTNVZ15TNPrZkEXXaD0dF+RaxjVM91WPRfxZmxFxn63q9c1xYiM4jlw3uzwmYoGz3nMstlC58M70FwihEmQlrOcQX4rxdSHXq1P8KHI3sQnladgd/9xk9f3qT/9EM5baQh6b/RiFQdMIOPyh9maPet3ExTYV2zGkb3sjJBrSt/kEm6H47H0sPMC40m1ao5k1auY8HoQIb+EpUT04XpV1j7JgoI6sxcq6QZyUk8q2pLdRW8fM2ooPT1jR9DEE0QonYhDH4PjWXQqz5wDTF6EJqaNgiVWsHN7dCiVo5ZcxvJez8Zg9aSKV9A2n4mx6ag8JpQCVZlKSskkZBUwNBCE8OhXcFMdOlPdfetRAt16OVUDq+f/UgGEKvQrbc917YN5M/QWDRA6q0wEvMkUyhSfexq3SH8poxlz3qorp0isSgdbYMQqdzvc8aLWxnvHoemc167NibUf38+4yz2M8M9LvdgTE7Ef81s/LV/KymEdEJ9QpnQbxR9aiXjO/c+1Uf9H3t3HldF1T9w/DNzLzsI4pob7guIivuuKKFpuS+pqT2ZWmmllmlZaU+LZWqumVm5ZG65i7gCorILIiKl4oqoKMoOssyd3x+AXq7AHTaz3zPv1+u+Ss7cuXO+c5Y5M2dmniRrndzoY3KSz89nEh/rzcX33eltv49d+UdTWhc+2HuKd/M3WGuBdcrOx98Hitn+EsSnDAdLJg4NqX0nmquFTkM3odOn3vz1Kcg5Nzj09VQ+2HkbHQIWVpaI6amk6S+emU6aZIm1Zd7WGIkfmNF3UTAXFwFyNvdDfuWjDREU6CqKjE8ZWVhi8SidDE0Dxs4bS9q619lzpTV9TCyx1AJ6x2XSzStcF9xoUEsDl5QdOhpjtP4DxuJjtPxB6eNXgviUhpL8V2j+FNFQu+doujY0x4RUYkK8iYwrn/1vjJL4GJLTk0mSrLDWv3GlQuNTBuXRfz2Wju/6dYQm6YDM8ms/5CS8N2zkXJIE3GD/ek+m/tKbdhYHOJJ/grss63+uyaTExJBSrysDupxkk+81Em9cN1yoWNJ1fw5dz/tHwnn2H49mfItaaNAfrCiIXyH9m3Q9iKC0xbw6rClhOy6RZe/Ca2+9TF1tFFr9UYGS9RdXfspEhEe+aC6/SU6rxojXDZKFLIRrEcjNR6OrnIJ46C6yi8Ey8ccRU99El3AYMe2ZHZypVI+JcloqqdhSudLT4+1cMgle2zlWYyjDmmnQNHLDzfIY+4LzzoALdlS103H39n1FV1IKEGxw/2IPhw8uZWTtdszctp+9c7tTa+BCPPYtYmjFTEItQKjixuy3bdn67U5uFdv/m9N45CJ+fj2HH2cuJ7jA0XEFEyA95CRR7cczHD9O3NDfUC0t3fviUHMoK7xPcmrnDNradqRfL/snDWtOJOsmj2Dw0GEMHjqM4V8cUzwYVB6fshAws7JCk55G4e1gNkFf9aFFm1GsibbBRpdAigwgk56ahs7SGr1ZimBmhZUmnZT8lRUbP8i/J6OZozMtuwzik3OdWfLzVByfxQ2E6amkm1ei6Yi5vCFu4ps/Y9BZWGGRk0G64ZxgKZ30LHMsLQy7zNIzXv+h+PgoKH9lUZL4lILx/Fdw/hSRuBu0l4M7d3HoaDiPmvTDzaVqIWdIy5/x+DxNsLHHXptEgtJG5p9Ulv7LkHSbazFPnZcvO10i9+8/Wa/88D4PNHbYWyssgVb9WHzCjyD/3I/flrdoUZIplMa+byy9TGSSfb5g7CenqDZhDYcPruPTkc7YKS6OArbOo/h05Wb27tvD/j07WTuxGSaCwtgZk3WWFTNXE99/KZ6+Jzj80wTMwgK4ff8u90paFIoqP8biaywdgCyE8N0ILV5FZ1pIvYw5jVBnLBIBiImGNUFEbvYOOiEAodZkpBoGTxcy9vtlTVepAK2cHElEjAPdu9Xip+iYwhvsRyFs25fDymEd8U5wRXv0C87mn9GUk0lMFnGpXgWR24V/vyhyCkfnD8Wn63w8hvgxZO55hq1bQeVFY1mVP32ggpm0c8fNoQOveETwsd7fPcNfYvWIEay4KIFghdPEH/hxXCY/TX2frZcLPf1fsVID2L8/FPn2MaKlqk/+rm2Ju6sVnvOG8W1gJiBSZ/Qq1rn3osqe3TwAIJvk+3HcjcvdOyYJGYr3k6L4lJlMVnoGOktL8i+GFCorivXLT7Bv/nRcj83DK1EmK/oiN2q0w6mKwPl7uY2waTMnmjy6xM5bEtTP+25R8StAR3byTU7vOs6NcV1pZScQVcFzEaU70Vw1mcHnsy6wfMwWrkhg0cyR+rFXuWkYWq011qbpxBQ+oisVRfX/sULik1h8+Str+EoUn1Iwmn8j9aus+VNKykwnPRPSU5M4F9WQYS3rYhMe//R9ReXMaHyeIlK9d1+c40NZXWAe5XOqJP2XIBgZIOrQVUSWxcpUr2YCedcBBPtqVJESeZiqcOen+/LV6GGP75WQc9J4UJLtNPZ9Y+lllsXtwM0sCNzKcqdR/HflTyxIeYmZhw0exFLY/jHvxuzlkzD74S3GeV4jTRKpO3EjOx0NFywtmfSLu/j89V15/9bS7J2tvHZuLX+V+GRKEeXHWHyNpedL8kS8MwZdk3AwfFRAZhBiVBgk+yDoqhRMs+iB1L0eoscbiHbzyXEdg7hjI0J+ZTH2+2VNV6kAESmaP9f74/D293z8sjN17CtTrW4LunRooHfgKHF5905iekzhAzcJzwN/P7l8qovlpE80juNnMMzRHlONCdY1muDkoPTRhyJVG9Ql8co1sjQNafLCTS6Xx1GIQllHP6SNkxPNHHM/zu/s42Hkcga0GZo3ULGjw7Sf+HlsGqunf8q+WyKWlpZYWpih0c+gYE+P9xbz1fCGFfNQADkJ7++nMPMPvUvXgLbli/Q192Hv8Vji4+OJj79HxAFPrri407uKsj0AFLn9RuNTTrJuXuNuzUY0NDNM0SeTfGoNa6J7MuvN1lgA0lUPdp13YvLcEbSsak2lut2ZNuNlJM9dBOjfA1hE/AxprGrTZbg7je9f4qL+kWAR8SmzR6EcPHaP7OgAAu9rsanbg+nT+xB3+NhT92No6jWmvnSdq3nztcuFovr/hGF8FJe/0savBPEpFSP5r/D8GSPaUrN+TWytzdFqtJjZ1qVF8xpkPXhAusJj1TIxEp8nBExsauMyeA4rZjUlYOVGzuqfJK6o+JSVwv4r60E8qbXb0rGOGSBiam6qsH/LU5b8C5VwnTCOljYimNVh4ISXsA3w5oz+7X3FrV9+RGJcHHfzPnEPUinRcbSx7xtLLxORWq260LyqOSISybFXuZumwcy04LCkyP1jYkdlq1Tu3LhPuqTBqr4bk4bkPUlSX3HxM0ajRSuAaFGDNsM+Z9Grj1j/i2/B4UBZ1m8svsbSH0tGDDuK3LRn7pO/DNN830V79rLB363RdXsf+cZKNHcfIVxchSZ7FFLruk8WMfb7ZU1XqQARdNw98An/WXiOBpNX4XHCF6+dK5nl5oD+caMuzpPtEY1xSfXEo8BRgsTlDR/y0SFzxq06xJnQALz++IZxztYKG3MN9RvVJOZKLHK1RjRIvsLVMs5DL09C1X5Me7MtVeu48+Uef86eCcn9BK5ljP40NdEKh9ad6NS0askbo1IzwflFVyz8vNB/5YAu1hev623o37uqwn1AmbZf4zyVjXv3sWdeT6wd3+DXvfvY+91g9F7tYpR0JZDA1Hb0aGvkWTa62+z5YStZIz5kTEMN6G6xbc6H7DEZy9ojpzn956e0vbSIaUtDUP68krx7Mi5Ecv7UDua7XGLRzB8J1z/YKkN8ipfK6cWzWBLTg1XHA/Hb8QlO4V/y0e/XDAZVInW6duGFiACKewZBySmp/0XFpwTlr9TxUxqf0iou/88if8aYYNuoE72HjWX0G68z9JXOVEsIwTfw5uMbdYXqLriNGMmArvUwqdqaviNGMtC1aaGDzZIrLj55tB34zOsc53y3891Ie05+OpHZHrn3fzxWYfEpK2X9V3bwL3y5z4SJW04SGnSKw5/1wkYAjcNoVh44xulD8+hi4czMnSfw2b+EkXUNGr+y5D87gN89qzF7uw8hp7bxts1+Zn99qOADHkq9fg1NJ/zIweOH+aKXBc2nbsL7yC7m91F6srGiCVRyHsN3248THBxMkMcCmocuZOnRxAJXVYraP6T6sHb1TVxXexMa6MX2Oc0I9gh8+n6QYuJnrH8z6foZJ0LDOOu7na9eymbrtOn8eslgOlcR61dcfspL3C40cYY5LEbtN5EaXUbjH5j7bzkW0XcncoeZ6EowNVSlKiuhUdNmys7PCVUYsnInA3xGM3XXvYKXX1WqMtPQ9K2t/NZiE0NmeDyz6TX/GqYtmbVjGdWWD+UTn3/XOxBUKpVKpVKpSkvh0FjArtMUJjU7xR9H1IGKqiJIXNr0DbtfmMS0zs/LWb3nhZYGo2fhfnUpy33VgYpKpVKpVKr/HUavrGjqv8baX6fiJEWz68vZLD0VX/xNiCqVSqVSqVQqlUpVDowOVlQqlUqlUqlUKpXqn6BwGphKpVKpVCqVSqVSPVvqYEWlUqlUKpVKpVI9l9TBikqlUqlUKpVKpXouqYMVlUqlUqlUKpVK9VxSByuq55umKZM3HOOkjzenA8OI3DyRinpflkqlUj1XTLry5Yl9zHQqwYv8VP8ggUpDfiRM7adUqnKVV51Mqes6nWXbjxISdpZwv2PsXTOFdpYFF65IQuUhrNk/h7ZaDc2mbeOXUdWe/bs2TFsw7c8wLvw5hUb5fYNgQ4vBH7J6xzFCzoZzzu8g6z/uj4NJgW9WGFP3JZy7cI49bzXOffOtYMPAZUH8fX4P7zXT68C0zsw+GEHY6kHY6wVOqD6aDWc28Jre6+RNui7g1PFP6Kh9slxZCJXbM2X5HvxCzxER6Mn6Oe7ULU18zFvx/o69fNG90pN9L11i3esv0tO1L4O+D3n81u7/T4zHT4PDuF84vOwValVIB1hM/RdrMHZ9OBejLvD3hQjOB3mxe9UM3Ax3cBHlrzwYj09ZFZP/fBWYP8RKNHV/m6W7/YjYodf2KKR5oRczVu/hdNAZwgOOsOWrUThZl+dGFh0fofpoNoRf4OKFSKLC/PDavpwPX26KVbn9vEjt8ZuIjLrAxfzP+WPMa19OjZdCGsf32Let5Pvm+aeh6cQ1eHqdIiwikqgwf04e2c2Cvv+ud11V6P4pY/38R1kPJ2dGMFmDBzx5P1etmWS/ORtZBJosJOuDQLI7N8xLtEE3yJesmduQqmnAuj85U3cg1TLPSxeRWywie8I0ZAVVsOLbB9X/ChEE7F0/Z8M3PXm4eRav9OxK98FT+OK3E0RnGC5eccxat6dhVAh/6arSto1M2NmHz/jld1qajJ/LS/JVEgx+2MIqndPLpuDeuQPdXltDvOsCPh30rAZTMlmxt7Hp2i33QNW8PT1d0rgbX/BtN1rHF+nNFW63cqdn5WezZQAIleg7ZxFj5C1MdutEtwl7sRi7kO/HN8gdXCmmodG4OYy8t56VfsnPeN//gxTFT+LGjh847DCTWX3tyrncKan/mXh91JHmLV3oOOBd/tQN4tu5AwoctFdY+VMUn7JQkv8KzB8amk5Zw5rxNYg6HUmqYbIxgi0D5i5kwMPVjOrZgXYvfYSfwyy+e6P5s4tPTghf9m1Nqx7DeH/TLdrO/Y2VrzqU3+9XsyN24wRaO7fC0bkVjm36s/BMjuGCFcq0dl1qVMiJAiVk5AprECUubXybAX37Md83g7/Xjse13zAWeP27Xj5bcfunjPXzeZB5HaHaKHRVCguQDEl3wKELsgCYuKCrlYaQnnd8kXoUTcBddD1H5Q5uzDojdW2I6LMeQWkVrND2QfW/QkRTnxFvuRP/yxy+PhDJ3dQMUuOvcTbkEkkyaFvOwMP7S3pZPfmSpvFUdvuvZHD+0YqmOt2mfs+2I36cizjLGa8tfOZWTdEcM22rt9ns4YHn1wOo0e0j9hzcygftGzBq+R42THF6ZgVa4zCaeUPvsnbLxYIHg3IKYVt+ZKv/NRIys0m9dpzj5+GF2lUL5k+sw5h1p/D+vCv55yDKhwCx5zhfvTvdq4mYtelBu5uhRGTpL6PF6UVXxBMr2XyhFf16Vi75AW1pt9+8I/27x7Fl2W6iEmTqvehG/UyJlv36UK8kO0/rzMgRL3Byx1HiS9hLamv25N3lOznhH0DIyQOs/2QQTSwBKjF4dSDrhhnGQ4PzzH0c+rA1Ck4O5SptfIxRGr/sv9i1N5Zeo92prqRiKWWk/hcgS2Q8iMLjeBSaGjWxf7wdCspfaeOnND6lpSj/FZg/JC6tm4j7+AVsOvuw0DZTsHHi1QUbOHo6kDN+R9n21Wi9KydazC1EbpwN5U6mjJQYRcjfSZhamD+9jaWhKD4AMjlpcUQeXMz7i8JwnPw6nfUDUer4aKhS1Y57sXfIkiSkvE+5vpi4mP5L0/It/vDyw39xP+wcp7Mv9Cznw8+w/728vknbgVk7jnA6MJQLp/7L8P4fs/XICfz9jvBlT4snv1Hq/Oeq3ms2Gw76EhJ8ikM/vUeP6gaFv4zrf54Jtm2ZtGQHPgHBhAX74bNzESMa5Obf6P5BwL7LW6zcfoSgkDOcDfJm1+IJuNgY1I4i42esfgpYNR/J15uPEBQUSIDnj0xuVciUlKLWr7T8lIV4HTFSQufSwTAFECD5PIJ1F2QrEWp1Q04IR5Dy03UIkUsQdSORHOshd5iOfGs5mph0/ZUoYKR9UKmMEAXrVrRteBPfkzd5XD715ETtZMetXozqa5/X+Wlo6OZGjdP78HkoAxocxn7P8pGmHJw7nC7tu+A2aRG7zj9U1KHkRKzhtVfGsfLsDf6YNpCBH+7jVvASRgwcxOs/Xyh0m8qdWJvhH48ldd1SjiUKhTRI+TTYOY9lVNs7eJ+8WnDb5FRuhAcSEHWv3KcqCcIl/EPq0KNzFVr26EjcyRCSTPRPazvh7qrhpJcf3t5/08a9Z8mnqpRy+zUvNMBBuszfsRImTV7js2H3WTz5B0JqNyavP1FE06grne3OcjK0hJfzNE15Y9lCXGOXMqpXFzq/PBdfh1ms+ag7lYQ0rl+Lp1b9OojiC/SfvZhvx7XEBAsc6lfj5pUbystXKeNjjPL46bgd4E9sy67lOj3TWP0vSMC0cnNecW9OrH8QMflfUFL+Shk/5fEpHUX5r8D8ASDl5P62ID7d9ojVefnL1bxTw5vZr3SnQ9/JbLeYxIoPu2INID/k8M/bsBm/gP90aozjSx8wrUUAS36PQOmJz+Ioik8BMvEnfThfqTUuDno7qNTxMcPG2gLn6dsJDArE//BmFv2nA1WfClRpFd9/SZE/Ma5vN7rP8yXjr1UMbueCc5v2DFqR1zflhLB0VD96DFhIoPUAZo1OZfGoPnTtOYiv/PXaslLnH9A05MXOCfwwtg8de77Gz+mD+P7TAVTVL4NlWf9zTaTW4Bm8U+Ugb7h2om2n3gz94Ed8b+WWRqP7B5mkOxF4Ln4Tty7tad9/Jl413ubz8U0KnggtLn7F1U8TZ95e/BFO5//LK9270GvSbqp0bYup4XJFrV9p+SkL0Qzh0naE+q+is34qB0A0YkxtdPXskRu0g2tnKJBR3Q00PnuQu64hp8V1NKdP6yWWVBHtg0plhCjY2GIrJJGQVMTQQhfLge2htB7xMnVEchtOt8p47/cjGUB8gd79nIje/D1/nL1LetYjEq+HExWnrGsDQNMEx/o3+fuajHWTxmijL5FoeFa3wojUGPgRk8RNfOsRV8QAy5TeX3gRFBSM36/DSF73CT+FZxZcRE7Ef/Vs5u2MVtipl4CQxVnfszTuPY6XuiRz8uSdAo2J1smNPiYnOX4+k3hfby62dqd3gTk6Lnyw9xRB/n4E+ftxelkh8+5Lu/0Wllg8SidD04Cx88aStu5b9lxJIcPEEkvFly3AxKEhte9Ec/WRYUrxNI1fZGD9M/y2xp972SAlX2Dzjx7o+g2ms7mOG1duUs2hLpZVuzOif3u6veqOo1ltGtR5yNVrqcqnOpQ2PsaUIH7SzStcF+rSoFb5NfJG6z8AZvRdFMzFqEjOn97GO9b7+GZDBPk1wGj5g9LHrwTxKQ0l+a/Q/OkThKeuhojV+jKyexybv/+Dcwk5yI9ucOD3Y0h9+uFiAiCTGrWfbRcbMmnBEn5c4Ery4d0E3S31VhSgJD6G5PRkkiQrrPUnppc6Pil4zHGnb5/edOrcm6GfelP59RV8P7rO0weOpVEe/ddj6fiuX0dokg6kTDL1R4ulzj8gJ+G9YSPnkiTkRzfYv96TxE69aad/4r0s63+uyaTExJBSrysDutTHRsgm8cZ17j81oiiadN2fQyExpOSAlHCe/cejqVmvlsFgRUH8CqmfmoY96FkjhE0/+3MvWybrjjfr9156+kSBkvUXV37KRIRHvmgu10Zq1dgwEYQshGsRyI1Go6uXgnjtLk9lNP44YmpluHUYMU1xr1moQtsHlcoIrZyWSiq2VK4kwr3CqpFMgtd2jr03h2HN/mCV5Iab5TG+Cc4b9Qt2VLXTcff2/SIO9Ish2OC+YBOzOlehZnWRvtv2M6tKbWwfNcKjeyRrp8xlT1yJ11oiQhU3Zr9ty9bpO7kl8fQZEQCyCFg6hiFrLbCt68KoWatZbzOd19ZGPX0WpiIIkB5ykqj5XzM8/jdevSHx2uNELS3d++JQsworvAegwxQbWy1ZvezZvftB7iI5kayb/CG77+XGUtt+FttnPl5B2aSnkm5eg6Yj5vKGuIk3/oxBZ98Vi5wM0hU3tgJmVlZo0tMoaTso2lXGNiWOe3onoXT37hBn0oIqNpB6/ToPa9Wneeem1A/+nd0N3eja5AL1a9zC/0Zh5f0ZK0n8pHTSs8yxtCi/Rt54/Yfce1a68Y5HBiaV6tBl0kKW/JzDpFfXEJVTfPkr4e58WkniUwrG81/B+TNCqFaDqqZNmLzRh4mP/6jFXAzAxhSQ6jBy6TpGX5nHoJcDSanWjXcWLWN9lZmMWX6OEo79n2I8Pk8TbOyx1yZxuZzOOMkZCeS2ZBJxZzaybPcQ/nDtjN22nTws60+Upf8yJN3mWkwF9Ai6RO7rHZ3LD+/zQOOEvbUA6QoCYNWPxQc/p0de55Zz/XfeHP8Tfynbnca/byy9TGSSfb5gbMYopkxdw+GPYjj02wpW7TpPoqIdJmDrPJJ3pwyifT0rRJ2MxrYOJiHl04YKdpWplHaPuNT8/aDjflx86dqFosqPsfgaSwcgCyF8N8KIV9HdTtZPyBVzGsFtAVLaRkwSdQYDKhG52TvohACEWpORagSiidObh67o9594qn0o4fdV/5u0cnIkETEOdO9Wi5+iYwpvsB+FsG1fDiuHdcQ7wRXt0S84m19W5WQSk0VcqldB5Hbh3y+KnMLR+UPx6TofjyF+DJl7nmHrVlB50VhWXXw2JdWknTtuDh14xSOCj/X+7hn+EqtHjGBF3nZkJt3jThLcuX2T5dv6cWJsDxx+iSL62WwmpAawf38o8u1jREtVn/xd2xJ3Vys85w3j28BMQKTO6FWsc+9FlT278zr5bJLvx3E3b+BnkpBRsv1UDOlONFdNZvD5rAssH7OFKxJYNHOkfuxVbiqOjUxWegY6S0ssS9iH6OLv87CSEzWsBPIn0Ys1alEj+yHxKTLSjSvEVO2Ie5fm/OX3JacShzK9fytMk65xLaVUXUq5KlH8tNZYm6YTU9IRXTEU1f/HdGQn3+T0ruPcGNeVVnYCUYnFl7+S3n9kqETxKQWj+TdSv8qaP2Pk+Hs8yAxj09DJbCvkxwT7zvRrd4Nd84N5IAF3/Vj94wmGLuiP4+pzhJVxQGc0Pk8Rqd67L87xoax+PE+wfEk5EnJOdjFnqEugJP2XUNwUYQAdunLZKANiZapXM4G8HAv21agiJfLw8QGyEem+fDV62ON7JeSctNyyopSx7xtLL7MsbgduZkHgVpY7jeK/K39iQcpLzDxs8CCWwvaPeTdmL5+E2Q9vMc7zGmmSSN2JG9npaLhg6ciJD0myaIa9OeSeuRSxtdN7mmWJFFF+jMXXWHq+JE/EO2PQNQkHw0cFZAYhRoVBsg+CrkrBNIseSN3rIXq8gWg3nxzXMYg7NiLkVxalvw8U2j6U6Puq/1UiUjR/rvfH4e3v+fhlZ+rYV6Za3RZ06dBA78BR4vLuncT0mMIHbhKeB/5+0lHoYjnpE43j+BkMc7THVGOCdY0mODkoffShSNUGdUm8co0sTUOavHCTy+VxFKJQ1tEPaePkRDPH3I/zO/t4GLmcAW2G5g5UtPXp7NaWxjXtsDQzx65+d14f1pqUS39TYKaFYE+P9xbz1fCGFfNQADkJ7++nMPOPSwU6aW3LF+lr7sPe47HEx8cTH3+PiAOeXHFxp3cVZXsAKP32Pwrl4LF7ZEcHEHhfi03dHkyf3oe4w8e4VoLdmHXzGndrNqKhmWFK8aTrRzlwuS2T3ulBTVMQbRx57e2XMfU+SNAjkJOvcz3TkS6OsQSHJnAhOIJ6PbtRNeYKJbqwUtr4GFOC+GnqNaa+dJ2rt0uy4UYoqv9PaKxq02W4O43vX+Jikqy8/JU2fiWIT6kYyX+F588I3T0vdgc1YuKsQTjamwAiZvYN6ehSDzNATr9FTHJDerg2wFIEzGrR66WOWNy4wu1ij7wVMhKfJwRMbGrjMngOK2Y1JWDlRs7qnyQubXw0DnQb0IWmNW2xMLfFofNEZgyvSuDRQMrlXIPC/ivrQTyptdvSsY4ZkjQsDwAAIABJREFUIGJqbqqwf8tT2vwDCJVwnTCOljYimNVh4ISXsA3w5oz+LQ3FrV9+RGJcHHfzPnEPUp+eplQcY983ll4mIrVadaF5VXNEJJJjr3I3TYOZacFhSZH7x8SOylap3Llxn3RJg1V9NyYNcXw6RsXFrxjSFV987nRg7IQ22GnApEZ3Xh/m+PSDW0q5fsB4fI2lP5aMGHYUuWnP3Cd/Gab5vov27GWDv1uj6/Y+8o2VaO4+Qri4Ck32KKTWdZ8souj3i2kfFH1f9b9OBB13D3zCfxaeo8HkVXic8MVr50pmuTmgf9yoi/Nke0RjXFI98ShwlCBxecOHfHTInHGrDnEmNACvP75hnLO1wsZcQ/1GNYm5EotcrRENkq9wtcCTrv5hgiWN+n/Aj7u9OBMahM+m2bhcWcG0704WPDchWuHQuhOdmlYteWNUaiY4v+iKhZ8XoXrzPXSxvnhdb0P/3lUV7gPKsP2pnF48iyUxPVh1PBC/HZ/gFP4lH/1+rURnPqUrgQSmtqNHW4NHhGhbM+13D3x8T+P1eVcs2sxk/2lvju/5hN6WgHSNTR/M4ViNafx+3J/gIz/gfu9Hpn3rS7IMSDeIvlWHhrpQgu/peHQuhOg6DdHeuPb0066KU+r4GKM0fiJ1unbhhYgASvoMguIpqf9596xciOT8qR3Md7nEopk/Ep5dgvJX6vgpjU9pFZf/Z5E/0DhPZePefeyZ1xNrxzf4de8+9n43mJoioItj78fT2ZDxMot2nyLsjD8ntn7D+Db2uWeRHwWxdMbPJL68muP+AQR7bWCq1X7e/3QPd8tjsFJsfPJoO/CZ1znO+W7nu5H2nPx0IrM97ha8SlHq+IjU7PUeq3ceIzjEhz8X9OLhr9OZu6+o+wtLSln/lR38C1/uM2HilpOEBp3i8Ge9sBFA4zCalQeOcfrQPLpYODNz5wl89i9hpOEbAUudfyA7gN89qzF7uw8hp7bxts1+Zn99iAf67Vep16+h6YQfOXj8MF/0sqD51E14H9nF/D5KTzZWNIFKzmP4bvtxgoODCfJYQPPQhSw9mljgqkpR+4dUH9auvonram9CA73YPqcZwR6Bj++3e6yY+BVbP3MusPajJVzrvoRjgQF4rx1K7N5D3DPsW4pYv+LyU17idqGJM8xhMWq/idToMhr/wNx/y7GIvjuRO8xEV0nhNippH1QqI4RGTZsZVqvCCVUYsnInA3xGM3XXvdLNyVSpiqSh6Vtb+a3FJobM8Kjw6TX/OqYtmbVjGdWWD+UTn3/XOxBUKpVKpVKpSkvh0FjArtMUJjU7xR9H1IGKqiJIXNr0DbtfmMS0zs/LWb3nhZYGo2fhfnUpy33VgYpKpVKpVKr/HUavrGjqv8baX6fiJEWz68vZLD0Vr16+U6lUKpVKpVKpVBXO6GBFpVKpVCqVSqVSqf4JCqeBqVQqlUqlUqlUKtWzpQ5WVCqVSqVSqVQq1XNJHayoVCqVSqVSqVSq55I6WFGpVCqVSqVSqVTPJXWwolKpVM+A3DiT1EVJJGxOJGF9MunOBZ9tYixd9T/IpCtfntjHTKcSvMhP9Q8SqDTkR8I2T6Si3uuoUj1FkMmelExaR5n/r+99yKtOptR1nc6y7UcJCTtLuN8x9q6ZQjvLggtXJKHyENbsn0NbrYZm07bxy6hqzz7mpi2Y9mcYF/6cQqPC+gZj6RXA1H0J5y6cY89bjXPffCvYMHBZEH+f38N7zfQ2QuvM7IMRhK0ehL1e4ITqo9lwZgOv1XzScpp0XcCp45/QUftkOUWKyr9Yiabub7N0tx8RO8oQG/NWvL9jL190r6T3ZvAajF0fzsWoSP6ODCfs5H7Wfz6cFlZPMilW7cI7K3bjFxrOOX9PNs57hcbmuWlG4/d4/Rf4+0IE54O82L1qBm51TR6vv6IJldszZfke/ELPERHoyfo57hT8eQ0O437h8LJXqFUhHWAx9V9pfIoof+XBeHzKqpj85ytr/gQdWWMykP6ywm6iHZWn2GDxl35FLSJdkJF6ZZD6bRIJWxJI+C2ZlP9kIenXXUFG6vyI1O8TSfj2EVK5l5Gi4yNUH82G8AtcvBBJVJgfXtuX8+HLTdGrnkZpXujFjNV7OB10hvCAI2z5ahRO1vkrEKk9fhORURe4mP85f4x57UvaeJWNxvE99m0rQ9v23NLQdOIaPL1OERYRSVSYPyeP7GZB33/Xu64qbP8INrQY/CGrdxwj5Gw45/wOsv7j/jiUa/tTgayHkzMjmKzBA568n6vWTLLfnI0sAk0WkvVBINmdG+Yl2qAb5EvWzG1I1TRg3Z+cqTuQauV1qIjILRaRPWEaspYC/cPFC+eJCjvN0c0Lmehii4DC9sGiKcPnr+fI6VAizwZy+tBWFo9slNtf/xuYSWROTiHp10QebkkkcUUKqW4SALoXU3n4Z8LTn+1JpDvqrUOTQ/ryBBLmZCGXsOLpWmWQsiqJVFcdWW8lkbAuhYxmeumtH5H2ZTKJmxJJ+C2JlDeykP4t5VePCAL2rp+z4ZuePNw8i1d6dqX74Cl88dsJojMMF684Zq3b0zAqhL90VWnbRibs7MNn/PI7LU3Gz+Ul+SoJhf6wsfSKIpMVexubrt1yD1TN29PTJY278QXfdqN1fJHeXOF2K3d6Vi5haVekqPxraDplDWvG1yDqdCSp+kkloqHRuDmMvLeelX7JBvs+m6Cv+uLYqhN9Xl/B9bafsHiyY25jJtZh9LdLGKH7k+kDe9Fr9FeENZ/D6lkdyD3WVBK/TLw+6kjzli50HPAuf+oG8e3cAaU7KC0poRJ95yxijLyFyW6d6DZhLxZjF/L9+AZ6jbXEjR0/cNhhJrP62pXzQYSS+m88PhVW/hTFpyyU5L8c8ifK6OxAc0GLIAHZAkKOsnTZQsBkizV2Eytj96k5Qvt00ns+Kb/SsFRSBujQhmsRyr1tUhCfnBC+7NuaVj2G8f6mW7Sd+xsrX3VQtn8EWwbMXciAh6sZ1bMD7V76CD+HWXz3RvO87wvYV7MjduMEWju3wtG5FY5t+rPwjH7wKp5p7brUKPdBoFIycrnv13wSlza+zYC+/Zjvm8Hfa8fj2m8YC7z+XS+frcj9Y2GVzullU3Dv3IFur60h3nUBnw76B06mllbmdYRqo9BVKSxAMiTdAYcuuQfJJi7oaqUhpOe1L6lH0QTcRddzVO7gxqwzUteGiD7r9dqvbIK+6kMLp1a07vUq8wNrM33xu3Qyy0sutn3Q4DR5EZ+1ucx341zp0H0Ar85czvbQ2+Qe7j//coamkd5Mg8WntlSeZEulpRaY/5Uba/G4NfavVsb+VTusAwU0Oyvl/nuMLZZReitpmE02GsQmWWTZ6P3dGI1E5sQshO2VsD6mwXSZHZU/sMLsWl66ICM5SghelthMs8XuMwvEVumkuf373pYooqnPiLfcif9lDl8fiORuagap8dc4G3KJJBm0LWfg4f0lvayefEnTeCq7/VcyOP9oRVOdblO/Z9sRP85FnOWM1xY+c6umaI6ZttXbbPbwwPPrAdTo9hF7Dm7lg/YNGLV8DxumOCnr8MqBxmE084beZe2Wi4U2QsbSEeswZt0pvD/vSv45iPIhQOw5zlfvTvdqImZtetDuZigRWfrLaHF60RXxxEo2X2hFv56VC9/G4hjZ/qLzL3Fp3UTcxy9g09mHivZ5obTOjBzxAid3HCW+qF5Sl0ni1RMcCIjnhXq10QKaBgMZ2TqKdQu3c/ZuEokx/qxZfhDtgOF0sQRl8csjS2Q8iMLjeBSaGjWx18+MkfiUmnlH+nePY8uy3UQlyNR70Y36mRIt+/Whnn7hz/6LXXtj6TXaneqlDnIhjNT/AoqMj4LyV9r4KY1PaSnKfxnyVyWL1CVJJP6cQkZdmaxZCTzckkDCT+lkaxWkywLaw+aYRWgQskG4bYJpNOiqP9k5mr022H1uiflFocRn5YxSFB8AmZy0OCIPLub9RWE4Tn6dzvqBKCo+aDG3ELlxNpQ7mTJSYhQhfydhamGeF2MNVaracS/2DlmShJT3Kdeutpj+S9PyLf7w8sN/cT/sHKezL/Qs58PPsP+9vL5J24FZO45wOjCUC6f+y/D+H7P1yAn8/Y7wZU+LJ79RZP6Vqd5rNhsO+hISfIpDP71Hj+oGhb+M63+eCbZtmbRkBz4BwYQF++GzcxEjGuQd6hrbPwjYd3mLlduPEBRyhrNB3uxaPAEXG4OKUlT85BTCtvzIVv9rJGRmk3rtOMfPwwu1q+b1dQJWzUfy9eYjBAUFEuD5I5NbFTIlpaj1Ky0/ZSFeR4yU0Ll0MEwBBEg+j2DdBdlKhFrdkBPCc0+YAKBDiFyCqBuJ5FgPucN05FvL0cSk668kj0x2yi2C9vtwxdaBegUunxTVPmioUbsGCSFHOXkjmYy0h9z6O5CQq8/wTHkZ6arpEC6YYnpHQMgQEK9r0cbm5V0GpLwPgC7v/w0asJxO2RBqgfkViay2hh2vEQKQk/sfAJJExPzjG1nAZKsVlie0aFIEhFhTTC8I6OqUawv6TIiCdSvaNryJ78mbhY5kc6J2suNWL0b1tX/ceTR0c6PG6X34PJQBDQ5jv2f5SFMOzh1Ol/ZdcJu0iF3nHxruj0LlRKzhtVfGsfLsDf6YNpCBH+7jVvASRgwcxOs/Xyh0m8qdWJvhH48ldd1SjiUKTx9wG0sHkFO5ER5IQNQ9sg3TykgQLuEfUocenavQskdH4k6GkGSi1xBonXB31XDSyw9v779p496z5FcFitt+Y/mXcnL3kyA+naaQplFXOtud5WRoMY2UaEblJu6M6GFFWEAk2YBZ0xY4xF0gUu9KSdbFSC6ZN6VF3bzuylj8HhMwrdycV9ybE+sfRIx+4SsuPmWgeaEBDtJl/o6VMGnyGp8Nu8/iyT8QUrsxef1xHh23A/yJbdm1XKdnGqv/BRURHyXlr5TxUx6f0lGU/7Lk74Ep1h/YYjfFBosYAdOllbEfW5nKb1likqMg3YDcOJPM5iKmYXo1LX/DDbepHCiKTwEy8Sd9OF+pNS4OejuoqPjIDzn88zZsxi/gP50a4/jSB0xrEcCS3yPIzb4ZNtYWOE/fTmBQIP6HN7PoPx2oWtqG5inF919S5E+M69uN7vN8yfhrFYPbueDcpj2DVuT1TTkhLB3Vjx4DFhJoPYBZo1NZPKoPXXsO4it/vbasqPwroWnIi50T+GFsHzr2fI2f0wfx/acDqFrgWLAM63+uidQaPIN3qhzkDddOtO3Um6Ef/IjvrdzSaHT/IJN0JwLPxW/i1qU97fvPxKvG23w+vknBE6GK4qfBznkso9rewfvk1dz1mzjz9uKPcDr/X17p3oVek3ZTpWtbTA2/WtT6lZafshDNEC5tR6j/KjrrwipONGJMbXT17JEbtINrZyjQketuoPHZg9x1DTktrqM5fVovUZ8Gc/smvDh+II1vhnHuqbNd8HT7kE34sRMIA2Yyd2hrqj0VuOefSZAJdM8gvXcOutJMr9LkkNVexiRYi0mIhpzO2eiUtuWSBrM/TNH9J5mU3hJS62wkW8OF9IgSUkMZzY3CysHzTSvY2GIrJJGQVMTQQhfLge2hTBn9MnU8NhEjNORFt8p4L/MjGUB8gd79nIjePIQ/zt5FB6RfDyfRYDXF0jTBsf5NIq7JWPdtjDb6BImFlfMKIVJj4EdMEjcxySMOXY+SpueRE/FfPRt/w7+XByGLs75nmTxwHC/VT+bk3DvUGfckWevkRh+Tk3x+PpP4WG8uvu9Ob/t97HqQF0StCx/sPcW7+btYa4F1ys7H3weK2X6F+QcQhFIfL5k4NKT2nWiuPjJMATCh06fe/PUpyDk3OPT1VD7YeRsdAhZWlojpqaTpL56ZTppkibVl3tYYiR+Y0XdRMBcXAXI290N+5aMNEWTqL1JkfMrIwhKLR+lkaBowdt5Y0ta9zp4rreljYomlFtC7AiTdvMJ1wY0GtTRwSdmhozFG6z9gLD5Gyx+UPn4liE9pKMl/heZPoeypSaR2lZEFEdMtVphfKqSmFfKnslISH0NyejJJkhXW+mdWi4yPTGrUfrZdXM7sBUuYYG/O+ZWzCbqbX75T8Jjjjr+QzMMME6q3G8tXS1bw/aORTNp6S9EJsWKVR//1WDq+69cRmqQDMsuv/ZCT8N6wkXNJEnCD/es9mfpLb9pZHOBI/gnusqz/uSaTEhNDSr2uDOhykk2+10i8cd1woWJJ1/05dD3vHwnn2X88mvEtaqHh0pMBeLHxM6X3F4f4rr8d1sIdji6bzU/huXtX07AHPWuEsOFnf+5ly3DHm/V7LzGgu8Eqil1/vmLKT5mI8MgXzeU3yWnVGPG6QbKQhXAtArn5aHSVUxAP3UV2MVgm/jhi6pvoEg4jphkenOX1z/NkcjLiuRZ2iPkf/MZFqfAmqWD7IPPw+Oe8mjKat95ahOeMBE5sXsWyjaeJLWPb/qwIwVZUSs8kY3gaSWNFTDzNsTxoglj0qLegRtlka02wihYQ75ugHZtFdiVTzJIMFyycGGpBpelmZL6TwiPHDFJcMzD5yRqrYMMBiYw0IJ1HFqZYnTJMe/6JcloqqdhSuVJRGy+T4LWdYzWGMqyZBk0jN9wsj7EvOG/UL9hR1U7H3dv3S95xCDa4f7GHwweXMrJ2O2Zu28/eud2pNXAhHvsWMbSiJqHqEaq4MfttW7Z+u5O8kzUlSn8mBEgPOUlU+/EMx48TN/Q3REtL97441BzKCu+TnNo5g7a2HenXK/9KGJATybrJIxg8dBiDhw5j+BfHFA8Gn03+BcysrNCkp/FUOwg8nhPbZhRrom2w0SWQIgPIpKemobO0Rm+WIphZYaVJJyV/ZcXGD/LvyWjm6EzLLoP45Fxnlvw8FcdncQ9veirp5pVoOmIub4ib+ObPGHQWVljkZJBueGZdSic9yxxLi8K6gNIxXv+h+PgoKH9lUZL4lILx/Fdw/hTS/mGD7YeVsF1kjtgrlZRhhmW4YhiPz9MEG3vstUkkKGlkxDqMXLqO8Q++ZtDLg3Ef/F+uuC9j/butH0+XkTMSeJAuIcuPiDuzkWW77+Pi2hm78tgBZem/DEm3uRaj9AilBHSJ3L//ZL3yw/s80Nhh//ghBEZY9WPxCT+C/HM/flveokVJrkoa+76x9DKRSfb5grGfnKLahDUcPriOT0c6Y6e4OArYOo/i05Wb2btvD/v37GTtxGaYCApjB0AWAUvHMGToMIa/+wsJg1ezfqojJoBgV5lKafeIS80v6zrux8WjoOQ/rajyYyy+xtIByEII343Q4lV0poVsXcxphDpjkQhATDSsCSJys3fQCQEItSYj1TC8/JF/z0pLnNr35uUp33HwWtFDrafbh2zuBm1mwX8G4P7WHyT1/Zbf5/XAcKbe80yMNMPqC1vsFpohdkwj+Y1sxVNyczplIVXJIuWnJBK/yyDHOoesdob7wIhMEc1DEe1WGyrtEMjqZ3h1RkZySyPlFQHzpRaYlNNFu2dJKydHEhHjQPdutfgpOqbwBvtRCNv25bByWEe8E1zRHv2Cs4/nxCWTmCziUr0KIrcL/35R5BSOzh+KT9f5eAzxY8jc8wxbt4LKi8ay6uKz6YxN2rnj5tCBVzwi+Fjv757hL7F6xAh+cig+fcUz2k5SA9i/PxT59jGipapP/q5tiburFZ7zhvFtYCYgUmf0Kta596LKnt08ACCb5Ptx3I3L3TsmCRmK95Ox+JRP/mWy0jPQWVqSfzGkUFlRrF9+gn3zp+N6bB5eiTJZ0Re5UaMdTlUEzt/LbfxMmznR5NEldt6SoH7ed4uKXwE6spNvcnrXcW6M60orO4GoIm+gKR/SnWiumszg81kXWD5mC1cksGjmSP3Yq9w0DK3WGmvTdGIKH9GViqL6/1gh8UksvvyVNXwlik8pGM2/kfpV1vwpJaSKCKnAfVMsjmSR+FI20l4Nmqc2uHwZjc9TRKr37otzfCirC8yjLJxg15l+7W6wa34wDyTgrh+rfzzB0AX9cVx9jrBCBqRSjoSck61wWpoRJem/hEKmwBagQ1cuG2VArEz1aibkz/cT7KtRRUrk4eMDZCPSfflq9LAng7+ctNxYK2Xs+8bSyyyL24GbWRC4leVOo/jvyp9YkPISMw8bPIilsP1j3o3Zyydh9sNbjPO8RpokUnfiRnbqP4lJgcyke9xJgju3b7J8Wz9OjO2Bwy9RXEt8SJJFM+zNIXd+l4itnd7TLEukiPJjLL7G0vMleSLeGYOuSTgYPgonMwgxKgySfRB0VQqmWfRA6l4P0eMNRLv55LiOQdyxEaHYylKU4toHiYS/DrD4t94Mfa899cVTnDdc5DknXDPFYn82ma/mIIkmaI1tvyaHrA5guroSlpG5f9K5p5LSKRudjxmisSouyEhOEsRqcgdHdhLZzjqEe+KTh60IMjkD00gdABZfW2F2s3Sl858mIkXz53p/HN7+no9fdqaOfWWq1W1Blw4N9A4cJS7v3klMjyl84CbheeDvJx2FLpaTPtE4jp/BMEd7TDUmWNdogpOD0kcfilRtUJfEK9fI0jSkyQs3uVweRyEKZR39kDZOTjRzzP04v7OPh5HLGdBmKCsuSkbTHxPs6fHeYr4a3rBiHgogJ+H9/RRm/qF36RrQtnyRvuY+7D0eS3x8PPHx94g44MkVF3d6V1G2B4Ait19x/sso6+Y17tZsRMP8J4gUSib51BrWRPdk1putsQCkqx7sOu/E5LkjaFnVmkp1uzNtxstInrsI0L8HsIj4GdJY1abLcHca37/ERf05t0XEp8wehXLw2D2yowMIvK/Fpm4Ppk/vQ9zhY1wz2FBNvcbUl65z9XZxOSghRfX/CcP4KC5/pY1fCeJTKkbyX+H5M0Yjkd0xB6mKjGwiI7+QzaM+OQg3NIilOlgoISPxeULAxKY2LoPnsGJWUwJWbuSs/kniIuIjp98iJrkhPVwbYCkCZrXo9VJHLG5c4bYO0DjQbUAXmta0xcLcFofOE5kxvCqBRwPzrq6WkcL+K+tBPKm129KxjhkgYmpuqrB/y1NE/hURKuE6YRwtbUQwq8PACS9hG+DNGf2zo8WtX35EYlwcd/M+cQ9S8+4HUsjY942ll4lIrVZdaF7VHBGJ5Nir3E3TYGZacFhS5P4xsaOyVSp3btwnXdJgVd+NSUPyniSpr6j4aevT2a0tjWvaYWlmjl397rw+rDUpl/7mrgTSFV987nRg7IQ22GnApEZ3Xh/myFMX5YtavxLG4mss/bFkxLCjyE17FnLWPxnR9120Zy8b/N0aXbf3kW+sRHP3EcLFVWiyRyG1rmuwnDFFtA9iNVr36kzzWnZYaETMqrZi9JB25Fy9nFv/n3eCjpy2OUjVZGQNyHY5ZPbOgViF7XOjbLJNTTALFhETcz/ak6ZommWTXdy9J4/JSB0ySP0uidT+OWS9lk5WgjnWm01yy78gkzMqldSXBCwWWWF6D2RzGdlMpmQN2D9PBB13D3zCfxaeo8HkVXic8MVr50pmuTmgf9yoi/Nke0RjXFI98ShwlCBxecOHfHTInHGrDnEmNACvP75hnLO1wlhoqN+oJjFXYpGrNaJB8hWu/kvmKhYgWuHQuhOdmlYteWNUaiY4v+iKhZ8XoXr3euhiffG63ob+vasq3AeUafs1zlPZuHcfe+b1xNrxDX7du4+93w1G79UuRklXAglMbUePtkaeZaO7zZ4ftpI14kPGNNSA7hbb5nzIHpOxrD1ymtN/fkrbS4uYtjSEwp5XUri8ezIuRHL+1A7mu1xi0cwfCdc/2CpDfIqXyunFs1gS04NVxwPx2/EJTuFf8tHv1wwGVSJ1unbhhYgAinsGQckpqf9FxacE5a/U8VMan9IqLv/PIn9GCCB1zSD1+yQS/kgk8b8Z5MRaYL0xrzMCaPyIlCXJJL2Rjdww7//fzVJ+k2axiotPHm0HPvM6xznf7Xw30p6Tn05ktkfu/R+PFRWfR0EsnfEziS+v5rh/AMFeG5hqtZ/3P93DXR2ASM1e77F65zGCQ3z4c0EvHv46nbn74oq/CqKYsv4rO/gXvtxnwsQtJwkNOsXhz3phI4DGYTQrDxzj9KF5dLFwZubOE/jsX8JIwzcCFpV/JbID+N2zGrO3+xByahtv2+xn9teH0L9lqvTr19B0wo8cPH6YL3pZ0HzqJryP7GJ+H6UnGyuaQCXnMXy3/TjBwcEEeSygeehClh5NLHBVpaj9Q6oPa1ffxHW1N6GBXmyf04xgj8Cn7wcpKn6CJY36f8CPu704ExqEz6bZuFxZwbTvTuZem8i5wNqPlnCt+xKOBQbgvXYosXsPkXeR/4ki1q+4/JSXuF1o4kpQQmq/idToMhr/wNx/y7GIvjuRO8xEp3RqaLHtgyl1XN/hhz88CQg7S8jBJbz8aCszvzQo388xXfsMUr9KInFzAonL0sjKNMP6F1PjV0WAnM5ZyOdM0Oof894zwfSOwqlgsojpehtsp9hhc0iL6apK2Pxihjb/Jl67LDIG56CrnkXa94kk/J732ZDKI/sCa3ruCY2aNlMQUkCowpCVOxngM5qpu+6Vbk6mSlUkDU3f2spvLTYxZIbHM5te869h2pJZO5ZRbflQPvH5d70DQaVSqVQqVcXRtclEumOGSZxhyv8PCofGAnadpjCp2Sn+OKIOVFQVQeLSpm/Y/cIkpnV+Xs7qPS+0NBg9C/erS1nuqw5UVCqVSqVSPSGG//8dqICCKyua+q+x9tepOEnR7PpyNktPxZfT5XeVSqVSqVQqlUqlKprRwYpKpVKpVCqVSqVS/RMUTgNTqVQqlUqlUqlUqmdLHayoVCqVSqVSqVSq55I6WFGpVCqVSqVSqVTPJXWwolKpVCqVSqVSqZ5L6mBFpVKpKpyAtfMElu3yITQslPCA/XzcWf8FqMbSVf+TTLry5Yl9zHQqwYv8VCqV6v+ZvMF+RwL1AAAgAElEQVSKKXVdp7Ns+1FCws4S7neMvWum0M6y4MIVSag8hDX759BWq6HZtG38Mqras3/XhmkLpv0ZxoU/p9Docd8gUnv8JiKjLnAx/3P+GPPaa/W/WWFM3Zdw7sI59rzVOPfNt4INA5cF8ff5PbzXTK8D0zoz+2AEYasHYa8XOKH6aDac2cBreq+TN+m6gFPHP6FjSbNQaHwAsRJN3d9m6W4/InYYpJWEeSve37GXL7pX0nszeA3Grg/nYlQkf0eGE3ZyP+s/H04LqyeZFKt24Z0Vu/ELDeecvycb571C47zjPKPxe7z+C/x9IYLzQV7sXjUDt7omj9df0YTK7ZmyfA9+oeeICPRk/Rx3Cv68Bodxv3B42SvUqpDTC8XUf6XxKaL8lQfj8SmrYvKfr6z5E6rx8vvv0vjMXF7s0A6XXmNYHvrIeLpgQ4vBH7J6xzFCzoZzzu8g6z/uj8Pj/JvwQrc3WbT5IH4hYXnlfwD1TZ+suuyKjo9QfTQbwi9w8UIkUWF+eG1fzocvN0WvepbRs8ifcRrH99i3rQxt23NLQ9OJa/D0OkVYRCRRYf6cPLKbBX3/Xe+6qrD9Y7T+gZlDPz5au4/TQcGEnj7ALx+6Uadc26cysB5OzoxgsgYPePJ+rlozyX5zNrIINFlI1geBZHdumJdog26QL1kztyFV04B1f3Km7kCqlX/iRERusYjsCdOQtRToHy5eOE9U2GmObl7IRBfbf1X5UT3/RBCwd/2cDd/05OHmWbzSsyvdB0/hi99OEJ1huHjFMWvdnoZRIfylq0rbNjJhZx8+45ffaWkyfi4vyVdJKPDDAvbV7IjdOIHWzq1wdG6FY5v+LDyTo79QBZLJir2NTdduuQeq5u3p6ZLG3fiCb7vROr5Ib65wu5U7PStXRDNRVHw0NJ2yhjXjaxB1OpJU/aQS0dBo3BxG3lvPSr9kg32fTdBXfXFs1Yk+r6/gettPWDzZMXfwIdZh9LdLGKH7k+kDe9Fr9FeENZ/D6lkdyD3WVBK/TLw+6kjzli50HPAuf+oG8e3cAaU7KC0poRJ95yxijLyFyW6d6DZhLxZjF/L9+Aa5+eP/2LvvuKrq/4Hjr3PuZYMDZy5wK4h7geJIRNPS3OXIfpmjtFLLtKy0r01XzqzsmyPLkVvcAoIyBBFFpFQUFVFRlL059/z+APVyBe65DLNv5/l43D/gc+655/P+fM5nnAkgcX3bdxxymMHMPlXKuRNQsv8bj0+F1T9F8SkLJfkvh/yJ9tSsLnExNJwHEsg56WTkKku3ssng5LJJeHbtRLexa0joPZ9PBhUczBHsaNrRkXvbP2O0Z3fcxy4n1nU+C0bUK6fT5grikxfKgj5taO0+lPc23qT9nF9Y+YpD+ZRPhedPGfO69an1NH+wEBm5wjpDiUsb3mJAn37M88vkrx/H0bvfUOZ7/7NePluR5VPi/qd1Zsp3H+MS/jmDu3XBddi3XOo8n+/+r2n51P/ykH0NocZIdNWKCpAMybfBwRVZAMzaoauTjpBR0D+mHUETdAddj5H5kxuLrkhujRB91yE8GgLlcuqL52np3Jo2PV9hXnBdpi1+hy4WD9NVqrIT0TgyfIonCT/P5st9kdxJyyQtIYbw0Esky6BtNR0vnwX0tHn8JU2TyewMXMngh6MVTU26TV7ElsMBnIsI57T373zqUUNRZ6Jt/RabvLw48OUAanX7kF37N/N+x4aMXL6L9ZOcn9oOr3EYxdwhd/jx94sGg0EN1apX4W7cbXIkCang88SLMcV6vLr2BD6fuVG+F28IEHeO8zW7072GiEVbdzrcCCMiR38ZLc59eyMeX8mmC63p16Oq6QNaI9tffHwkLq0dj+e4+WwMf6CozIukdWHE8Ofw33aEhOJ6SV02SVePsy8ogeca1EULaBoOZESbKNZ+vZXwO8kkxQayZvl+tAOG4WoNyuJXQJbIvB+F17EoNLVqY6+fGSPxKTXLzvTvHs/vy3YSlSjToK8HjtkSrfo9TwP9yp/7Jzt2x9FzlCc1Sx3kIhjZ/wspNj4K6l9p46c0PqWlKP+lz59YezCL9xzG328jE5vY8sLSU5w/G845n09wMzOejpzKmd+/Z3NgDInZuaTFHOPYeXiubvX8fU1+gP/yT1i0O4zriRmkXPXBKySNBo3rlk/bqSg+ADJ56fFE7l/MewvP4DTxdQpdxVZMfIyq6PxBif2XptUUfvMOIHBxP6o4TWNPWDjnz55m77sFfZO2EzO3HeZkcBgXTvyHYf0/YvPh4wQGHGZBD6vHv1Ha/Beo2XMW6/f7ERpygoM/vIt7TYPcl3H9zzKhcnsmLNmGb1AIZ0IC8N2+kOEN8/NvtHwQsHedwsqthzkVeprwUz7sWPwa7ewM9uDi4mdk/9M4utOzZiDr1p/hfp5MTvxJVnx3hGoDXqCFfhEVt36l9acsxGuIkRK6dp0MUwABUs4j2Loi24hQpxty4lkE6WG6DiFyCaJuBJJTA+RO05BvLkcTm6G/kgIyuak3ObXXlyuVHWhQfqdXVSpEwbY17RvdwM//Bo/qp568qO1su9mTkX3sCzpoDY08PKh1cg++D2RAg8PoRSwfYc7+OcNw7eiKx4SF7Dj/4MkBfRHyItYw9qUxrAy/zm9TBzLwgz3cDFnC8IGDeP2nC0VuU7kT6zLso9GkrV3K0STBYMBtgZ2tFS7TthJ8KpjAQ5tY+H+dqG44YJTTuH42mKCou+gfMC0PgnCJwNB6uHetRiv3zsT7h5JsptcQaJ3x7K3B3zsAH5+/aOvZw/SzAiVtf4nxAaS8/HISxCfTFNI0dqNrlXD8w0o4nSdaULWpJ8PdbTgTFEkuYNGsJQ7xF4jUO1OSczGSS5bNaFm/oLsyFr9HBMyrtuAlzxbEBZ4iVr/ylRSfMtA81xAH6TJ/xUmYNR3Lp0PvsXjid4TWbUJBf1xAx62gQOJauZXr5ZnG9v/CiomPkvpXyvgpj0/pKMp/GfKnu7OHDwb3o0fP1/g5OpUDM7rg0rYdbZ7/gsBc4+mFaajiMpqR7W/j43+16O3V1Ke1szVXL14rOt1EiuJTiEyCvy/nK7WhnYNeARUTH5OVc/6M9V9S5A+M6dON7nP9yPxzFYM7tMOlbUcGrSjom/JCWTqyH+4DvibYdgAzR6WxeOTzuPUYxBeBem1ZWfKvaUTfrol8N/p5OvcYy08Zg1j0yQCq69fBsqz/mSZSZ/B03q62nzd6d6F9l14Mef97/G7ml77R8kEm+XYEBxa/iYdrRzr2n4F3rbf4bJzBmQ9F8Sti/xMFBCmPPL3BTm5KMpl1HKinf5l1cetXWn/KQrRAuLQVwfEVdLZF9dDRiLF10TWwR27YAWJOU6gj111H47sL2W0NeS2voTl5Ui9RnwZL+6b0HTeQJjfOcO6Jo10qVelpBbvKVBaSSUwuZmqhi2Pf1jAmjXqRel4biRUa0dejKj7LAkgBEJ+jVz9noje9zG/hd9ABGdfOkmSwmhJpmuLkeIOIGBnbPk3QRh8n6anVc5FaAz9kgriRCV7x6NwN01Pxmu1JoJDCg0wzanYYzRdLVrAoawQTNt98PCGTkwhcPYtA/a+WFyGHcL9wJg4cwwuOKfjPuU29MY+Ttc4ePG/mz2fns0mI8+Hie570st/DjvsFQdS24/3dJ3jn4cZqrbBN3f7o+0AJ228sPnoE4ckjzgqZOTSi7u1orupdxv+YGV0+8eHPT0DOu87BLyfz/vZb6BCwsrFGzEgjXX/x7AzSJWtsrQu2xkj8wII+C0O4uBCQc7kX+l8+XB9Btv4ixcanjKysscrKIFPTkNFzR5O+9nV2XWnD82bWWGsBvTNA0o0rXBM8aFhHA5fKZ6hmdP8HjMXHaP2D0sfPhPiUhpL8V2j+FDGn1+cH+bZ/FWyF2xxZNosfzhaqnQUsaDp2Lq/b7GK6V7yig0XGKImPITkjhWTJBlv9I6vlEp/yz1+59F+PZOC3bi1hyTogu/zaDzkZn/UbOJcsAdfZu+4Ak3/uRQerfRx+eIC7LOt/psmkxsaS2sCNAa7+bPSLIen6NcOFSiRdC+TgtYI/Es+z91g041rWQcOlxxPeEuNX/P4nXTvFqfTFvDK0GWe2XSLHvh1jp7xIfW0UWv0Bf4nrf6iE+lMmImT5obn8JnmtmyBeM0gWchBiIpBbjEJXNRXx4B3kdgbLJBxDTHsTXeIhxHTDwVlB/zxXJi8zgZgzB5n3/i9cLJ8uSqUCQJTT00ijMlUrFTXjBpBJ9N7K0VpDGNpcg6axBx7WR9kTUjDrF6pQvYqOO7fumd55CHZ4fr6LQ/uXMqJuB2Zs2cvuOd2pM/BrvPYsZEhFXYSqR6jmway3KrP5m+0UHKx5gpyZyP0MCVnOIv70BpbtvEe73l2pUtqRuakEyAj1J6rjOIYRwPHr+huqpZVnHxxqD2GFjz8ntk+nfeXO9Ov58EwYkBfJ2onDGTxkKIOHDGXY50cVTwaVxKfsBCxsbNBkpPNEOwg8uia27UjWRNthp0skVQaQyUhLR2dti95VimBhg40mg9SHKysxfvDwnozmTi60ch3Ex+e6suSnyTiZ+gCC0shII8OyEs2Gz+ENcSNf/RGLzsoGq7xMMgxvi5IyyMixxNqq/Cqe8f0fSo6PgvpXFqbEpxSM57+C86dIDkFLX+XlIUMZ9s7PJA5ezbrJThS+h9eSJiMW8tPreXw/YzkhhWbvpWc8Pk8S7Oyx1yaTqLSRUaRi8lem/suQdIuY2OKPy5eaLol79x6vV35wj/uaKtjbKqyBNv1YfDyAU4H5n4Dfp9DSlLOSxr5vLL1MZFJ8P2f0xyeo8doaDu1fyycjXKiiuDoKVHYZyScrN7F7zy727trOj+ObYyYojB1Q4v6XE86KGatJ6L+UA37HOfTDa1icCeLWvTvcNbUqFFd/jMXXWDoAOQhndyK0fAWdeRH7ZexJhHqjkQhCTDLcE0Tk5m+jE4IQ6kxEqmX4dIuH96y0wrljL16c9C37Y/SmWsa2z1i6SgVo5ZRIImId6N6tDj9ExxbdYGeFsmVPHiuHdsYnsTfaI58T/vCIppxCUopIu5rVELlV9PeLI6dyZN4QfN3m4fVyAC/POc/QtSuounA0q57StNysgyceDp14ySuCj/T+f+DsC6wePpwVRWyHlCch5+WW02UICqUFsXdvGPKto0RL1R//X9sKz942HJg7lG+CswGReqNWsdazJ9V27eQ+ALmk3IvnTnx+6ZglZioup9LEx3QyORmZ6KyteXgypEg5Uaxbfpw986bR++hcvJNkcqIvcr1WB5yrCZy/m98Imzd3pmnWJbbflMCx4LvFxa8QHbkpNzi54xjXx7jRuopAVLE30JQP6XY0V82m89nMCyx/9XeuSGDV3AnHuKvcMAyt1hZb8wxii57RlYqi/f+RIuKTVHL9K2v4TIpPKRjNv5H9q6z5Uyo7+S63k+H2rRss39KP46Pdcfg5imgJEGxwHv8d34/J5ofJ77H5cpGnJ0vFaHyeIFKzVx9cEsJYXeg6yjKowPyZ1H8JRVwCW4gOXTlluRCxKjVrmEFBjyPY16CalMSDNIWVL8OPL0YNfXSvhJyXzn1TttPY942ll1kOt4I3MT94M8udR/KflT8wP/UFZhwyeBBLUeVj2Y1Zyydg8d0UxhyIIV0SqT9+A9udDBcsWfH7n0zGxR189vqOgiW1NH97M2PP/cifJh9MKab+GIuvsfSHkg8g3n4VXdOzYPgonOxTiFFnIMUXQVetcJqVO1L3BohebyBWmUde71cRt21AKHFn0WNs+4ylq1SAiBTNH+sCcXhrER+96EI9+6rUqN8S104N9QaOEpd3bifWfRLve0gc2PfX44G6Lg5/32icxk1nqJM95hozbGs1xdlB6aMPRao3rE/SlRhyNI1o+twNLpfHKEShnCMf0NbZmeZO+R+Xt/fwIHI5A9oOyR+IaxzoNsCVZrUrY2VZGYeu45k+rDrBR4ILju4XEOxxf3cxXwxrVH43fuqTk/FZNIkZv+mduga0rfrSx9KX3cfiSEhIICHhLhH7DnClnSe9qikrAaDY7Tcan3KScyOGO7Ub06jEJ4jIpJxYw5roHsx8sw1WgHTVix3nnZk4ZzitqttSqX53pk5/EenADoL07wEsJn6GNDZ1cR3mSZN7l7iof81tMfEps6ww9h+9S250EMH3tNjVd2fatOeJP3SUGIMN1TRogqN0jau3SsqBiRTt/48Zxkdx/Stt/EyIT6kYyX+F588YrSNdPdrTpHYVrC0sqeLYndeHtiH10l/ckQChCp2m/sBPo9NZPe0T9twUsba2xtrKAk0R5WcyI/F5TMDMri7tBs9mxcxmBK3cQLj+QeLSxqei86ew/8q5n0Ba3fZ0rmcBiJhbmivs3wqUNv8AQiV6vzaGVnYiWNRj4GsvUDnIh9P6tzSUtH45i6T4eO4UfOLvp2HSONrY942ll4lIndautKhuiYhEStxV7qRrsDAvPC0ptnzMqlDVJo3b1++RIWmwcfRgwssFT5LUV1z8jO1/ABotWgFEq1q0HfoZC1/JYt3PfoWnA8WtXwlj8TWW/kgK4pkjyM165D/5yzDN7x204ZcN/m+Lrtt7yNdXormThXBxFZrckUht6hssVwJj22csXaUCRNBxZ9/H/N/X52g4cRVex/3w3r6SmR4O6I8bdfEH2BrRhHZpB/AqNEqQuLz+Az48aMmYVQc5HRaE929fMcbFVmFjrsGxcW1ir8Qh12hMw5QrXC3jdejlS6R2z3dZvf0oIaG+/DG/Jw/+O405ewyumRZtcGjThS7NqpveGJWaGS59e2MV4I3+Kxt0cX54X2tL/17VFZYBZdp+jctkNuzew665PbB1eoP/7t7D7m8Ho/dqF6OkK8EEp3XAvb2RZ9nobrHru83kDP+AVxtpQHeTLbM/YJfZaH48fJKTf3xC+0sLmbo0lKKeV1K0gnsyLkRy/sQ25rW7xMIZ33NWf7BVhviULI2Ti2eyJNadVceCCdj2Mc5nF/DhrzEGkyqRem6uPBcRREnPIDCdkv2/uPiYUP9KHT+l8SmtkvL/NPJnhGBN4/7v8/1Ob06HncJ34yzaXVnB1G/9SQOE6v2Y+mZ7qtfzZMGuQMJPh+Z/gn/k1XK5jLak+BTQduJT73Oc89vKtyPs8f9kPLO88u//eKSU8an4/Cnrv3JDfmbBHjPG/+5P2KkTHPq0J3YCaBxGsXLfUU4enIurlQszth/Hd+8SRtQ32LZS5h+A3CB+PVCDWVt9CT2xhbfs9jLry4Po3zJV+vVraPba9+w/dojPe1rRYvJGfA7vYN7zSg82VjSBSi6v8u3WY4SEhHDKaz4twr5m6ZGkQmdViisf0nz5cfUNeq/2ISzYm62zmxPiFfzk/SDFxc/I/gdg5vYpx8POEO63lS9eyGXz1Gn895LB5VzFrF9x/Skv8TvQxJtQQ+q+idT4MprA4Py/5ThEv+3InWagM+HSUJWqrITGzZorO5csVOPlldsZ4DuKyTvuFj79qlKVmYZmUzbzS8uNvDzd66ldXvOPYd6KmduWUWP5ED72/We9A0GlUqlUKpWqtBROjQWqdJnEhOYn+O2wOlFRVQSJSxu/YudzE5ja9Vk5qves0NJw1Ew8ry5luZ86UVGpVCqVSvXvYfTMisZxLD/+dzLOUjQ7Fsxi6YmEkm9CVKlUKpVKpVKpVKpyYHSyolKpVCqVSqVSqVR/B4WXgalUKpVKpVKpVCrV06VOVlQqlUqlUqlUKtUzSZ2sqFQqlUqlUqlUqmeSOllRqVQqlUqlUqlUzyR1sqJ6tmmaMXH9Ufx9fTgZfIbITeOpqPdlqVQq1TPFzI0Fx/cww9mEF/mpVCrV/5iCYZ859XtPY9nWI4SeCedswFF2r5lEB+vCC1ckoerLrNk7m/ZaDc2nbuHnkTWe/rs2zFsy9Y8zXPhjEo0L9Q3m1O05hSW/HSQ4LJzzYYf4uJNWf4EKY+65hHMXzrFrSpP8N98Kdgxcdoq/zu/i3eZ6G6l1Ydb+CM6sHoS9XuCEmqNYf3o9Y/VeJ2/mNp8Txz6mczllQajakUnLdxEQdo6I4AOsm+1JfTPDpRSwbM1723bzefdKj8teusTa1/vSo3cfBi0KxeC9wP8TjMdPg8OYnzm07CXqVMhErYT9X6zF6HVnuRh1gb8uRHD+lDc7V03Hw7CAi6l/5cF4fMqqhPw/VIH5K6tauVnMT03mUFIiJ5KS+T4jhwaGC5VJ8fERao5i/dkLXLwQSdSZALy3LueDF5thY1KMZJrkZPJFSiInUzJxNEit+PwZp3F6lz1bDPuF/wUamo1fwwHvE5yJiCTqTCD+h3cyv88/611XFVo+YiWaeb7F0p0BRGwr39/okpHEL1nSE0eN3dOT+CFb98T/TWY7jLzpIeQMHvD4/Vx1ZpD75ixkEWj6NTnvB5PbtVFBoh26QX7kzNiCVEMDtv3Jm7wNqY5lQbqI3HIhua9NRVYwfiif9kGlAhEE7Ht/xvqvevBg00xe6uFG98GT+PyX40RnGi5ecSzadKRRVCh/6qrTvq3MmfAHT/nld1qajpvDC/JVEgv9sEDV3p+xYV5HbqybzotuHXDp+CILz+TpL1SBZHLibmHn1i1/oGrZkR7t0rmTUPhtN1qnvvTiCrdae9Kj6lNsCYRK9Jm9kFfl35no0YVur+3GavTXLBrXMH9ypZiGxmNmM+LuOlYGpDzlsv8bKYqfxPVt33HIYQYz+1Qp50GEkv0/G+8PO9OiVTs6D3iHP3SD+GbOgEKD9gqrf4riUxZK8l+B+SszHY3zJO5b2DCxchUG2FkRl5fOx+Ux0AEUxScvlAV92tDafSjvbbxJ+zm/sPIVB8Xl0yQrlcXZOi6aaUl/IrQVnT9lzOvWp9bT/MFCZOQKaxAlLm14iwF9+jHPL5O/fhxH735Dme/9z3r5bMWVj4Zmk9awZlwtok5GkmaYXEb3RJHKOtmgLstUkWXuC0L5vNMu+xpCjZHoqhUVIBmSb4ODK7IAmLVDVycdIaPgl9OOoAm6g67HyPzJjUVXJLdGiL7rEJQOgcrYPqhUACIaR4ZP8STh59l8uS+SO2mZpCXEEB56iWQZtK2m4+WzgJ42j7+kaTKZnYErGfxwtKKpSbfJi9hyOIBzEeGc9v6dTz1qKOpMtK3fYpOXFwe+HECtbh+ya/9m3u/YkJHLd7F+kvNTq9Aah1HMHXKHH3+/WHgwqHFkxJRuRHz7ASuOXSQhWwdyHnmS/kKAWI9X157A5zM3Hh6DKB8CxJ3jfM3udK8hYtHWnQ43wojI0V9Gi3Pf3ojHV7LpQmv69ahq+oC2tNtv2Zn+3eP5fdlOohJlGvT1wDFbolW/52lgSuFpXRgx/Dn8tx0hwcReUlu7B+8s387xwCBC/fex7uNBNLUGqMTg1cGsHWoYDw0uM/Zw8IM2KDg4lK+08TFGafxy/2TH7jh6jvKkppIdSykj+38hskTm/Si8jkWhqVUb+0fboaD+lTZ+SuNTWoryX4H5KzORQCsbVppriRUEUjXmHNYK1JOk8mk7FcUHQCYvPZ7I/Yt5b+EZnCa+Tlf9QJQQn2jLSgyzs2GrVkQwrHMVnT8osf/StJrCb94BBC7uRxWnaewJC+f82dPsfbegb9J2Yua2w5wMDuPCif8wrP9HbD58nMCAwyzoYfX4N0rIvxI1e85i/X4/QkNOcPCHd3GvaZD7Mq7/WSZUbs+EJdvwDQrhTEgAvtsXMrxhfv6Nlg8C9q5TWLn1MKdCTxN+yocdi1+jnZ3BHlxs/CQurR2P57j5bAx/UPSYpoT680gx678nClSSdWjQMTQtkYMZuZijw14WuSc+0cqUjngNMVJC166TYQogQMp5BFtXZBsR6nRDTjyL8Gh8o0OIXIKoG4Hk1AC50zTkm8vRxGbor0QBI+2DSmWEKNi2pn2jG/j538Bw/A2QF7WdbTd7MrKPfUEHraGRhwe1Tu7B94EMaHAYvYjlI8zZP2cYrh1d8ZiwkB3nHyg6KpAXsYaxL41hZfh1fps6kIEf7OFmyBKGDxzE6z9dKHKbyp1Yl2EfjSZt7VKOJgmFGhmhcge6OEYTa/82P+86hK/3AbYtmYRrdYNmS07j+tlggqLulvulSoJwicDQerh3rUYr987E+4eSbKZ/WNsZz94a/L0D8PH5i7aePUy/VKWU2695riEO0mX+ipMwazqWT4feY/HE7wit24SC/kQRTWM3ulYJxz/MxNN5mma8sexresctZWRPV7q+OAc/h5ms+bA7lYR0rsUkUMexHqL4HP1nLeabMa0wwwoHxxrcuHJdef0qZXyMUR4/HbeCAolr5Vaul2ca2/8LEzCv2oKXPFsQF3iK2IdfUFL/Shk/5fEpHUX5r8D8lT8JZ0nmmkZTfH5MoCg+hcgk+PtyvlIb2jnoFZCR+OSv2/AIc1HKN3/G+i8p8gfG9OlG97l+ZP65isEd2uHStiODVhT0TXmhLB3ZD/cBXxNsO4CZo9JYPPJ53HoM4otAvbbMSP5LpGlE366JfDf6eTr3GMtPGYNY9MkAquvXwbKs/5kmUmfwdN6utp83enehfZdeDHn/e/xu5pe+0fJBJvl2BAcWv4mHa0c69p+Bd623+Gxc08KT3ZLiJ+Xlr0sQi6ifJdefR4pZf5YokqHTUVXOw0Unkirl0VCWqa4TuPfkj5WOaIFwaSuC4yvobItaaTRibF10DeyRG3aAmNMUyqjuOhrfXchua8hreQ3NyZN6iaYqpn1QqYwQBbvKVBaSSUwuZmqhi2Pf1jDaDH+ReiL5DadHVXz2BpACID5Hr37ORG9axG/hd8jIySLp2lmi4k3oSjRNcXK8wV8xMrZNm6CNvkTSE0fYKopIrYEfMkHcyDde8U9MsMSatalp4YJr/VP8Z/QL9O7/OisS+rPkiyHo3QYCchKBq2cxd3t0OS+CIUwAACAASURBVHWieoQcwv3CadJrDC+4puDvf7tQY6J19uB5M3+Onc8mwc+Hi2086VXoGp12vL/7BKcCAzgVGMDJZUVcd1/a7beyxiorg0xNQ0bPHU362m/YdSWVTDNrrBWftgAzh0bUvR3N1SzDlJJpmvRloONpflkTyN1ckFIusOl7L3T9BtPVUsf1Kzeo4VAf6+rdGd6/I91e8cTJoi4N6z3gakya8ksdShsfY0yIn3TjCteE+jSsU36NvNH9HwAL+iwM4WJUJOdPbuFt2z18tT6C7IJUo/UPSh8/E+JTGkryX6H5K1cyjbMyGC1bsM5cfKItKw0l8TEkZ6SQLNlgq39husL4GDZLhZV//sql/3okA791awlL1oGUTbb+ZTIK818kORmf9Rs4lywhZ11n77oDJHXpRQe9EzdlWv8zTSY1NpbUBm4McHXETsgl6fo17j0xoyiedC2Qg6GxpOaBlHievceiqd2gjsFkRUH8BOHJ+qm0/hSzfkkQuS/LVJfyaKSx4Ah5tJZ1VJVF7j3xY6UlQpYfmst1kVo3MUwEIQchJgK58Sh0DVIRY+48uSMmHENMqwo3DyGmK+41i1Rk+6BSGaGV09NIozJVK4lwt6jdVCbReytH353N0Oa/sUrywMP6KF+FFBw1EqpQvYqOO7fumd55CHZ4zt/IzK7VqF1TpM+WvcysVpfKWY3x6h7Jj5PmsCve5LWaRKjmway3KrN52nZuSmBuuAACZAexbpU31zMB7hK4aS83/nCljfkO7pg4uC4VATJC/Yma9yXDEn7hlesSYx8lamnl2QeH2tVY4TMAHebYVdaS09OenTvv5y+SF8naiR+w825+LLUdZ7J1xqMVlE1GGhmWtWg2fA5viBt5449YdPZuWOVlkqH0mlYELGxs0GSkY2o7KFapSuXUeO7qHcTU3b1NvFlLqtlB2rVrPKjjSIuuzXAM+ZWdjTxwa3oBx1o3CbxeVH1/ykyJn5RBRo4l1lbl18gb3/8h/56VbrztlYlZpXq4TviaJT/lMeGVNUTllVz/TCzOJ5kSn1Iwnv8Kzl+5kWmYnc7SbPivrRVh5VRFjMfnSYKdPfbaZC6X6xGnislfmfovQ9ItYmJNGEUrpUvint7oXH5wj/saZ+xtBchQEGObfize/xnuBZ1b3rVfeXPcD/yprDiNf99YepnIpPh+zujMkUyavIZDH8Zy8JcVrNpxniRFBSZQ2WUE70waRMcGNog6GU3lepiFllMFKmP90YkaEuRcmubpSNVaEqrLYXiujkqCyP2Hm2gsvsbSAchBOLsTYfgr6G6l6Cfkiz2J4DEfKX0DZkk6gwmbiNz8bXRCEEKdiUi1gtHE612Hruj3H3uifTDx+6p/J62cEklErAPdu9Xhh+jYone4rFC27Mlj5dDO+CT2Rnvkc8If1lU5haQUkXY1qyFyq+jvF0dO5ci8Ifi6zcPr5QBennOeoWtXUHXhaFZdfDo11ayDJx4OnXjJK4KP9P5/4OwLrB4+nJXxN4ijMzWrilBw05lgZoZWJ5GnoJ8oN2lB7N0bhnzrKNFS9cf/17bCs7cNB+YO5ZvgbECk3qhVrPXsSbVdO8mfruSSci+eOwUTP7PETNPKqQTS7Wiumk3ns5kXWP7q71yRwKq5E45xV7mhuAhlcjIy0VlbY21iH6JLuMeDSs7UshF4eBG9WKsOtXIfkJAqI12/Qmz1zni6tuDPgAWcSBrCtP6tMU+OISb1aRZg0UyKn9YWW/MMYk2d0ZVA0f7/iI7clBuc3HGM62PcaF1FICqp5Ppn6v1HhkyKTykYzb+R/aus+SsfMi2y0licLbDO1pYdGhN3ohIYjc8TRGr26oNLQhirH10nWFYVlz+T+i+h8CXCT9KhK68s6xOrUrOGGRQMIQX7GlSTkniQprDyZfjxxaihj+6VkPPSuW/Kdhr7vrH0MsvhVvAm5gdvZrnzSP6z8gfmp77AjEMGD2IpqnwsuzFr+QQsvpvCmAMxpEsi9cdvYLuT4YKlZEr9KYogcA8dnfNk/rQUuShqcMjOI1fUFvTdGI+vsfSHkg8g3n4VXdOzYPiogOxTiFFnIMUXQVetcJqVO1L3BohebyBWmUde71cRt21AeJhZpb8PFNk+mPR91b+ViBTNH+sCcXhrER+96EI9+6rUqN8S104N9QaOEpd3bifWfRLve0gc2PfX45m3Lg5/32icxk1nqJM95hozbGs1xdlB6aMPRao3rE/SlRhyNI1o+twNLpfHKEShnCMf0NbZmeZO+R+Xt/fwIHI5A9oOYcVFCTnpBLtP1Of1D4fTspIWjW0jXpgwmJpBvo8nbACCPe7vLuaLYY3K78ZPfXIyPosmMeO3S4WOemhb9aWPpS+7j8WRkJBAQsJdIvYd4Eo7T3pVU1YCQOm3PyuM/UfvkhsdRPA9LXb13Zk27XniDx0lxoRizLkRw53ajWlkYZhSMunaEfZdbs+Et92pbQ6inRNj33oRc5/9nMoCOeUa17KdcHWKIyQskQshETTo0Y3qsVcw6cRKaeNjjAnx0zRogqN0jau3TNlwIxTt/49pbOriOsyTJvcucTFZVl7/Shs/E+JTKkbyX+H5KzOZdpmpLMsW+NnWhoMiWMsy1rJcPtthJD6PCZjZ1aXd4NmsmNmMoJUbCNc/yVDq+FRw/hT2Xzn3E0ir257O9SwAEXNLc4X9W4FS5x8QKtH7tTG0shPBoh4DX3uBykE+nNa/va+k9ctZJMXHc6fgE38/DZNOShr7vrH0MhGp09qVFtUtEZFIibvKnXQNFuaFpyXFlo9ZFarapHH7+j0yJA02jh5MeNnpyRiVFL+SKKw/xa9f5I4o0V7ScF4D2RotiVIetQXh8WTFWHyNpT+SgnjmCHKzHvlP/jJM83sHbfhlg//bouv2HvL1lWjuZCFcXIUmdyRSm/qPF1H0+yW0D4q+r/q3E0HHnX0f839fn6PhxFV4HffDe/tKZno4oD9u1MUfYGtEE9qlHcCr0ChB4vL6D/jwoCVjVh3kdFgQ3r99xRgXW4WNuQbHxrWJvRKHXKMxDVOucLXQk67+ZvIDDi+Yzobsoaw5eoow77W8br6DGV8c5oH+YR3RBoc2XejSrLppjV2ZmOHStzdWAd6E6V2Opovzw/taW/r3qq6wDCjD9qdxcvFMlsS6s+pYMAHbPsb57AI+/DWm+Gt/iyBdCSY4rQPu7Q0eEaJtw9RfvfD1O4n3Z25YtZ3B3pM+HNv1Mb2sASmGje/P5mitqfx6LJCQw9/hefd7pn7jR4oMSNeJvlmPRrowQu7qyDoXSnS9Rmivxzz5tKuSlDo+xiiNn0g9N1eeiwjC1GcQlEzJ/l9wz8qFSM6f2Ma8dpdYOON7zuaaUP9KHT+l8SmtkvL/NPJXNoIuhzez8rDX5fBxSiLHkx5+0hhm8mHeopQUnwLaTnzqfY5zflv5doQ9/p+MZ5bXncJHmUuIjyYvk+9Tkvk1IxcbKYuVKclsSs+mJk8jf8r6r9yQn1mwx4zxv/sTduoEhz7tiZ0AGodRrNx3lJMH5+Jq5cKM7cfx3buEEYZvri0h/0blBvHrgRrM2upL6IktvGW3l1lfHuR+ufQ/Gpq99j37jx3i855WtJi8EZ/DO5j3vNKDjRVNoJLLq3y79RghISGc8ppPi7CvWXokqdBZleLKhzRfflx9g96rfQgL9mbr7OaEeAU/ut/ukRLip3GZzIbde9g1twe2Tm/w39172P3t4IJ7VpXVn+LXL3JXkLHRaIkSQBa1nBN0iKJIhVxhHr8DTbxhDktQ902kxpfRBAbn/y3HIfptR+40A12lJ85jFU1J+6BSGSE0btZc2ZBNqMbLK7czwHcUk3fcfYau1Vb9b9DQbMpmfmm5kZenez0jl9c8Q8xbMXPbMmosH8LHvv+sdyCoVCqVSqVSlZbCqbFAlS6TmND8BL8dVicqqoogcWnjV+x8bgJTuz4rR/WeFVoajpqJ59WlLPdTJyoqlUqlUqn+PYyeWdE4juXH/07GWYpmx4JZLD2RoJ6+U6lUKpVKpVKpVBXO6GRFpVKpVCqVSqVSqf4OCi8DU6lUKpVKpVKpVKqnS52sqFQqlUqlUqlUqmeSOllRqVQqlUqlUqlUzyR1sqJSqVQqlUqlUqmeSepkRfVs0zRj4vqj+Pv6cDL4DJGbxmP4vjWVSvXPZ5OXxVcpSfgmJeKXlMz0vMLPfjGW/j/JzI0Fx/cww9mEF/mpVCrV/5iCYZ859XtPY9nWI4SeCedswFF2r5lEB+vCC1ckoerLrNk7m/ZaDc2nbuHnkTWe/rs2zFsy9Y8zXPhjEo0L+gaNy0wOn7/AxSiDT/hKBtkW/npFMPdcwrkL59g1pUn+m28FOwYuO8Vf53fxbnO9Dkzrwqz9EZxZPQh7vcAJNUex/vR6xua/bhcAM7f5nDj2MZ21j5crC6FqRyYt30VA2Dkigg+wbrYn9c0Ml1LAsjXvbdvN590rPS576RJrX+9Lj959GLQolFz95f9HGI+fBocxP3No2UvUqZCJWgn7v1iL0evOcjHqAn9diOD8KW92rpqOh2EBF1P/yoPx+JRVCfl/qALzVzYyzXIyWJSShHfSA04kJbMqI4f6houVSfHxEWqOYv3ZC1y8EEnUmQC8ty7ngxebYWNyjHT0y8qkkdaGoVWq0qtKJX7S6q/EWHrF0ji9y54tj/uF/x0amo1fwwHvE5yJiCTqTCD+h3cyv88/611XFVo+YiWaeb7F0p0BRGwr39/okpHEL1nSE0eN3dOT+CFb98T/TWY7jLzpIeQMHvD4/Vx1ZpD75ixkEWj6NTnvB5PbtVFBoh26QX7kzNiCVEMDtv3Jm7wNqY5lQbqI3HIhua9NRVYwfii/9kH1byeCgH3vz1j/VQ8ebJrJSz3c6D54Ep//cpzoTMPFK45Fm440igrlT1112reVORP+4Cm//E5L03FzeEG+SqLeD0vnlzGgbWucXB5+2uD+sQ8J50M5m/F4uYojkxN3Czu3bvkDVcuO9GiXzp2Ewm+70Tr1pRdXuNXakx5Vn2JLIFSiz+yFvCr/zkSPLnR7bTdWo79m0biG+ZMrxTQ0HjObEXfXsTIg5SmX/d9IUfwkrm/7jkMOM5jZp0o5DyKU7P/ZeH/YmRat2tF5wDv8oRvEN3MGFBq0V1j9UxSfslCS/wrMXzmwkgWCrOwYVtme/nZW3M9N5/1sXTnVEwXxyQtlQZ82tHYfynsbb9J+zi+sfMXBxPKRqa6Dy2ZmJAIyAoWbV2PpFcu8bn1qlXnkWFoycoU1iBKXNrzFgD79mOeXyV8/jqN3v6HM9/5nvXy24spHQ7NJa1gzrhZRJyNJM0wuo3uiSGWdbDApkakiy9wXhPJ5p132NYQaI9FVKypAMiTfBgdXZAEwa4euTjpCRsEvpx1BE3QHXY+R+ZMbi65Ibo0Qfdch5OmvpwTl0j6o/u1ENI4Mn+JJws+z+XJfJHfSMklLiCE89BLJMmhbTcfLZwE9bR5/SdNkMjsDVzL44WhFU5Nukxex5XAA5yLCOe39O5961FB0VEDb+i02eXlx4MsB1Or2Ibv2b+b9jg0ZuXwX6yc5P7UKrXEYxdwhd/jx94sGnbwOSZIef2jAy6+4cHrzXmL1WxKxHq+uPYHPZ248PAZRPgSIO8f5mt3pXkPEoq07HW6EEZGjv4wW5769EY+vZNOF1vTrUdX0gUppt9+yM/27x/P7sp1EJco06OuBY7ZEq37P08CUwtO6MGL4c/hvO0KCib2ktnYP3lm+neOBQYT672Pdx4Noag1QicGrg1k71DAeGlxm7OHgB21QcHAoX2njY4zS+OX+yY7dcfQc5UlNJTuWUkb2/0Jkicz7UXgdi0JTqzb2j7ZDQf0rbfyUxqe0FOW/AvNXZgLnLKzYaaYhSYB0jRl+Wqj1xAColBTFB0AmLz2eyP2LeW/hGZwmvk5X/UAUEx9Rl81/UpLYn5TCa5JM37QHnEx8wInkdDorSC8XJfRfmlZT+M07gMDF/ajiNI09YeGcP3uave8W9E3aTszcdpiTwWFcOPEfhvX/iM2HjxMYcJgFPawe/0Yx+VeqZs9ZrN/vR2jICQ7+8C7uNQ0qfxnX/ywTKrdnwpJt+AaFcCYkAN/tCxneMD//RssHAXvXKazcephToacJP+XDjsWv0c7OYA8uNn4Sl9aOx3PcfDaGPyh6nyqh/jxSzPrviQKVZB0adAxNS+RgRi7m6LCXRe6JT7QypSNeQ4yU0LXrZJgCCJByHsHWFdlGhDrdkBPPIkgP03UIkUsQdSOQnBogd5qGfHM5mlhTDxUYaR9UKiNEwbY17RvdwM//Bo/qp568qO1su9mTkX3sCzpoDY08PKh1cg++D2RAg8PoRSwfYc7+OcNw7eiKx4SF7Dj/QNFRgbyINYx9aQwrw6/z29SBDPxgDzdDljB84CBe/+lCkdtU7sS6DPtoNGlrl3I0SSi6QSpg1XE0I6sc5jffpMJHnuQ0rp8NJijqbrlfqiQIlwgMrYd712q0cu9MvH8oyWZ6DZnWGc/eGvy9A/Dx+Yu2nj1Mv1SllNuvea4hDtJl/oqTMGs6lk+H3mPxxO8IrduEgv5EEU1jN7pWCcc/zMTTeZpmvLHsa3rHLWVkT1e6vjgHP4eZrPmwO5WEdK7FJFDHsR6i+Bz9Zy3mmzGtMMMKB8ca3LhyXXn9KmV8jFEePx23ggKJa+VWrpdnGtv/CxMwr9qClzxbEBd4itiHX1BS/0oZP+XxKR1F+a/A/JW3ynnZDMkTOWEmFp8fEyiKTyEyCf6+nK/UhnYOegVUTHx0ogWfVarCwCqV+FUjcNTWnu5V7XGvbEOIgvSyK7n/kiJ/YEyfbnSf60fmn6sY3KEdLm07MmhFQd+UF8rSkf1wH/A1wbYDmDkqjcUjn8etxyC+CNRry4rJvyKaRvTtmsh3o5+nc4+x/JQxiEWfDKC6fh0sy/qfaSJ1Bk/n7Wr7eaN3F9p36cWQ97/H72Z+bTRaPsgk347gwOI38XDtSMf+M/Cu9RafjWta+EBoSfGT8vLXJYhFjA1Krj+PFLP+LFEkQ6ejqpyHi04kVcqjoSxTXSdw78kfKx3RAuHSVgTHV9DZFrXSaMTYuuga2CM37AAxpymUUd11NL67kN3WkNfyGpqTJ/USTVVM+6BSGSEKdpWpLCSTmFzM1EIXx76tYbQZ/iL1RPIbTo+q+OwNIAVAfI5e/ZyJ3rSI38LvkJGTRdK1s0TFK+vaANA0xcnxBn/FyNg2bYI2+hJJhkd1K4xIrYEfMkHcyDde8SVPsITq9HutH4k7thKWZZAmJxG4ehZzt0cr7NRNIOQQ7hdOk15jeME1BX//24UaE62zB8+b+XPsfDYJfj5cbONJr0LX6LTj/d0nOBUYwKnAAE4uK+K6+9Juv5U1VlkZZGoaMnruaNLXfsOuK6lkmlljrfi0BZg5NKLu7WiuGsbVCE2Tvgx0PM0vawK5mwtSygU2fe+Frt9gulrquH7lBjUc6mNdvTvD+3ek2yueOFnUpWG9B1yNSVN+qUNp42OMCfGTblzhmlCfhnXKr5E3uv8DYEGfhSFcjIrk/MktvG27h6/WR5BdkGq0/kHp42dCfEpDSf4rNH/lpFtGEkeTEjmYlk2KpS3ry+l+DiXxMSRnpJAs2WCrf2H63xyfYpVH//VIBn7r1hKWrAMpm2z9y2TKkn85GZ/1GziXLCFnXWfvugMkdelFB70TN2Va/zNNJjU2ltQGbgxwdcROyCXp+jXuPTGjKJ50LZCDobGk5oGUeJ69x6Kp3aCOwWRFQfwEoYgzqgrrTzHrlwSR+7JMdSmPRhoLjpBHa1lHVVnk3hM/VloiZPmhuVwXqXUTw0QQchBiIpAbj0LXIBUx5g5PZDThGGJaVbh5CDFdca9ZpCLbB5XKCK2cnkYalalaSYS7Re2mMoneWzn67myGNv+NVZIHHtZH+Sqk4KiRUIXqVXTcuXWv5IF+UQQ7POdvZGbXatSuKdJny15mVqtL5azGeHWP5MdJc9gVb/JaTSJU82DWW5XZPG07NyUwN1xAj6bxMMa1Ocemz2KKb9AqggAZof5EzfuSYQm/8Mp1ibGPErW08uyDQ+1qrPAZgA5z7Cpryelpz86d9/MXyYtk7cQP2Hk3P5bajjPZOuPRCsomI40My1o0Gz6HN8SNvPFHLDp7N6zyMslQek0rAhY2Nmgy0jG1HRSrVKVyajx39Q5i6u7eJt6sJdXsIO3aNR7UcaRF12Y4hvzKzkYeuDW9gGOtmwRef6qlWDRT4idlkJFjibVV+TXyxvd/yL9npRtve2ViVqkerhO+ZslPeUx4ZQ1ReSXXPxOL80mmxKcUjOe/gvNXTkKtKjHWUqaSLo+XM1NZJdsy2VL75FFiExmPz5MEO3vstclcfnpHnEqvLP2XIekWMbFljXgRdEnc0xudyw/ucV/jjL2tABkKYmzTj8X7P8O9oHPLu/Yrb477gT+VFafx7xtLLxOZFN/PGZ05kkmT13Dow1gO/rKCVTvOk6SowAQqu4zgnUmD6NjABlEno6lcD7PQcmpDy1h/dKKGBDmXpnk6UrWWhOpyGJ6ro5Igcv/hJhqLr7F0AHIQzu5EGP4Kulsp+gn5Yk8ieMxHSt+AWZLOYHwjIjd/G50QhFBnIlKtYDTxetehK/r9x55oH0z8vurfSSunRBIR60D3bnX4ITq26B0uK5Qte/JYObQzPom90R75nPCHdVVOISlFpF3NaojcKvr7xZFTOTJvCL5u8/B6OYCX55xn6NoVVF04mlUXn05NNevgiYdDJ17yiuAjvf8fOPsCq4cPZ8Wj7bCi65hh2B+bz6H7CjqI8pYWxN69Yci3jhItVX/8f20rPHvbcGDuUL4JzgZE6o1axVrPnlTbtZP86UouKffiuVMw8TNLzDStnEog3Y7mqtl0Ppt5geWv/s4VCayaO+EYd5UbiotQJicjE521NdYm9iG6hHs8qORMLRuBhxfRi7XqUCv3AQmpMtL1K8RW74ynawv+DFjAiaQhTOvfGvPkGGJS/4ZyNGBS/LS22JpnEGvqjK4Eivb/R3Tkptzg5I5jXB/jRusqAlFJJdc/U+8/MmRSfErBaP6N7F9lzV95yRFE4gWIFzX8aJHD3qxc6llqiTFc0ERG4/MEkZq9+uCSEMbqR9cJPsNM6b+Eki8RBh26isiyWJWaNcygYAgp2NegmpTEgzSFlS/Djy9GDX10r4Scl859U7bT2PeNpZdZDreCNzE/eDPLnUfyn5U/MD/1BWYcMngQS1HlY9mNWcsnYPHdFMYciCFdEqk/fgPbnQwXLCVT6k9RBIF76OicJ/OnpchFUYNDdh65orag78Z4fI2lP5R8APH2q+iangXDRwVkn0KMOgMpvgi6aoXTrNyRujdA9HoDsco88nq/irhtA8LDzCr9faDI9sGk76v+rUSkaP5YF4jDW4v46EUX6tlXpUb9lrh2aqg3cJS4vHM7se6TeN9D4sC+vx7PvHVx+PtG4zRuOkOd7DHXmGFbqynODkoffShSvWF9kq7EkKNpRNPnbnC5PEYhCuUc+YC2zs40d8r/uLy9hweRyxnQdojeRAWEGv0Z1y+VnZtPUeRdFYI97u8u5othjSrmoQByMj6LJjHjt0uFjnpoW/Wlj6Uvu4/FkZCQQELCXSL2HeBKO096VVNWAkDptz8rjP1H75IbHUTwPS129d2ZNu154g8dJcaEYsy5EcOd2o1pZGGYUjLp2hH2XW7PhLfdqW0Oop0TY996EXOf/ZzKAjnlGteynXB1iiMkLJELIRE06NGN6rFXMOnESmnjY4wJ8dM0aIKjdI2rt0zZcCMU7f+PaWzq4jrMkyb3LnExWVZe/0obPxPiUypG8l/h+SsziY65eTTUyVjLMpWlXEZn55Gu0XLXcNHSMBKfxwTM7OrSbvBsVsxsRtDKDYTrn2T42+JjhML+K+d+Aml129O5ngUgYm5prrB/K1CW/AuV6P3aGFrZiWBRj4GvvUDlIB9O63dEJa1fziIpPp47BZ/4+2mYdFLS2PeNpZeJSJ3WrrSobomIRErcVe6ka7AwLzwtKbZ8zKpQ1SaN29fvkSFpsHH0YMLLTk/GqKT4lURh/Sl+/SJ3RIn2kobzGsjWaEmU8qgtCI8nK8biayz9kRTEM0eQm/XIf/KXYZrfO2jDLxv83xZdt/eQr69EcycL4eIqNLkjkdrUf7yIot8voX1Q9H3Vv50IOu7s+5j/+/ocDSeuwuu4H97bVzLTwwH9caMu/gBbI5rQLu0AXoVGCRKX13/AhwctGbPqIKfDgvD+7SvGuNgqbMw1ODauTeyVOOQajWmYcoWrhZ509SzQ0HTEGDpEbuGPy8WMkEQbHNp0oUuz6qY1dmVihkvf3lgFeBe6h0YX54f3tbb071VdYRlQhu1P4+TimSyJdWfVsWACtn2M89kFfPiraZfKSVeCCU7rgHt7g0eEaNsw9VcvfP1O4v2ZG1ZtZ7D3pA/Hdn1ML2tAimHj+7M5Wmsqvx4LJOTwd3je/Z6p3/iRIgPSdaJv1qORLoyQuzqyzoUSXa8R2usxTz7tqiSljo8xSuMnUs/NlecigjD1GQQlU7L/F9yzciGS8ye2Ma/dJRbO+J6zuSbUv1LHT2l8Squk/D+N/JWVTMOcDBanJOGdlMietAxcNNbMsjYj3XDRUikpPgW0nfjU+xzn/Lby7Qh7/D8ZzyyvO4WPMv9t8TFGWf+VG/IzC/aYMf53f8JOneDQpz2xE0DjMIqV+45y8uBcXK1cmLH9OL57lzDC8M21Zcl/bhC/HqjBrK2+hJ7Ywlt2e5n15UEKneAv9fo1NHvte/YfO8TnPa1oMXkjPod3MO95pQcbK5pAJZdX+XbrMUJCQjjlNZ8WYV+z9EjhB9wUVz6k+fLj6hv0Xu1DWLA3W2c3J8Qr+NH9do+UED+Ny2Q27N7DE6ziLQAAIABJREFUrrk9sHV6g//u3sPubweT/+oyZfWn+PWL3BVkbDRaogSQRS3nBB2iKGLi7ZvKxO9AE2+YwxLUfROp8WU0gcH5f8txiH7bkTvNQFfpifNYRVPSPqhURgiNmzVXNmQTqvHyyu0M8B3F5B13n5lrtVX/KzQ0m7KZX1pu5OXpXs/M5TXPDPNWzNy2jBrLh/Cx7z/rHQgqlUqlUqlUpaVwaixQpcskJjQ/wW+H1YmKqiJIXNr4FTufm8DUrs/KUb1nhZaGo2bieXUpy/3UiYpKpVKpVKp/D6NnVjSOY/nxv5NxlqLZsWAWS08kqKfvVCqVSqVSqVQqVYUzOllRqVQqlUqlUqlUqr+DwsvAVCqVSqVSqVQqlerpUicrKpVKpVKpVCqV6pmkTlZUKpVKpVKpVCrVM0mdrKhUKpVKpVKpVKpnkjpZUalUqqdAbpJN2sJkEjclkbguhQyXws82MZau+hcyc2PB8T3McDbhRX6qv5FApZe/58ym8Ri+F1SlqjCCTO6EFNI7y/yvvvehYHcyp37vaSzbeoTQM+GcDTjK7jWT6GBdeOGKJFR9mTV7Z9Neq6H51C38PLLG04+5eUum/nGGC39MorFe36B5rifTV+/i5KnTnA06zO9fjMTZ9ulsnbnnEs5dOMeuKU3y33wr2DFw2Sn+Or+Ld5vrbaTWhVn7IzizehD2epsm1BzF+tPrGZv/ul0AzNzmc+LYx3TWPl5OkWLig1iJZp5vsXRnABHbDNJMYdma97bt5vPulfTeDF6L0evOcjEqkr8iz3LGfy/rPhtGS5vHmRSru/L2ip0EhJ3lXOABNsx9iSaW+WlG4/do/Rf460IE5095s3PVdDzqmz1af0UTqnZk0vJdBISdIyL4AOtme1L45zU4jPmZQ8teok6FdIAl7P9K41NM/SsPxuNTViXk/6Gy5k/QkfNqJtKfNlQZX4Wqk+yw+lN/Ry0mXZCRemaS9k0yib8nkvhLCqn/l4P0cN81ll4uio+PUHMU689e4OKFSKLOBOC9dTkfvNgMvd3TqL+zfVVK4/Que7aUoW17ZmloNn4NB7xPcCYikqgzgfgf3sn8Pv+sd11VWPkIdrQc/AGrtx0lNPws5wL2s+6j/jiUa/tTgWyHkTc9hJzBAx6/n6vODHLfnIUsAk2/Juf9YHK7NipItEM3yI+cGVuQamjAtj95k7ch1SnoUBGRWy4k97WpyFoK9Q8XL5wn6sxJjmz6mvHtKiOgsH2wasawees4fDKMyPBgTh7czOIRjfP7638CC4nsiakk/zeJB78nkbQilTQPCQBd3zQe/JH45GdrMhlOQNUc0n5MIUPvoby6HmkkLcokz/zRv0qka51J6qpk0nrryJmSTOLaVDKbGy4FmElkfpvEg2+zkIoaR5Q23S6PrA9SSNqUSOL6ZFLH56Ar1/4nnwgC9r0/Y/1XPXiwaSYv9XCj++BJfP7LcaIzDRevOBZtOtIoKpQ/ddVp31bmTPiDp/zyOy1Nx83hBfkqifo/LFRmwJyvGfBgNSN7dKLDCx8S4DCTb99o8ZR2JpmcuFvYuXXLH6ha/j975x1WxbX27XtmbzooYosVewEb9oYV0WiisXeTE6OmmMQaTcyJ5sScJEaNNcaYE8sxtthFrICgUkRABUk0WLGAohQpUmbP9weoG2QzAxs85nvnvi6uRJ6ZxXp+61l9zUxburmlEZeQ/2s3epc+9OAKd1p40q1CWXQzJvRBR6PJa1gzvirRp6JINTYVCx31x85h+L31rDydUqDsswlZ2BuXFh3o9dYKrrf+jMWTXHL1F2sy8tslDDP8ztQB3ek+ciHhTeawekY7cseaavTLxOeT9jRp5kb7/h/yu2Eg387tX7JBaXERytF7ziJGy1uY5NGBLhP2YjPmG74fX9coviRu7PiBw87TmdHbsZQHEWrqv7I+ZRZ/qvQxBzX+l4J/oozBEXQX9QgSkC0g5KizyzYCFlvscXyzAo6fWyO0TSe927P4VbKbhwp9ckL5qndLWrgP4eNNt2g991dWjnJWVz7/8/ZVHZY1alG1sA78hSAjl1lnKHF543v0792X+f4Z/Ll2PD37DmGBz9/r47NlWT42dumcWjYZz47t6DJuDQk9F/D5wP/BYmpJybyOUHkEhoqFCSRD8l1w7oQsABZuGKqnIaTntR+pR9EFxWHoNiJ3cmPVEalzPUS/9UbtVzYhC3vR1LUFLbuPYn5wDaYu/pAOVnnmItsHHa6TFvHPVn/x3dietOvan1HTl7M97A65w/2Xn5zBaaQ31mHzeXkqTCxPuaU2WP+Rq7V43B6nURVwGuWIfbCAbme53H+PLo9tNJBoie3vIlnjMpF0gF02GSMMWG60Rp+V788Ujk4i880shO3lsD+mw3KZIxVm2mF1reCFIPVPJ0sWEU10DSWyCzJZb6XxWLbC4T1HHL+wQu6XTmr/0i89EV0dhr3rScIvc/j6QBRxqRmkJlwjIvQyyTLom03Dy/cruts9u0nXYAq7A1cy6MloRVeFLlO+Z9uR05y/EMFZny3806OyqjNm+hbvsdnLC++v+1O1yyfsObiVmW3rMmL5HjZMdn1hHZbOeSTzBsexdsulAo2QHmsbkRsRYdzNlJGSogn9MxlLG+v814k1Gb3uJL5fdObJGkTpIMDt80RW6UrXyiJWrdxpczOMC/kCWY9rn56IJ1ay+WIL+narUPyGVCH/pvWRuLzuTTzHL2BTxENVZV4o+uYMH1aNgB1HSTDVSxoySbp6ggNBCVSrXQM9oKs7gOEto1n3zXYi4pJJig1kzfKD6PsPpZMtqNMvD1ki40E0Xsej0VV9BSdjZxT0KTHW7enXNZ4ty3YTnShTu48HdTIlmvXtRW3j4M/+g117b9N9pCdVSixyISjU/3yY1EdF/JVUP7X6lBRV/pvhX8UsUpckk/TzIzJqyWTNSOThlkQSf0onW6/CLgvoD1tjdUGHkA3CHQssY8BQJS9zSnZzUaUPgExOWjxRBxfz8aJwXCa9RUdjIUzpo6J9FRxcGbVgA0dPBXP29FG2LRxZujsvRfRfumbv8pvPaQIX98XRZSr7wiKIPHeW/R/l9U36dszYcYRTwWFcPPkvhvb7lK1HThB4+ghfdbN59jdM+q+OKt1ns+GgP6FnTnLop49wr1Ig+M1M/2VGKN+aiUt24Bd0hvAzp/HbuYhhdfOGukrlg4BTp3dZuf0IIaFniQjxZdfiCbg5FIgfU/rJjwjf8iNbA6+RmJlN6rXjHI+EajUq5fV1AnZNhvP15iOEhAQT5P0jk1oUciTFVPpq48ccxOuIURIGt3YFLYAAKZEI9p2Q7USo3gU58VzuggkABoSoJYiG4UgutZHbTUW+tRxdbLpxInnIZD+6Rch+P66Ud6Z2vu0TU+2Djqo1qpIYepSAGylkpD3k1p/BhF59gSvlZmKobEC4aInlXQEhQ0C8rkd/O893GZDyfgAMef9vNOAX/WywljLJ6GYgZ1AG2RdtsLlYjPZNAHJy/wNAsohYcHxTLZP0niI2h010miW1W+aQ1UrEeosVukcgdcxCyoacTtmF786YgSjYt6B1vZv4B9wsdCabE72THbe6M6K3U54YOup5eFD11D78HsqADucx37N8uCUH5w6lU9tOeExcxK7Ih6q+dJ9zYQ3jXh/Lyogb/PbBAAbM2setM0sYNmAgb/18sdA8lTpiDYZ+OobUdUs5liTkH3DLDzn88zYcxi/gHx0a4PLqTD5oGsSS/17AeGEUOZUb54IJir5HtvHvSwFBuExgaE3cO1akmXt74gNCSbYwCma9K549dQT4nMbX909aeXYr/q5AUfkvSh8AKSe3nATxeZtKdPU709ExgoCwIhop0YoKDT0Z5m5HeFAU2YBVo6Y4x18kyminJOtSFJetG9G0Vl53paTfUwQsKzThdc8m3A4MIdY4+IrSxwx01eriLP3Fn7clLBqO459D7rN40g+E1mhAXn+ch4E7QYHcbta5VI9nKtX//JjQR038lVA/9fqUDFX+m+PfA0vsZ5bHcbIDNrEClksr4DSmAhXetcUiR4W9AHKDTDKbiFiGF17TlOzFRZU++ZBJCPAjslxL3JyNCsiUPkrtq1iF175azftVfZn9elfa9Z7EdpuJrJjVGXvjdEpM0f2XFPUTY3t3oes8fzL+WMWgNm40b9WWgSvy+qacUJaO6It7/28Itu/PjJGpLB7Ri87dBrIw0KgtM+W/GnT16NMxkR/G9KJ9t3H8nD6Q7z/vT6V8Y0Ez0n+pEak+aBrvVzzI2z070LpDDwbP/BH/W7nRqFg+yCTfvYD34nfw6NSWtv2m41P1Pb4Y3zD/Qqgq/XQ4Nh/DiNZ38Q24mpu+RXPeW/wJrpH/4vWuneg+cTcVO7fmuRM8ptJXGz/mIFohXN6OUGcUBvvC2oUYxNgaGGo7IddtA9fOkq8jN9xA57cHufMacppeR3fqlJHRGB3WTg3pM34ADW6Gc/651S54vn3I5tyxEwj9pzN3cEsqPyfcy49FiAV0zSC9Rw6GkhwPlHRYb7DCMPIRqV112G61QChMusKQdFj9ZonhHyk86iEhtcxGKl/gGsFA5luZCHtssHhE7g5aadkrSRgkHbr7QO3cCY3tQhssKksYSqF/NkYUHMpTXkgmMdnE1MJwmwPbw2g57DVqiuQ2nB4V8N1/mhQAsRo9+roSs/l7fouIIz3rMUnXzxEdr65rA0DXEJc6N/nzmox9wwboYy6TpLawzEak6oBPmChu4luv+EImWDKp0fvZdqkeExcs4ccFPUk5vJuQuAL+yUkErp7NvJ0xKjv1YiBkEeEfQYMeY3m1UwoBAXfzNSZ6Vw96WQRwPDKTBH9fLrX0pEe+MzpuzNx7kpDA04QEnubUskLO3ZvMv5I+RgjC8yvOKrFwrkeNuzFcfVzQAmBBh899+SMqnKBdU7H57xRm7ryDAQEbO1vE9FTSjC/PTCdNssXeNi83CvqBFb0XneFSdBSRp7bxvv0+/r3hApnGl5jUx0xsbLF5nE6Gri5j5o0hbd237LnyiAwLW2wLnPuUbl7hulCLutVLrxVQrP+Akj6K8Qcl168Y+pQENf6XqX8qyZ6STOLGJBK/yELYY4f15fx/X8leUtToUxA5PYVkyQ5745VVk/oU3b6KlXszvGs8m7//jfOJOciPb3Dgv8eQevXFrSQDg4KURv/1lHT8168jLNkAUiaZxpNNk/6rQE7Gd8NGzidLyI9vsH+9N0kdetDGeOHdnPRfamQexcbyqHZn+neqg4OQTdKN69w3PaN4Dul6IIdCY3mUA1JiJPuPx/BK7eoFJitF6WdJjy99CAk5w+n/DCFl3Wf8dC639dPVc6db1VA2/RzIvWyZrLu+rN97Of9CJiik/4Qi4scsRHjsj+6vGkgtGhQ0gpCFcO0Ccv2RGGo/QrwWx3MdecJxxNQKcOswYlrBwVle/3zxPGFH1/GhcyjzZ/7KJROO5m8fZB4e/4JRMw+hH7gI72Pb+H5SV2r8jSYtwhk7yv1gidw9jeTVj0h9I7v4k5abllg+MEC0JRZJBY1FI4bZUG5qOWwvCMguGTz6IYW09s/aa4N7Oo9FK2xPis8VK5hpt5KRs0AQJR6/nYmwxxarWAHBQkYuvWEKAHo5LZVUylOhnAj3CosumUSf7Rz7aA5DGv/GKskDD9tj/PtM3qxfcKSSo4G4O/eLHsgWhuCA54JNzOhYkVeqiPTetp8ZFWtQ/nF9vLpGsXbyXPbEFzvVYiFU9GD2e+XZOnUntySeXxERazJ86TpGXpnHwNeCeVS5C+8vWsb6itMZvfw8hY6tSxsB0kMDiJ7/NUMTfmXUDYlxT416mnn2xvmViqzw7Y8BSxzK68nq7sTu3Q9yL8mJYt2kWey+l6ulvu0Mtk9/mkCRKOpTKghY2dmhS0/juXYQyD0T25e3dlbiw20/0dyQyCMZQCY9NQ2DrT1GpxTByg47XTrX0mSojIJ+kPtMRhfe98rAolxNOk38hiU/5zBx1BqiS63DMEF6KunWVWk0bC5vi5t4+/dYDE6dscnJIL3g35bSSc+yxtbmuSajxCjXfyhan6Ljr9DiLA7F0acEKPtfxv6pRP+bA+V3g1w1h8yxqTyytafc7me9gZK9pCjr8zyCgxNO+mT+UrPipNC+ZleuSiXLhkza6MebT+4R9FiLQThYQhHL4Oowp/8qiHSHa7HmZqgQDEncNxqdyw/v80DnipO9AOkqNLbry+KDX+Ce13jnXP8v74z/iT/UFafy/Up2s5BJ8fuSMRkjmDxlDYc/ieXQrytYtSuSJFUFJlC++XA+nDyQtrXtEA0yuvI1sQgtThuaRdDS0byx1obytdwYMWM16x2mMm5tNLJjBcql3SM+9Uk5GLgfn1CydsFU/Cjpq2QHIAvh3G6EYaMw3EkxNuQSewrBYwFS2kYskgzPLVjKjd/HIAQhVJ+EVDUYXbzxOaO8/nmLwmJmHs+3D9nEhWxmQchWljftzwfzv+W/NT9l0IKTef38y48YZYVdlBW2dbPImJRGSlU7yv+sfofE0DmDx6IFusYZPK6vx+ZKceITyBTRPRTR+9hjUz2V5L7Z2IRaIZbLIn2YjNV3VoU/i1LeTPtjAcHSgOSRwWPBCgcfEcrJyJKQe9ytFNHLKVFciHWma5fq/BQTW3iwPQ5l274cVg5pj29iT/RHvyTiSazKKSSliLhVqYjIncLvN4X8iKPzB+PXeT5eb5zmjbmRDFm3ggqLxrDK1LS8lLFo44mHczte97rAp0a/9z73KquHDWPl/Y70bXODXfPP8EAC4k6z+scTDF7QD5fV5wkvhQGTKlKD2L8/DPnOMWKkSs9+r2+GZ087vOcN4dvgTECk5shVrPPsTsU9u8mdrmSTcj+euLyJn0VihupyUtJnRamUk0xWegYGW1uebIYUSlY065efYN/8qfQ8Ng+fJJmsmEvcqNoG14oCkfdyWwbLxq40fHyZnbckqJN3ryn98mEgO+Ump3Yd58bYzrRwFIg2+QBN6SDdjeGqxTS+mHGR5aO3cEUCm8Yu1Ll9lZsFpdXbY2+ZTmzhM7oSoar+P6UQfZKKjj9z5SuWPiVA0X+F+mWuf2oRUkWEVOC+JTZHskh6NRtprw5dXoaV7CVFUZ/nEKnSozfNE8JYne8cZeEIjkW3r+cS7vEgM5xNgyexrSzELk7/JRRyBDYfBgzKLhcfsQJVKlvwpPcXnCpTUUri4dMBsgLp/iwcOeTpsxJyTlqu1mpRul/JbjZZ3AnezILgrSx3HcG/Vv7EgkevMv1wgRexFFY+1l2YvXwiVj+8y1jva6RJIrXe3MhOl4IXFk1m8j3uJsPdOzdZvq0vJ8a44/xLNNeSHpJs0xgna/ImziLlHY3eZlksTMSPkr5K9ickeyPeHY2h4Tko+CqczBDE6HBI8UMwVMxvs3FH6lob0ettRMf55PQcjbhjI0KRlcUURbUPEol/HGDxrz0Y/FFb6ogniSx4yUuOcM0Sm/3ZZI7KQRIt0KvJv0M2GaMkrJY5YFU1nZS3MrFcYI1Ozb2CjOQqwW1d7vEsR4ns5gaEe2LuRKlpNtmv5JC1LBHjp4ySt2RhM7ccNq+Yab+jQ6fPIG2sHpt5uXmWnSWkeJ26/BcDESmG39cH4vze93z6WnNqOlWgcq2mdGpX12jgKPHX7p3Euk9mpoeE94E/n02aDLcJ8IvBZfw0hrg4YamzwL5qQ1yd1b76UKRS3VokXblGlq4eDavd5K/SGIWoJOvoLFq5utLYJfen+fv7eBi1nP6tBrPikoScfovYlHq496yLrQhYVaf7q+2xuXGFO8aVVXDC/aPFLBxar2xeCiAn4/v9ZKb/djnfhFXfrA+9rf3Ye/w2CQkJJCTc48IBb664edKjoroSAEzmX0mf0iLr5jXiXqlPvSdvECkUmZSTa1gT040Z77TEBpCuerEr0pVJc4fRrJI95Wp15YNpryF57yLIuHaZ0K8gOrsadBrqSYP7l7lkfObWhD5m8ziMg8fukR0TRPB9PQ613Jk6tRfxh49xrUBGdbUbUEe6ztU7RXlQTFTV/2cU1Ed1/JVUv2LoUyIU/C9z/5TQSWS3z0GqKCNbyMjVsnncKwfhhi53pUvJbi4K+jxDwMKhBm6D5rBiRiOCVm4kwniR2IQ+Su2r4Z4Pu0Pq8+aMgbg4WQAiVk71aO9WmyKbCrWo7L+yHiSQWqM17WtaASKW1pYq+7c8TPivCqEcPSeMpZmDCFY1GTDhVcoH+XLW+JGGotKXH5MUH09c3k/8g9TnjykVhdL9SnazEKneohNNKlkjIpFy+ypxaTqsLPNPS0yWj4UjFexSuXvjPumSDrs6Hkx8I+9NksaY0k9fh44erWnwiiO2VtY41unKW0Na8ujyn8RJIF3xx+9uO8ZMaIWjDiyqduWtIS48d0LVVPpqUNJXyf6UFMTwo8iNuj3/XAIpiP4foo/4q8Dv7TF0+Rj5xkp0cY8RLq1Clz0CqWWtAtcpYaJ9ECvTsntHmlR3xEYnYlWpBSPfaEPO1b/yj69eVgQDOa1zkCrnHnuSHXPI7JEDt1W2v4JM9qh0siNtsL4iIAbZYJOZSXofNTcDyEjtMkj9LpnUfjlkjUsnK9Ea+80WufEfbEeFERVwGp73860lwhUbyo8ph831UrBn6bEMESFWj0WijFw1m4wRWYhBFmYvlBVEBANxBz7jH9+cp+6kVXid8Mdn50pmeDjn6wwM8d5sv9AAt1RvvPKNEiT+2jCLTw5ZM3bVIc6GBeHz278Z29xeZWOuo079V4i9chu5cn3qplzhasE3GfwveRzC0mk/k/Taao4HBnHGZwNT7Pbz8ed7iDMuDNEO55Yd6NCoUvEboxJjQfM+PbE57UOY0Xk0w21/fK63ol+PSirLALPyr2s+hY1797FnXjfsXd7mP3v3sfe7QRh92kUR6UowwaltcG+t8C4bwx32/LCVrGGzGF1PB4ZbbJsziz0WY1h75BSnfv+c1pcX8cHS0HwrAUWT90zGxSgiT+5gvttlFk3/kXPGgy0z9CmaVE4tnsGSWHdWHQ/m9I7PcD33FZ/899pzW/E1O3ei2oUginoHQfFRU/9N6VOM+Cuxfmr1KSlF+f8i/FNAAKlzBqnfJ5P4WxJJ/8og57YN9hvzOiMlu9kUpU8e+nb80+c85/23891wJwI+f5PZXnH5dylM6aPUvhri2fvpVDZkvMai3ScJPxvIia3/Znwrp+dX0UuEuv4r+8wvfLXPgje3BBAWcpLD/+yOgwA655GsPHCMU4fm0cmmOdN3nsBv/xKGF/wioCn/1ZAdxH+9KzN7ux+hJ7fxnsN+Zn99iAfG2wolTl9Howk/cvD4Yb7sbkOTKZvwPbKL+b3ULjaWNQLlmo/mu+3HOXPmDCFeC2gS9g1Ljybl21UxVT6k+rF29U16rvYlLNiH7XMac8YrOP/ziGBaP8GW+v1m8uNuH86GheC3aTZuV1bwwXcBuXsTORdZ+8kSrnVdwrHgIHzXDub23kPkbfI/w0T6quOntIjfhS6+GBFS4x2k+n+hCwzO/bd8G9F/J3K76RjKqcxjke2DJTV7vs8Pv3kTFB5B6MElvPZ4K9O/KhDfLzGGthmkLkwmaXMiScvSyMq0wv4XS0QV+ZcbPya9rR7bHXlHxgwiVpuskN9IJ9PUARBjZBHL9Q6Un+yIwyE9lqvK4fCLFfp8D/GWJQIWm+2wjc8mdXUSSd+mI122xd67GDGmEqF+I6Ov0RSFUJE3Vu6kv99Ipuy6V7IzmRoaJtHR6N2t/Np0E29M83phx2v+Nlg2Y8aOZVRePpjP/P5e30DQ0NDQ0NDQKDsMrTKR7lphEV/Q8v8HKqfGAo4dJjOx8Ul+O6JNVDTKAonLm/7N7moT+aDjy7Kq97Kgp+7IGXheXcpyf22ioqGhoaGhofEM8dz/vxMVULGzoqszjrX/mYKrFMOur2az9GRC0Q8hamhoaGhoaGhoaGholAKKkxUNDQ0NDQ0NDQ0NDY3/BSqPgWloaGhoaGhoaGhoaLxYtMmKhoaGhoaGhoaGhsZLiTZZ0dDQ0NDQ0NDQ0NB4KdEmKxoaGhoaGhoaGhoaLyXaZEVDQ0OjzBGwbz6BZbv8CAsP41zQfj7taPwBVCW7xv9JLDrz1Yl9THct/Y+saWhoaPxdyJusWFKr51SWbT9KaHgE504fY++aybSxzX9xWSJUeIM1++fQWq+j8Qfb+GVE5Rf/rQ3LpnzwezgXf59MfaO+wcq5L5+s3cepkDOEnTrAL7M8qGnxzF6WWHou4fzF8+x5t0Hul28FBwYsC+HPyD181Ngok/rmzD54gfDVA3EyEk6oMpINZzcwzuhz8hadF3Dy+Ge01z+7ThUm9EEsRyPP91i6+zQXdhSwFQfrFny8Yy9fdi1n9GXwqoxZf45L0VH8GXWO8ID9rP9iKE3tnjkpVurE+yt2czrsHOcDvdk473Ua5I3zFPV7mv5F/rx4gcgQH3avmoZHrRdUwIBQoS2Tl+/hdNh5LgR7s36OJ/n/vA7nsb9weNnrVC+T5YUi6r9afUzEX2mgrI+5FOH/E8z1T6jMax9/SIOzc+nTrg1u3UezPOyxsl1woOmgWazecYzQiHOcP32Q9Z/2w7kw/03VT7MxrY9QZSQbzl3k0sUoosNP47N9ObNea4RR9VSPifyXffkro3P5iH3bSlvXlwEdjd5cg7fPScIvRBEdHkjAkd0s6P33+tZVmZWPivr3vxwfKGI/lJxpZ8ga1P/Z97mqTyf7ndnIItDwG7JmBpPdsV6e0QHDQH+ypm9DqqwD+37kTNmBVP3JwomI3HQR2RM+QNaTr3+4dDGS6PBTHN38DW+6lf9bxY/Gy48IAk49v2DDv7vxcPMMXu/Wma6DJvPlryeIySh4edlh1bIt9aJD+cNQidatZMIjHr7gj9/paTh+Lq9a7OHXAAAgAElEQVTKV0k0/sN6V9794TOaR3zJoC4d6DT0Oy63X8AP/2iYO/gtc2Sybt/BoXOX3IGqdVu6uaURl5D/azd6lz704Ap3WnjSrUJZNBMm9EFHo8lrWDO+KtGnokg1NhULHfXHzmH4vfWsPJ1SoOyzCVnYG5cWHej11gqut/6MxZNccvUXazLy2yUMM/zO1AHd6T5yIeFN5rB6Rjtyx5pq9MvE55P2NGnmRvv+H/K7YSDfzu1fskFpcRHK0XvOIkbLW5jk0YEuE/ZiM+Ybvh9f1yi+JG7s+IHDztOZ0duxlDsBNfVfWZ8yiz9V+piDGv9LwT/RiSqVJC6FRvBQAjkrjfRsdXYbu3ROLZuMZ8d2dBm3hoSeC/h8YMHFHFP101xU6JMTyle9W9LCfQgfb7pF67m/snKUczHLx0T+y7z81WFZoxZVy2ShQA0ycqmWqTESlze+R//efZnvn8Gfa8fTs+8QFvj8vT4+W5blU2T9+5+PD1SQeR2h8ggMFQsTSIbku+DcCVkALNwwVE9DSM/rH1OPoguKw9BtRO7kxqojUud6iH7rEXKepJFNyMJeNHVtQcvuo5gfXIOpiz+kg9UTu4aG+Yjo6jDsXU8SfpnD1weiiEvNIDXhGhGhl0mWQd9sGl6+X9Hd7tlNugZT2B24kkFPRiu6KnSZ8j3bjpzm/IUIzvps4Z8elVWdMdO3eI/NXl54f92fql0+Yc/BrcxsW5cRy/ewYbLrC6vwOueRzBscx9otl/INAnR13OleJZD1G8J5kCOTFX+KFT8cpWL/V2linDmxJqPXncT3i86U7uENAW6fJ7JKV7pWFrFq5U6bm2FcyDK+Ro9rn56IJ1ay+WIL+narUPwBrUL+TekDEpfXvYnn+AVsinioqswLRd+c4cOqEbDjKAmmeklDJklXT3AgKIFqtWugB3R1BzC8ZTTrvtlORFwySbGBrFl+EH3/oXSyBXX65SFLZDyIxut4NLqqr+Bk7IyCPiXGuj39usazZdluohNlavfxoE6mRLO+vahtHF/Zf7Br7226j/SkSolFLgSF+p8Pk/qoiL+S6qdWn5Kiyv+S+ye+MojF+44Q4L+JSQ3seXVpCJHnIjjv+zmdLZTtyI8I3/IjWwOvkZiZTeq14xyPhGo1KuWra6brp5mo0gdAJictnqiDi/l4UTguk94i3yk2E/o8wWT+y7r8ocj+S9fsXX7zOU3g4r44ukxlX1gEkefOsv+jvL5J344ZO45wKjiMiyf/xdB+n7L1yAkCTx/hq242z/6Ggv9KVOk+mw0H/Qk9c5JDP32Ee5UCzpuZ/suMUL41E5fswC/oDOFnTuO3cxHD6ub6r1g+CDh1epeV248QEnqWiBBfdi2egJtDgVpiSj+F+mf2+EBt/JiDeB0xSsLg1q6gBRAgJRLBvhOynQjVuyAnnkOQntgNCFFLEA3DkVxqI7ebinxrObrYdONE8pDJfnSLkP1+XCnvTO0Sba9qaBSOKNi3oHW9m/gH3ORpfBqRE72THbe6M6K3U14noqOehwdVT+3D76EM6HAe8z3Lh1tycO5QOrXthMfEReyKfKjqS/c5F9Yw7vWxrIy4wW8fDGDArH3cOrOEYQMG8tbPFwvNU6kj1mDop2NIXbeUY0lC/gG3KCBIOeQYOZOdkkxGdWdqGh+jklO5cS6YoOh7GC+YlgaCcJnA0Jq4d6xIM/f2xAeEkmxh1BDoXfHsqSPA5zS+vn/SyrNb8XcFisp/UfoASDm55SSIz9tUoqvfmY6OEQSEFbGdJ1pRoaEnw9ztCA+KIhuwatQU5/iLRBntlGRdiuKydSOa1srrrpT0e4qAZYUmvO7ZhNuBIcQaB19R+piBrlpdnKW/+PO2hEXDcfxzyH0WT/qB0BoNyOuP8zBwJyiQ2806l+rxTKX6nx8T+qiJvxLqp16fkqHKfzP8M8TtY9agvnTrPoFfYh7hPb0DzVu50bLXQgKzle350eHYfAwjWt/FN+Dqs/wq1U8zUKVPPmQSAvyILNcSN2ejAjKhD1Bk/su6/JX6LynqJ8b27kLXef5k/LGKQW3caN6qLQNX5PVNOaEsHdEX9/7fEGzfnxkjU1k8oheduw1kYaBRW1aU/0ro6tGnYyI/jOlF+27j+Dl9IN9/3p9KxjFoTvovNSLVB03j/YoHebtnB1p36MHgmT/ifys3GhXLB5nkuxfwXvwOHp3a0rbfdHyqvscX4wvsfKjSr5D6Z+74QG38mINohXB5O0KdURjsC2sdYhBja2Co7YRctw1cO0u+Smi4gc5vD3LnNeQ0vY7u1CkjozE6rJ0a0mf8ABrcDOf8c6tdGholRy84lKe8kExisompheE2B7aHMXnka9T02kSsUI8+HhXwXXaaFACxGj36uhKz+Q1+i4jDAKRfP0dSgWSKRNcQlzo3uXBNxr53A/QxJ0h6YXEuUnXAJ0wUNzHRKx6De36rdD2EkLTFjBrSiPAdl8lycmPcu69RSx+N3rhCy0kErp5NoNGvSg0hiwj/CCYNGMurdVIImHuXmmOfmfWuHvSyCOCLyEwSbvty6WNPejjtY9eDPBH1bszce5IPnxSx3gb7Rzuf3g8Ukf+i9cmHIJR4VdfCuR417sZw1egY/zMs6PC5L398DnLODQ59PYWZO+9gQMDGzhYxPZU048sz00mTbLG3zcuNgn5gRe9FZ7i0CJCzuR/6Hz7ZcIFM40tM6mMmNrbYPE4nQ1eXMfPGkLbuLfZcaUkvC1ts9YDRDpB08wrXBQ/qVtfBZXVDRyUU6z+gpI9i/EHJ9SuGPiVBjf9l6p8qLOnx5SG+6+eIvXCXo8tm89O5J+oXo36WADX6FEROTyFZssPeeGXVpD4K+S/j8i+V/usp6fivX0dYsgHILL32Q07Gd8NGzidLwA32r/dmyi89aGNzgCNPFrjNSf+lRuZRbCyPanemf6cANvlfI+nG9YIXFYl0PZBD1/P+kRjJ/uMxjG9aHR2Xn03Ai9TPdP0r3fFBEfFjFiI89kf31zvktGiAeL2AWchCuHYBuclIDBUeIR6KQ3YrcE3CccTUdzAkHkZMKzg4y+uf58nkZCRwLfwQ82f+yqXS6aI0NADQy2mppFKeCuVEuFdYdMkk+mzn2EdzGNL4N1ZJHnjYHuPfZ/Jm/YIjlRwNxN25r2onJR+CA54LNjGjY0VeqSLSe9t+ZlSsQfnH9fHqGsXayXPZE1/sVIuFUNGD2e+VZ+vUndySwLLgBVkRrJi+mrmfLsX7A3ty4iP4/WAQdxplcM/0EkzpIkB6aADR879maMKvjLohMe6pUU8zz944v1KRFb79MWCJQ3k9Wd2d2L37Qe4lOVGsmzSL3fdytdS3ncH26U8TKBJFfUoFASs7O3TpaTzXDgK5Z2L78tbOSny47SeaGxJ5JAPIpKemYbC1x+iUIljZYadL51qaDJVR0A9yn8nowvteGViUq0mnid+w5OccJo5aQ/TTc7llRHoq6dZVaTRsLm+Lm3j791gMTp2xyckgveDfltJJz7LG1qakU8LnUa7/ULQ+RcdfocVZHIqjTwlQ9r+M/VNFFkFLR/PGWhvK13JjxIzVrHeYyri10eSUcf1U1ud5BAcnnPTJ/KVixUmxfSnj8jer/yqIdIdrsWXQKRiSuH//Wbryw/s80LniZC9AurLG2PVl8cEvcM8TN+f6f3ln/E/8oa44le9XspuFTIrfl4zJGMHkKWs4/Eksh35dwapdkSSpKjCB8s2H8+HkgbStbYdokNGVr4lFaHHaUNP1L7s0xwem4kdJXyU7AFkI53YjDBuF4U6KsSGX2FMIHguQ0jZikWQosIsqIjd+H4MQhFB9ElLVYHTxxqsEef3zlvjC65BS/pTsGhqAXk6J4kKsM127VOenmNjCg+1xKNv25bBySHt8E3uiP/olEU9iVU4hKUXErUpFRO4Ufr8p5EccnT8Yv87z8XrjNG/MjWTIuhVUWDSGVS9oWm7RxhMP53a87nWBT41+733uVVYPG8aKSxLpl3bxxVu78ix6Gr+/lXHn1/JHaXSWakkNYv/+MOQ7x4iRKj37vb4Znj3t8J43hG+DMwGRmiNXsc6zOxX37CZ3upJNyv144vImfhaJGarLSY0+5iOTlZ6BwdaWJ5shhZIVzfrlJ9g3fyo9j83DJ0kmK+YSN6q2wbWiQOS93I7bsrErDR9fZuctCerk3WtKv3wYyE65yaldx7kxtjMtHAWiTT5AUzpId2O4ajGNL2ZcZPnoLVyRwKaxC3VuX+VmQWn19thbphNb+IyuRKiq/08pRJ+kouPPXPmKpU8JUPRfoX6Z659aMpPvcTcZ7t65yfJtfTkxxh3nX6K5Wcb1U1Gf5xCp0qM3zRPCWJ3vHGXhKLYvN8q2/IvVfwlKR+wMGEojTwURK1ClsgXkDSEFp8pUlJJ4mKoy+NL9WThyyNNnJeScNB4UJ59K9yvZzSaLO8GbWRC8leWuI/jXyp9Y8OhVph8u8CKWwsrHuguzl0/E6od3Get9jTRJpNabG9npUvDCojFV/2IkuRTHBybiR0lfJfsTkr0R747G0PAcFHwVTmYIYnQ4pPghGCrmt9m4I3Wtjej1NqLjfHJ6jkbcsRGhyMpihFL+lOwaGoCIFMPv6wNxfu97Pn2tOTWdKlC5VlM6tatrNHCU+Gv3TmLdJzPTQ8L7wJ/PZt6G2wT4xeAyfhpDXJyw1FlgX7Uhrs5qX30oUqluLZKuXCNLV4+G1W7yV6n0QurIOjqLVq6uNHbJ/Wn+/j4eRi2nf6vBzzp6nR69AKJNVVoN+YJFox6z/hf//NVdcML9o8UsHFqvbF4KICfj+/1kpv9mtHUN6Jv1obe1H3uP3yYhIYGEhHtcOODNFTdPelRUVwKAyfyr0qcUyLp5jbhX6lOvyDeIyKScXMOamG7MeKclNoB01Ytdka5MmjuMZpXsKVerKx9Mew3JexdBxs8AmtCvIDq7GnQa6kmD+5e5ZHzm1oQ+ZvM4jIPH7pEdE0TwfT0OtdyZOrUX8YePca1ARnW1G1BHus7VO0V5UExU1f9nFNRHdfyVVL9i6FMiFPwvc/+U0Neho0drGrziiK2VNY51uvLWkJY8uvwncdILqJ8K+jxDwMKhBm6D5rBiRiOCVm4kwniR2IQ+ivkv6/JX2X9lPUggtUZr2te0AkQsrS1V9m95mPBfFUI5ek4YSzMHEaxqMmDCq5QP8uWs8SMNRaUvPyYpPp64vJ/4B6kUaxytdL+S3SxEqrfoRJNK1ohIpNy+SlyaDivL/NMSk+Vj4UgFu1Tu3rhPuqTDro4HE9/Ie5OkMab0U6h/QNmPD5T0VbI/JQUx/Chyo265b/4qaPP/EH3EXwV+b4+hy8fIN1aii3uMcGkVuuwRSC1rFbiuCJTyp2TX0ABEMBB34DP+8c156k5ahdcJf3x2rmSGhzPG40ZDvDfbLzTALdUbr3y9hMRfG2bxySFrxq46xNmwIHx++zdjm9urbMx11Kn/CrFXbiNXrk/dlCtcNfcccilj0fmfnAgLJ8J/OwtfzWbrB1P5z+UC27WiHc4tO9ChUaXiN0YlxoLmfXpic9oH4082GG7743O9Ff16VFJZBpiVf13zKWzcu48987ph7/I2/9m7j73fDcLo0y6KSFeCCU5tg3trhXfZGO6w54etZA2bxeh6OjDcYtucWeyxGMPaI6c49fvntL68iA+WhlLY+0oKJ++ZjItRRJ7cwXy3yyya/iPnjIvYDH2KJpVTi2ewJNadVceDOb3jM1zPfcUn/7323FZ8zc6dqHYhiKLeQVB81NR/U/oUI/5KrJ9afUpKUf6/CP8UEGyp328mP+724WxYCH6bZuN2ZQUffBdQcG20jChKnzz07finz3nO+2/nu+FOBHz+JrO9cp//eEqJ9Snr8lfXf2Wf+YWv9lnw5pYAwkJOcvif3XEQQOc8kpUHjnHq0Dw62TRn+s4T+O1fwvBaBRq/EvsPZAfxX+/KzN7uR+jJbbznsJ/ZXx/C+JGpkqevo9GEHzl4/DBfdrehyZRN+B7ZxfxeahcbyxqBcs1H893245w5c4YQrwU0CfuGpUeT8u2qmCofUv1Yu/omPVf7Ehbsw/Y5jTnjFfz88yCm9FNR/8wZH6iOn9Iifhe6+GJESI13kOr/hS4wOPff8m1E/53I7aZjKFdGedTQKAShfqPG6vaShYq8sXIn/f1GMmXXvRd0Vlvj/w46Gr27lV+bbuKNaV4v7HjN3wbLZszYsYzKywfzmd/f6xsIGhoaGhoaGholReXUWMCxw2QmNj7Jb0e0iYpGWSBxedO/2V1tIh90fFlW9V4W9NQdOQPPq0tZ7q9NVDQ0NDQ0NDT+76C4s6KrM461/5mCqxTDrq9ms/RkQtEPIWpoaGhoaGhoaGhoaJQCipMVDQ0NDQ0NDQ0NDQ2N/wUqj4FpaGhoaGhoaGhoaGi8WLTJioaGhoaGhoaGhobGS4k2WdHQ0NDQ0NDQ0NDQeCnRJisaGhoaGhoaGhoaGi8l2mRFQ0NDo8wRsG8+gWW7/AgLD+Nc0H4+7Wj8AVQlu8b/SSw689WJfUx3LcaH/DQ0NDT+PyNvsmJJrZ5TWbb9KKHhEZw7fYy9aybTxjb/xWWJUOEN1uyfQ2u9jsYfbOOXEZVf0Lc2RGqM30RU9EUuPfmJPMa8tvqnVwgV2jJ5+R5Oh53nQrA36+d4UsvCKIkyxNJzCecvnmfPuw1yv3wrODBgWQh/Ru7ho8ZGHZi+ObMPXiB89UCcjIQTqoxkw9kNjDP6nLxF5wWcPP4Z7Z+5qA7LpnzwezgXf59MfeO+UyxHI8/3WLr7NBd2FLAVB+sWfLxjL192LWf0ZfCqjFl/jkvRUfwZdY7wgP2s/2IoTe2eOSlW6sT7K3ZzOuwc5wO92TjvdRrkjfMU9Xua/kX+vHiByBAfdq+ahseLKmDUxJcO57G/cHjZ61Qvk+WFIuq/Wn1MxF9poKyPuRTh/xPM9U+ozGsff0iDs3Pp064Nbt1HszzssbJdcKDpoFms3nGM0IhznD99kPWf9sP5qf/K7Zf5mNZHqDKSDecuculiFNHhp/HZvpxZrzXCqHqqx1T78gQlexmic/mIfdte/N8te3Q0enMN3j4nCb8QRXR4IAFHdrOg99/rW1dlVj6K9Q+snPvyydp9nAo5Q9ipA/wyy4Oapdo+mYH9UHKmnSFrUP9n3+eqPp3sd2Yji0DDb8iaGUx2x3p5RgcMA/3Jmr4NqbIO7PuRM2UHUvUnCycictNFZE/4AFlPvv7h0sVIosNPcXTzN7zpVv5vFT8aLz8iCDj1/IIN/+7Gw80zeL1bZ7oOmsyXv54gJqPg5WWHVcu21IsO5Q9DJVq3kgmPePiCPn4n4FTZkdsbJ9CyeQtcmrfApVU/vjmbk2cuR+85ixgtb2GSRwe6TNiLzZhv+H583dzBb5kjk3X7Dg6du+QOVK3b0s0tjbiE/F+70bv0oQdXuNPCk24VyqKZ0NNw/Fxela+SmK9gdDSavIY146sSfSqKVGNTsdBRf+wcht9bz8rTKQXKPpuQhb1xadGBXm+t4Hrrz1g8ySVXf7EmI79dwjDD70wd0J3uIxcS3mQOq2e0I3esqUa/THw+aU+TZm607/8hvxsG8u3c/iUblBYXVfElcWPHDxx2ns6M3o6l3Amoqf/K+pRZ/KnSxxzU+F8K/olOVKkkcSk0gocSyFlppGers9vYpXNq2WQ8O7ajy7g1JPRcwOcDnyzmKLRfZqNCn5xQvurdkhbuQ/h40y1az/2VlaOci1k+ptqXJyjZyxbLGrWoWiYLBWqQkcvMZ4nLG9+jf+++zPfP4M+14+nZdwgLfP5eH58ty/Ipsv7pXXn3h89oHvElg7p0oNPQ77jcfgE//KNhMeO/DMm8jlB5BIaKhQkkQ/JdcO6ELAAWbhiqpyGk5/WPqUfRBcVh6DYid3Jj1RGpcz1Ev/UIT5uYbEIW9qKpawtadh/F/OAaTF38IR2sntg1NMxHRFeHYe96kvDLHL4+EEVcagapCdeICL1Msgz6ZtPw8v2K7nbPbtI1mMLuwJUMejJa0VWhy5Tv2XbkNOcvRHDWZwv/9Kis6oyZvsV7bPbywvvr/lTt8gl7Dm5lZtu6jFi+hw2TXV9AhddRsZIj927fJUuSkPJ+ng5lrdvTr2s8W5btJjpRpnYfD+pkSjTr24va+XYXajJ63Ul8v+hM6R7eEOD2eSKrdKVrZRGrVu60uRnGhSzja/S49umJeGIlmy+2oG+3CsUf0CrkX+c8knmD41i75VKBtCUur3sTz/EL2BTxUFWZF4q+OcOHVSNgx1ESTPWShkySrp7gQFAC1WrXQA/o6g5geMto1n2znYi4ZJJiA1mz/CD6/kPpZAvq9MtDlsh4EI3X8Wh0VV/BydgZBX1KjNr4yv6DXXtv032kJ1VKLHIhKNT/fJjUR0X8lVQ/tfqUFFX+l9w/8ZVBLN53hAD/TUxqYM+rS0OIPBfBed/P6WyhbEd+RPiWH9kaeI3EzGxSrx3neCRUq1Epr64ptF/mokofAJmctHiiDi7m40XhuEx6i3yn2Ezo8wTT7UsuSnazKKL/0jV7l998ThO4uC+OLlPZFxZB5Lmz7P8or2/St2PGjiOcCg7j4sl/MbTfp2w9coLA00f4qpvNs7+h4L8SVbrPZsNBf0LPnOTQTx/hXqVA8JuZ/suMUL41E5fswC/oDOFnTuO3cxHD6ub6r1g+CDh1epeV248QEnqWiBBfdi2egJtDgSgypZ9C/dPVcad7lUDWbwjnQY5MVvwpVvxwlIr9X6WJmvGB2vgxB/E6YpSEwa1dQQsgQEokgn0nZDsRqndBTjyHID2xGxCiliAahiO51EZuNxX51nJ0senGieQhk/3oFiH7/bhS3pnaJdpe1dAoHFGwb0HrejfxD7jJ0/g0Iid6JztudWdEb6e8TkJHPQ8Pqp7ah99DGdDhPOZ7lg+35ODcoXRq2wmPiYvYFflQVYeZc2EN414fy8qIG/z2wQAGzNrHrTNLGDZgIG/9fLHQPJUuVjjY29B86naCQ4IJPLyZRf9oR6W8gZiuWl2cpb/487aERcNx/HPIfRZP+oHQGg3Iay9zkVO5cS6YoOh7GC+YlgaCcJnA0Jq4d6xIM/f2xAeEkmxh1BDoXfHsqSPA5zS+vn/SyrNb8XcFisq/WIOhn44hdd1SjiUJz09IpJzcchLE520q0dXvTEfHCALCitjOE62o0NCTYe52hAdFkQ1YNWqKc/xFoox2SrIuRXHZuhFNa+V1V0r6PUXAskITXvdswu3AEGKNg68ofcxAdXxh4E5QILebdS7V45lK9T8/JvRRE38l1E+9PiVDlf9m+GeI28esQX3p1n0Cv8Q8wnt6B5q3cqNlr4UEZivb86PDsfkYRrS+i2/A1bz8Ft1+mYsqffIhkxDgR2S5lrg5GxWQCX0A5fZFyW4WRfdfUtRPjO3dha7z/Mn4YxWD2rjRvFVbBq7I65tyQlk6oi/u/b8h2L4/M0amsnhELzp3G8jCQKO2rCj/ldDVo0/HRH4Y04v23cbxc/pAvv+8P5WMY9Cc9F9qRKoPmsb7FQ/yds8OtO7Qg8Ezf8T/Vm40KpYPMsl3L+C9+B08OrWlbb/p+FR9jy/GF9j5UKVfIfVPFBCkHHKMBjvZKclkVHempvFJTFPpq40fcxCtEC5vR6gzCoN9YbUnBjG2BobaTsh128C1s+SrZIYb6Pz2IHdeQ07T6+hOnTIyGqPD2qkhfcYPoMHNcM4/t9qloVFy9IJDecoLySQmm5haGG5zYHsYk0e+Rk2vTcQK9ejjUQHfZadJARCr0aOvKzGb3+C3iDgMQPr1cyQVSKZIdA1xqXOTC9dk7Hs3QB9zgqQXFueP8JrjSaCQwsMMC6q0GcPCJSv4/vFwJm69BTa22DxOJ0NXlzHzxpC27i32XGlJLwtbbPXAkxV6OYnA1bMJNE66tBCyiPCPYNKAsbxaJ4WAuXepOfaZWe/qQS+LAL6IzCThti+XPvakh9M+dj3IE1Hvxsy9J/nwSRHrbbB/tPPp/UAR+RepOuATJoqbmOgVj8G9oN0IQSjxqqeFcz1q3I3hqtEx/mdY0OFzX/74HOScGxz6egozd97BgICNnS1ieippxpdnppMm2WJvm5cbBf3Ait6LznBpESBncz/0P3yy4QKZxpeY1MdM1MYXIN28wnXBg7rVdXBZ3dBRCcX6Dyjpoxh/UHL9iqFPSVDjf5n6pwpLenx5iO/6OWIv3OXostn8dO6J+kW3X6a9UocafQoip6eQLNlhb7yyalIfpfZFyW4mpdF/PSUd//XrCEs2AJml137Iyfhu2Mj5ZAm4wf713kz5pQdtbA5w5MkCtznpv9TIPIqN5VHtzvTvFMAm/2sk3bhe8KIika4Hcuh63j8SI9l/PIbxTauj4/KzCXiR+pmuf9L1EELSFjNqSCPCd1wmy8mNce++Ri19NHrjAX+R6T+hiPgxCxEe+6P76x1yWjRAvF7ALGQhXLuA3GQkhgqPEA/FIbsVuCbhOGLqOxgSDyOmFRyc5fXP82RyMhK4Fn6I+TN/5VLpdFEaGgCIcloqqZSnQrnCZtwAMok+2zlWdTBDGuvQ1ffAw/YY+87kzfoFRyo5Goi7c7/4HaPggOeXezh8cCnDa7Rh+rb97J3bleoDvsFr3yIGl9Uh1ALIGYk8SJeQ5cfEn93Ist33cevZEUcBSE8l3bocjYbN5W1xE//+PRaDjR02ORmkl9axcCUESA8NILrteIZymhM3jFsBPc08e+P8ymBW+AZwcuc0WpdvT9/uT3bCgJwo1k0axqDBQxg0eAhDvzymejIoVPRg9nvl2frtTvIWs8oAASs7O3TpaTzXDgJPz8S2GsGaGAccDIk8kgFk0lPTMNjaY3RKEazssNOl8+hJYkXqB0+eyWjs0pxmnQby2fmOLPl5Ci6l+YyyKYoTX2XECXcAACAASURBVFI66VnW2NqUdEr4PMr1H4rWR0X8mUNx9CkByv6XsX+qyCJo6WjeGDyEoR/+QuKg1ayf4sKTZ3iLbL/MRFmf5xEcnHDSJ5OoopFRal+U7GZjTv9VEOkO12JNr8uXGEMS9+8/S1d+eJ8HOkec7FUWsF1fFp84TUhg7s/pLe/StDi7kkr3K9nNQibF70vGfHaSyhPWcPjgOj4f3hxH1eEoUL75CD5fuZm9+/awf89O1r7ZGAtBpXZAkfUvK4IV01eT0G8p3v4nOPzTBKzCg7hzP457xQ0FU/GjpK+SHYAshHO7EZqOwmBZSL2MPYVQcwwSQYhJBWuCiNz4fQxCEEL1SUhVLQvYnzyz0gzXtj14bfJ3HLxmNNVSyp+SXUMD0MspUVyIdaZrl+r8FBNbeIP9OJRt+3JYOaQ9vok90R/9koinOwopJKWIuFWpiMidwu83hfyIo/MH49d5Pl5vnOaNuZEMWbeCCovGsOp/OC2XciTknGwkQLobw1WLaXwx4yLLR2/higQ2jV2oc/sqN19kFlOD2L8/DPnOMWKkSs9+r2+GZ087vOcN4dvgTECk5shVrPPsTsU9u3kAQDYp9+OJi88tHYvEDNXlZNHGEw/ndrzudYFPjX7vfe5VVg8bxopSKSeZrPQMDLa2PNkMKZSsaNYvP8G++VPpeWwePkkyWTGXuFG1Da4VBSLv5TbClo1dafj4MjtvSVAn715T+uXDQHbKTU7tOs6NsZ1p4SgQbfIBmtKhWPGlt8feMp3Ywmd0JUJV/X9KIfokFR1/5spXLH1KgKL/CvXLXP/Ukpl8j7vJcPfOTZZv68uJMe44/xJNTCEaGLdf5qKoz3OIVOnRm+YJYazOd46ycJTal5+ci7ab3f4Up/8SlI6gGTCYmZ1CEStQpbIF5JWo4FSZilISD1NVBl+6PwtHDnn6rISck8aD4uRT6X4lu9lkcSd4MwuCt7LcdQT/WvkTCx69yvTDBV7EUlj5WHdh9vKJWP3wLmO9r5EmidR6cyM7XQpeWDSm659M+qVdfPHWrrwr9TR+fyvjzq/lj2IvppiIHyV9lexPSPZGvDsaQ8NzUPBVOJkhiNHhkOKHYKiY32bjjtS1NqLX24iO88npORpxx0aEIiuLEUr5U7JraAAiUgy/rw/E+b3v+fS15tR0qkDlWk3p1K6u0cBR4q/dO4l1n8xMDwnvA38+6wgNtwnwi8Fl/DSGuDhhqbPAvmpDXJ3VvvpQpFLdWiRduUaWrh4Nq93kr9IYhahF50yX/p1o9Ep5bKzL49zxTaYNrUTw0eDc1fvHYRw8do/smCCC7+txqOXO1Km9iD98jGvG2RSccP9oMQuH1iublwLIyfh+P5npvxltXQP6Zn3obe3H3uO3SUhIICHhHhcOeHPFzZMeFdWVAGAy/1lHZ9HK1ZXGLrk/zd/fx8Oo5fRvNdj8gYIRWTevEfdKfeoV+QYRmZSTa1gT040Z77TEBpCuerEr0pVJc4fRrJI95Wp15YNpryF57yLI+BlAE/oVRGdXg05DPWlw/zKXjM/cmtDHbNTGF6Cr3YA60nWu3inKg2Kiqv4/o6A+quOvpPoVQ58SoeB/mfunhL4OHT1a0+AVR2ytrHGs05W3hrTk0eU/iZNQbr/MRUGfZwhYONTAbdAcVsxoRNDKjUQYLxKb0EepfVGym43K/ivrQQKpNVrTvqYVIGJpbamyf8vDhP+qEMrRc8JYmjmIYFWTARNepXyQL2eNH2koKn35MUnx8cTl/cQ/SKVY42il+5XsZiFSvUUnmlSyRkQi5fZV4tJ0WFnmn5aYLB8LRyrYpXL3xn3SJR12dTyY+EbemySNMaWfUv0D0OnRCyDaVKXVkC9YNOox63/xzz8dMJW+GpT0VbI/JQUx/Chyo265b/4qaPP/EH3EXwV+b4+hy8fIN1aii3uMcGkVuuwRSC1rFbiuCJTyp2TX0ABEMBB34DP+8c156k5ahdcJf3x2rmSGhzPG40ZDvDfbLzTALdUbr3yjBIm/Nszik0PW/4+9846Polr//3tmNj2BJDSpoZdAgNB7jQGDgnSlqkjxgkoR5SsoIHi9IiAdFZRyUYq00FsSEkgnCQSIgiC9SUgjPbs7vz+SkM0mW5JNuPhz3q/XviD7nDkzz+ec85wyZ3YYveYo56JC8fv534z2cDQzmEvUbfASd67fQ67SgHop1/nTwn3oJUPkpZ4fsHb3SSIiA/h1QU8SfpzGHN9HeatsqZxdOpNld7qz5lQYwbs+pfn5RXz83xuFB72iA26tOtKxceWSB6NSY4XHy72xC/ZD95UN2nuB+N1sTf9elc0sAyy6fsljMlv2+7Jvbg8c3d/hx/2+7P96EDqvdjGJ5noYYalt6d7GxG/ZaO+z79vtZA/7iDfrS6C9y45PPmKf1Si+P36Ws7/Oo83VJUxdHklxv1dSPHnPZFy+xMUzu5jveZUlM9ZxXnewZYE+xjGzfiFSq0tnqseGYuw3CEqOOe3fkD4lqH+l1s9cfUqLMf+fh38mEOxp0H8W6/b6cS4qnICts/G8voqpXwflDYZMxS9LMaZPHqr2fOZ3gQuBO/l6uCtB88Yz+1Du8x/PKC99LMa8/isnYiOLfK0Y/0sQUeFnOPZZT5wEkNxGsvrgSc4enUtnOw9m7D5NwIFlDK+tF/ws8T8nlP8eqcLsnQFEntnBe04HmP3lUXQfmSp9/hKNx63j8KljLOxpR9PJW/E/vof5fcxdbCxvBCp4vMnXO08RERFB+KEFNI36iuUnkgrdVTFUPqQG8P3a2/Re609UmB87P2lCxKGwos+DGNLPZPsDqy6fcToqmpjAnSx+JYftU6fx41W97VwG8je7/pQVj/YgPSpBDan5LpoGfyCFhOX+Ld9DDNyN3H4G2hJsDVVQsBShQeMm5q2/CZV4ffVufAJGMnnPX4VvvyooWIxE4ynb+anZVl6ffui5ba/522Ddgpm7VlBl5WA+Dfh7vQNBQUFBQUFBQaG0mDk1FnDuOIkJTc7w83FloqJQHmi4uvXf7K0+gamdXpRVvRcFFfVGzsT7z+WsDFQmKgoKCgoKCgr/HEzeWZHqjuH7HyfTXHONPYtms/xMfBltL1BQUFBQUFBQUFBQUDCMycmKgoKCgoKCgoKCgoLC/wIzt4EpKCgoKCgoKCgoKCg8X5TJioKCgoKCgoKCgoLCC4kyWVFQUFBQUFBQUFBQeCFRJisKCgoKCgoKCgoKCi8kymRFQUFBQUHhRcSqC4tO+zKjeQle5KegoKDw/xl5kxVraveexoqdJ4iMjuF88En2r59EW/vCicsTweV11h/4hDYqiSZTd7BxRJXn9K4NkZpjt3Ip7jJX8j8XTzK3nUonSQUae7/H8r3BxO6aRIPn2G9Yey/jwuUL7JvSMPfNt4ITA1aE8/vFfXzQROdCVB7MPhxL9NqBuOoIJ1QdyeZzmxmj8zp5qy4LOHPqUzrouGgMG7d+fPy9L2fDI4g6e5CNH3lRyyrfakX1ru+yZNthgiOjuRByhC1zfahrrZuDmdi25MNd+1nYrYLOm8GrMWrTea7EXeL3S+eJDjrAps+H0sxBr3YY8N+kfs/yv8zvl2O5GO7H3jXT8ar9zEHLMVF/pOo9mb52H2fDz3E+9Di/LB5Bc0dd/yTcRm/k2IrXqFEuywtG2r+5+hjQ3yyECsiNJ6Ie60f2mHeQCx1vhVz3LdRv7CXn/RCy/7UXdR9v5DJtg0b8z8cS/56h4d2UREJSMqirbwJKaxdkNeNTkzmWlMDZpGTWZGRTU8duOYb1EaqOZPP5y1y5fIm46GD8dq7ko1cbo988LUOmYXYGi1MSOWtQm/JFcv8A3x1F2+7fH4nG49dzxO8M0bGXiIsOIej4Xhb0/Xu966pcy8dE/LaEjulJ/JSpKbJq3D0tie+ytEW+LzGOQ1FPjyB7kE/B+7lqzCDn3dnIItDoK7JnhZHTqX6e0QntwECyZ+xAU0UCx/6oJ+9CU8M2zy4iN1tCzripyGaMH55PfFD4JyCCgGvvz9n87x4kbJvJaz260G3QJBb+dJprGfrJyw+bVu2oHxfJb9rKtGktEx2T8JxefifgWsWZe1vG0cqjJe4eLXFv3Z+vzqnz7BKNJ61n/dhqxJ29RGqhY58HMtn37uPUpWvuQNW2HT0803gYX/htNyr3l+nFde639KaHSxlGAlVzpnz7KR4xCxnUtSOdh37N1Q4L+PbtRs8G/43a1eXx7s8Z5d2N7mNWcqfzAhYNr1XCQCvRYPQnDP9rE6uDU/TKPofwxX1xb9mRPm+t4mabT1k60T33/HkY9t8c/bLw+7gDTVt40sHnfX7VDuQ/c3wsGJTqYqL+CBXxmfMVPglrGdGjPW1f+Zhgt5l8/U5THf803Nr1LcfcZjCzr3MZDyLMaf+m9TGsvykk5I4rUHtWQbh5GaFIo3dCrlUH4eIiVBu9sN6xDtzmoW5ZQz9hKTHHf0v8K6B+ZhpeiCQZOLx0dpke6akMEWz5sKIL/Z2ssc1M44tiBkClwwx91JEs6tuKlt2H8OHWu7SZ8xOr33Ar1D4toWHmU5ZmablipSLNgDbljXXN2lQrG0FLgYxcpF2UFRqubnkPn779mB+Ywe/fj6V3vyEs8Pt7vXy2/MrHRPy2kMeiSEWtrNdWZZxlmSeCUDbvtMu6iVBlBNpKxQkkQ/IDcOucu0hk5Ym2RhpCet6ZU08ghT5E22NE7uTGphOaLvURAzYh5A+RTFHO8UHhn4GIVJdhU7yJ3/gJXx68xMPUDFLjbxATeZVkGVQtpnPIfxE9HQoOkhpOZm/Iagblj1akqnSd/A07jgdzITaGc36/8JlXFbM6S1XL99h26BBHvvShWteP2Xd4O7Pa1WPEyn1sntT8OVRoiUqVnfnr3gOyNRo0eZ+CIKHh6obxeI9dwNaYBMM+ibV4c8MZ/D/vQv4aRNkgwL0LXKzajW5VRGxad6ft7Shis3XTqGj+cm/E06vZdrkl/Xq4lHxAa+D6pbrd6Vk1hE2bo3milsl+dJZV356gks8rNJUAOYGglfP4Zn8UtxLTSfnTn0MRqdRpULNkZafyYPiw6gTtOkG8oV5Sm0XSn6c5GBpP9To1KVjYMea/OfrlIWvIeBLHoVNxSNVewlW3sA3oYxpT9UeFrZ3IrZgoHmTJaJLiiPw9GWs728JlmPMbe/bfo+dIb6oWzaT0mGj/hTCojzH98zConwYhYhJWO/+NdD9J764KQALi2S+QLscgZKRDQiDinVSoVEb3Dszy3xL/chG1mczKFtlkqyp6LBbY5Ry8ckT22NpwRYBa2TnUEaBpTg61ddOVFrP0AZBRpz3i0uGlfLgkGveJb9FJVwgT+hjjmm0Fhjo5sFMlFjOZLQOM9F9Siyn87BdMyNJ+OLtPwzcqhovnz3Hgg7y+SdWembuOczYsistnvmBo//9j+/HThAQfZ1EPu4JzWOA/QNWes9l8OJDIiDMc/e4DulfVi64W5v8iI1Rsw4RluwgIjSA6IpiA3UsYVi/Xf5Plg4Br5yms3nmc8MhzxIT7s2fpODyd9FqZQf1MxW+M1p9nGMj/sShQQdYioWVIaiJH03OwRourLPJYLC4SlALxJuIlDVrP9voWQICUiwiOnZEdRKjRFTnxPIIm365FuLQMUTscjXsd5PbTkO+uRLqTrpuJGZiIDwoKJhAFx5a0qX+bwKDbPKufOqjjdrPrbk9G9HXN6yQl6nt5Ue2sLwEJMiDhNuobVg635vCcoXRu1xmvCUvYczHBrFUBdex6xrw2mtUxt/h56gAGfOTL3YhlDBswkLd+uFzsNZUtNjg52uExbSdh4WGEHNvGkrfbU1k30mjUudchiMUHKwA5lVvnwwiN+4scfZuFCMJVQiJr0b1TJVp078CjoEiSrXQCmao53r0lgvyC8ff/ndbePUp+V8DQ9YsCgkaNWqcwc1KSyajhRq3ibgNLtWnZ3J4/r9wsUdlJDbrQyTmGoCgjt/NEG1waeTOsuwPRoZcKrtOE/yb1e4aAtUtTXvNuyr2QcO7oOmBIH3MwVn/kBI79sAOnsQt4u2ND3F+ZxdRmoSz7byyFF6603A8N4V6LLmW6PdNU+y+MAX1M6A8Y10+b56mgf1AxCLWQq9kjPL6lbykVZvlvqX9oGZieRZqtPacFEIsMuEtvF7UaagkSf0hgpcnio2yBNY52xGg01ClIVmrM0qcQMvFBAVys0ApPN50BtVF9TJN7bv0V6LLAeP+lufQdo/t2pdvcQDJ+W8Ogtp54tG7HwFV5fZM6kuUj+tHd5yvCHH2YOTKVpSP60KXHQBaH6MQyS/yX6vNyp0S+HdWHDj3G8EP6QL6Z50Nl3TpoSf4vNCI1Bk3nX5UO807vjrTp2IvBs9YReDe3RpgsH2SSH8RyZOm7eHVuR7v+M/Cr9h6fj83bGZCPMf2MxW8T9ecZBvLPFEXStVpcZDUeWpGnGjX1ZJnKWoHHRU9WOkQbhKs7Eeq+gdaxuEyvId6pibaOK3K9tnDjHIUc1d5CCtiH3GU96mY3kc6e1TGWFAPxQUHBBCrBqSIVhWQSkw1MLbT3OLgzikkjX6XWoa3cEerzspcL/iuCSQEQq9OrX3OubXudn2MeogXSb54nSS8bo0iNcK97m9gbMo59G6K6dpqkIh12efGUQ594EyKkkJBhRdW2o1i8bBXfZA5nwva7hQOOIBS76gmAnETI2tmE6H9fFgjZxATGMHHAaF6pm0LQnAfUGl1gVjX3oo9VEJ9fzCL+nj9XPvSml6sve57kiajyZNb+M7yf74zKDsenu58dDxi8fs3NcMLTlvLGkMZE77pKtqsnY6a8Sm1VHKoicc+GRmPm8pbDPqYfemTWZDUfK7f61HxwjT8z9S0AVnSc589v80BW3+Lol5OZtfv+s/xN+m9CP7Ch75IIriwB5BweR/7Ix5tjydJNYkCfElFs/ZFJjTvAjisrmb1gGeNcbbm4ejbhD4sODTW3r3NT8KJeDQmuFrWXBpPtHzClj0n9wUz9iqpTGGvkNrPRWh9A+u0vfWOpMMd/S/2rkp3OGGz5wFpELjISsswuALYIZMgahqVnkmFbgcOSmu6osZfzEliAOfroI6enkKxxwFF3Y7oRfUqChe4UpSz6r2ekE7hpA1HJWiCr7OKHnIz/5i1cSNYAtziw6QiTN/aird1BjucvcFuS/wuNzNM7d3hapws+nYPYGniDpFs39RMZRXMzhKM38/5IvMiBU9cY26wGElcLJuDm6Fdc/Da3/hjIXyOIPJFlKmvU1JdsOKHNoaUs4SKLXCxystIiQmYg0h/vom7ZEPGmnlnIRrgRi9x0JFqXp4hHHyJ76qWJP4WY+i7axGOIaZYNzoqNDwoKJhDltFRSqYhLhSIjzzxkEv12crLaYIY0kZAaeOFlfxLfiLxVI8GZys5aHt5/XKLBKQCCE94L93Hs8HKG12zLjB0H2D+nGzUGfMUh3yUMLp9NqEWQMxJ5kq5BljN5dG4LK/Y+xrN3J5xflLYkQHpkEHHtxjKUYE7f0h2oqmjh3Re3lwazyj+IM7un06ZiB/r1zL8TBqgvsWHiMAYNHsKgwUMYuvCk+ZPB7BhWzVhLfP/lHAk8zbHvxmETHcr9xw/5q9DAyZaGw5fww1tq1s1YSUSars0UAjYODkjpaRQfB3MIX9yHZq1HsP6aE07aRJ4+S2eG/0b1g/xnMpq4e9Ci80A+vdCJZT9Mxr24O0dljViL4cs3MPbJlwx8dRDeg77guvcKNr3fquh2Dk066dm22NuVXcU03f7BuD5m6F8m2CC3/BJ1OzXiwbWIxW3jKwWm/bfMP0GbzQeZWvba2XBf34jldhmBDGQaZqczGluW2YhoZRk7IMOcCzSBaX2KIji54qpKJtHsIPM/xJL+Sx/NfW7cKWa2aSnaJB4/LshXTnjME8kZ10I/wmEEh34sPR1MeEjuJ/iXKTQryaK2qeNN2S1CJiVgIaM+PUOVces5dngD84Z74Gx2dRSo6DGCeau3sd93Hwf27eb78U2wMucurjlYWH+0okS8rKWRWsNTlTWRKpmWOVoqCCJP8i/RlL6m7ABkI5zfi9DsDbTWxbTLO2cRao1CQyhikr4nInKTf6EVQhFqTERTzbqw2azzF1AkPpTweIV/Jio55RKxd9zo1rUG3127U3yDy4xkh6+a1UM64J/YG9WJhcTkDxbkFJJSRDyrVkKkYLXbLOSnnJg/mIAu8zn0ejCvz7nIkA2rcFkyijVX9AeUzw+NWoOszjFz28NzIjWUAweikO+f5JqmcsH3qhZ493bgyNwh/CcsCxCpNXING7x7UmnfXp4AkEPK40c8fJRbOlaJGSUoJ5n0K3v4/K09eX+raPKv7Yy58D2/5e9TEhxoPv5b1o3O4rvJH7L9j2JvjxhBJjs9A629PfbG+pDsODatPI3v/Gn0PjkXvyTZpP8p+cca0q8QWnJSbnN2zyluje5CS2eBOIMP0JQNgnMn+rW9xZ75ETzRAA+DWbvuNIMX9Md97QWidfeCqRxxtE7nTvEzulJhVvt/RjH6JBnXv2zks0du+zXqNtlIez5GjC+0Zm0RJv03Ub9M+WelzqanRk2/lASm63y/KzGbjRUqslljmf0HUeKWnM7sDBXfOdlyE7DVqKkjSdzRSV9aTOpTBJGqvfriER/F2kL7KF9QStJ/CUIx24B00aItD5dFF6pWsSJ/M5zgWoVKmiQSUk1UvnzSA1k8csizxQ9ZnZYba8zF1PGm7BaTzf2wbSwI287K5iP4YvV3LHj6CjOO6f0QS3HlY9uV2SsnYPPtFEYfuUGaRqT2+C3sdtdPWEpKUn+KQxB4jJYOapnfbEWuiBJuWWpyRFVe341pfU3Z80k+gvjgTbSNzoP+TwVkhSPGRUNKAIK2UmGbXXc03eogHnoH0Xk+6t5vIu7agpDvrLnnB4qNDyU6XuGfiojmGr9uCsHtvW/4v1c9qOXqQpXazejcvp7OwFHDH3t3c6f7JGZ5aThy8PeCgbz2HkEB13AfO50h7q5YS1Y4VmtEczdzf/pQpHK92iRdv0G2VJ9G1W/zx+3nWFMlN7r6dKbxSxWxs62IW6fxTB9ambATYTqr92YguNL9g6UsHlq/ZA+Wm4ucjP83k5jxs86ta0DV4mX62gaw/9Q94uPjiY//i9iDR7ju6U2vSuaVAGD8+iUVKgFEu2q0HvI5S97IZNPGwNxwJzjTfup3/DAqjbXT5uF7V8Te3h57OxukEpw++/YNHr7UgPo2+hZdZFLOrGf9tR7MfLcVdpTAfwP66SM51KTzUG8aPr7KFd0niI3pYwFy+l3upNSne+962IuATQ16vtIBu1vXua/X80l1GlJXc5M/7xvzoISY1f4L0NfHbP1LrV9F5C6rUHumI+1fiJgsgpU9WOmt7pUWE/5b6l+2tSM9XFzpkPfp5mhDomTHCJeK/CBZbkdQccJaJEe0IkqUcdTmMDEzh8dW1tzSuY5SY0KfAgSsnGriOegTVs1sTOjqLcTo3mQwoM//HDP7r+wn8aTWbEOHWjaAiLWttZn9Wx6W+C9UoPe40bRwEsGmFgPGvULFUH/O6T7eZyx/OZOkR494mPd59CRV73k4E5g63pTdIkRqtOxM08q2iGhIufcnD9MkbKwLT0sMlo+VMy4OqTy49Zh0jYRDXS8mvF74lyQB4/oZw8z6Yzh/kYeihjYaiYsSZEkqEjVqXhKEgsmKKX1N2Z+Rghh9Arlxj2J+yCQFMfB9VDF/6H3viLbrh8i3ViM9zES4sgYpZwSaVrULkph1fiPxwazjFf7piKDl4cFPefurC9SbuIZDpwPx272amV5u6I4btY+OsDO2IZ6pRzh0Q3ewpOGPzR/x8VFbRq85yrmoUPx+/jejPRzNDOYSdRu8xJ3r95CrNKBeynX+LKMtHuYh8lLPD1i7+yQRkQH8uqAnCT9OY45vwTMXksdktuz3Zd/cHji6v8OP+33Z//UgdF5dAqIDbq060rFx5ZIFO4uwwuPl3tgF+xGlczNDey8Qv5ut6d+rspllgNHrt+ryGaejookJ3MniV3LYPnUaP17NjTRC5X5MfbcNlWt5s2hfCDHnInM/Yd/zZgm28WmuhxGW2pbubYpsfiqM9j77vt1O9rCPeLO+bRn5n/dMxuVLXDyzi/meV1kyYx3ndQdbRvQxhdH6kxnO8uk/kPTqWk6FhBLht5nJDgf4cN4+HhaarIjU6tKZ6rGhGPsNgpJjTvs3pE8J6p8x/V56B/X4XeT06QZVx+X+32dAbofq4IWmQ2vkin1Rj/Mn+4Og3M/U1WiczK9fhjHmfxn5V64IhNk5sk7K5uvkRI6lpNNUsme+rVTyVd5iMaZPHqr2fOZ3gQuBO/l6uCtB88Yz+1Du/v1nWKCPpM5gXUoy/03PwUGTyeqUZLalZVFVP2GpMK//yonYyCJfK8b/EkRU+BmOfdYTJwEkt5GsPniSs0fn0tnOgxm7TxNwYBnDa+vVTQv8JyeU/x6pwuydAUSe2cF7TgeY/eVRdB+ZKn3+Eo3HrePwqWMs7GlH08lb8T++h/l9zF1sLG8EKni8ydc7TxEREUH4oQU0jfqK5SeSCt1VMVQ+pAbw/drb9F7rT1SYHzs/aULEobDCzxOBUf2Mxm8z64/h/EX+EmQcJBVxAsiiiguCFlEUKen+BLN4tAfpkb6HRqj5LpoGfyCFhOX+Ld9DDNyN3H4GWnO3hpoTHxQUTCA0aNzEvPsHQiVeX70bn4CRTN7zV+HbrwoKFiPReMp2fmq2ldenHzK5veYfh3ULZu5aQZWVg/k04O/1DgQFBQUFBQUFhdJi5tRYwLnjJCY0OcPPx5WJikJ5oOHq1n+zt/oEpnZ6UVb1XhRU1Bs5E+8/l7MyUJmoKCgoKCgoKPxzMHlnRao7hu9/nExzzTX2LJrN8jPxyu07BQUFBQUFBQUFMTzNBwAAIABJREFUBYVyx+RkRUFBQUFBQUFBQUFB4X+BmdvAFBQUFBQUFBQUFBQUni/KZEVBQUFBQUFBQUFB4YVEmawoKCgoKCgoKCgoKLyQKJMVBQUFBQUFBQUFBYUXEmWyoqCgoKCg8CJi1YVFp32Z0bwEL/JTUFBQ+P+MvMmKNbV7T2PFzhNERsdwPvgk+9dPoq194cTlieDyOusPfEIblUSTqTvYOKLKc3rXhkjNsVu5FHeZK/mfiyeZ206VZ7eietd3WbLtMMGR0VwIOcKWuT7UtS6USblh7b2MC5cvsG9Kw9w33wpODFgRzu8X9/FBE50OTOXB7MOxRK8diKuOcELVkWw+t5kxua/bBcCqywLOnPqUDvkumsDGrR8ff+/L2fAIos4eZONHXtSyyreWoT62Lflw134Wdqug82bwaozadJ4rcZf4/dJ5ooMOsOnzoTRz0KsdBvw3qd+z/C/z++VYLob7sXfNdLxqP3PQcsQKNPZ+j+V7g4ndNYkGeuMOqXpPpq/dx9nwc5wPPc4vi0fQ3FHXPwm30Rs5tuI1apTL8oKR9m+uPgb0NwuhAnLjiajH+pE95p3cN9c/wwq57luo39hLzvshZP9rL+o+3shlOnYz4n8+lvj3DA3vpiQSkpJBXX0TUHq7TMPsDBanJHK2iK0sMKyPUHUkm89f5srlS8RFB+O3cyUfvdoY/eZpCYKsZnxqMseSEjiblMyajGxq6icqZyT3D/DdUbTt/v2RaDx+PUf8zhAde4m46BCCju9lQd+/17uuyrV8TMRvS+iYnsRPmZoiq8bd05L4Lktb5PsS4zgU9fQIsgf5FLyfq8YMct6djSwCjb4ie1YYOZ3q5xmd0A4MJHvGDjRVJHDsj3ryLjQ1bPPsInKzJeSMm4psxvjhecQHhX8GIgi49v6czf/uQcK2mbzWowvdBk1i4U+nuZahn7z8sGnVjvpxkfymrUyb1jLRMQnP6eV3Aq5VnLm3ZRytPFri7tES99b9+eqcOs/sRKN2dXm8+3NGeXej+5iV3Om8gEXDa1keSMxCJvvefZy6dM0dqNq2o4dnGg/jC7/tRuX+Mr24zv2W3vRwKcNIoGrOlG8/xSNmIYO6dqTz0K+52mEB377d6Nngv2z0kWgw+hOG/7WJ1cEpemWfQ/jivri37Eift1Zxs82nLJ3onnv+PAz7b45+Wfh93IGmLTzp4PM+v2oH8p85PhYMSnWRaDxpPevHViPu7CVS9c1CRXzmfIVPwlpG9GhP21c+JthtJl+/01THPw23dn3LMbcZzOzrXMaDCHPav2l9DOtvCgm54wrUnlUQbl5GKNLonZBr1UG4uAjVRi+sd6wDt3moW9bQT1hKzPHfEv8KqJ+ZhhciSQYOL629YeZTlmZpuWKlIs3AsaXHDH3UkSzq24qW3Yfw4da7tJnzE6vfcCvUPkuPTI/0VIYItnxY0YX+TtbYZqbxRTEDvPLEumZtqj3PExZCRi7SLsoKDVe3vIdP337MD8zg9+/H0rvfEBb4/b1ePlt+5WMiflvIY1GkolbWq8syzrLME0Eom3faZd1EqDICbaXiBJIh+QG4dc5dJLLyRFsjDSE978ypJ5BCH6LtMSJ3cmPTCU2X+ogBmxDyhkgmKdf4oPBPQUSqy7Ap3sRv/IQvD17iYWoGqfE3iIm8SrIMqhbTOeS/iJ4OBQdJDSezN2Q1g/JHK1JVuk7+hh3Hg7kQG8M5v1/4zKuKWZ2JquV7bDt0iCNf+lCt68fsO7ydWe3qMWLlPjZPav4cKrREpcrO/HXvAdkaDZq8z7MgIScQtHIe3+yP4lZiOil/+nMoIpU6DWoWvjaxFm9uOIP/513IX4MoGwS4d4GLVbvRrYqITevutL0dRWy2bhoVzV/ujXh6Ndsut6RfD5eSD2gNXL9Utzs9q4awaXM0T9Qy2Y/OsurbE1TyeYWmEubrYwqVB8OHVSdo1wniDfWS2iyS/jzNwdB4qtepScHCjjH/zdEvD1lDxpM4Dp2KQ6r2Eq66FdiAPqbRcHXDeLzHLmBrTEIxbUKFrZ3IrZgoHmTJaJLiiPw9GWs728JlmPMbe/bfo+dIb6oWzaT0mGj/hTCojzH98zConwYhYhJWO/+NdD9J764KQALi2S+QLscgZKRDQiDinVSoVEZr62b5b4l/uYjaTGZli2yyVRU9Fsvs12wrMNTJgZ0qsZjJnoWYpQ+AjDrtEZcOL+XDJdG4T3yLTrpCmNDHIHIOXjkie2xtuCJArewc6gjQNCeH2vppS4uR/ktqMYWf/YIJWdoPZ/dp+EbFcPH8OQ58kNc3qdozc9dxzoZFcfnMFwzt/39sP36akODjLOphV3CO0vqfR9Wes9l8OJDIiDMc/e4DulfVi64W5v8iI1Rsw4RluwgIjSA6IpiA3UsYVi/Xf5Plg4Br5yms3nmc8MhzxIT7s2fpODyd9FqRQf1MxW+M1p9nGMj/sShQQdYioWVIaiJH03OwRourLPJY1G/ppUS8iXhJg9azvb4FECDlIoJjZ2QHEWp0RU48j6DJt2sRLi1D1A5H414Huf005Lsrke6k62ZiBibig4KCCUTBsSVt6t8mMOg2z+qnDuq43ey625MRfV3zOkmJ+l5eVDvrS0CCDEi4jfqGlcOtOTxnKJ3bdcZrwhL2XEwwa1VAHbueMa+NZnXMLX6eOoABH/lyN2IZwwYM5K0fLhd7TWWLDU6OdnhM20lYeBghx7ax5O32VC42KgFSbVo2t+fPKzcLX5ucyq3zYYTG/UWO7vdlgCBcJSSyFt07VaJF9w48Cook2UonkKma491bIsgvGH//32nt3aPkdwUMXb8oIGjUqHUKMyclmYwabtQq7jawIX1MIDXoQifnGIKijNzOE21waeTNsO4ORIdeKrhOE/6b1O8ZAtYuTXnNuyn3QsK5o+uAIX3MQaPO1UIQi3Z2cgLHftiB09gFvN2xIe6vzGJqs1CW/TeWwgtXWu6HhnCvRZcy3Z5pqv0XxoA+JvQHjOunzb+LqX9QMQi1kKvZIzy+pW8pFWb5b6l/aBmYnkWarT2nBRCLTCgstZN37fortJZjlj6FkIkPCuBihVZ4uukMqI3qYxhRq6GWIPGHBFaaLD7KFljjaEeMRkMd/cSlwnj/pbn0HaP7dqXb3EAyflvDoLaeeLRux8BVeX2TOpLlI/rR3ecrwhx9mDkylaUj+tClx0AWh+jEslL6D4BUn5c7JfLtqD506DGGH9IH8s08Hyrr1kFL8n+hEakxaDr/qnSYd3p3pE3HXgyetY7Au7m10WT5IJP8IJYjS9/Fq3M72vWfgV+19/h8bN7OgHyM6WcsfpuoP88wkH+mKJKu1eIiq/HQijzVqKkny1TWCjwuerLSIdogXN2JUPcNtI7FZXoN8U5NtHVckeu1hRvnKOSo9hZSwD7kLutRN7uJdPasjrGkGIgPCgomUAlOFakoJJOYbGBqob3HwZ1RTBr5KrUObeWOUJ+XvVzwXxFMCoBYnV79mnNt2+v8HPMQLZB+8zxJetkYRWqEe93bxN6QcezbENW10yQV0yGXD0859Ik3IUIKCRlWVG07isXLVvFN5nAmbL+rN+GyodGYubzlsI/phx7pBaMkQtbOJkT3u7JCyCYmMIaJA0bzSt0UguY8oNboArOquRd9rIL4/GIW8ff8ufKhN71cfdnzJE9ElSez9p/h/fwLVtnh+HT3s+MBg9evuRlOeNpS3hjSmOhdV8l29WTMlFeprYpDVSTuGdHHBFZu9an54Bp/ZupbAKzoOM+f3+aBrL7F0S8nM2v3/Wf5m/TfhH5gQ98lEVxZAsg5PI78kY83x5Klm8SAPiVCEIqsioNMatwBdlxZyewFyxjnasvF1bMJf1h0aKi5fZ2bghf1akhwtai9NJhs/4ApfUzqD2bqV1Sdwlgjt5mN1voA0m9/6RtLhTn+W+pflex0xmDLB9YicpGRkOV2XUwpWFLM0UcfOT2FZI0Djrob043oYwwBsEUgQ9YwLD2TDNsKHJbUdEeNvZyXwBLKov96RjqBmzYQlawFssoufsjJ+G/ewoVkDXCLA5uOMHljL9raHeR4/gK3Jfm/0Mg8vXOHp3W64NM5iK2BN0i6dVM/kVE0N0M4ejPvj8SLHDh1jbHNaiBxtWACbo5+xcVvc+uPgfw1gsgTWaayRk19yYYT2hxayhIussjFIicrLSJkBiL98S7qlg0Rb+qZhWyEG7HITUeidXmKePQhsqdemvhTiKnvok08hphm2eCs2PigoGACUU5LJZWKuFQoMvLMQybRbycnqw1mSBMJqYEXXvYn8Y3IWzUSnKnsrOXh/cclGpwCIDjhvXAfxw4vZ3jNtszYcYD9c7pRY8BXHPJdwuDy2YRaBDkjkSfpGmQ5k0fntrBi72M8e3fCuVBbsqXh8CX88JaadTNWEpGmaytnBEiPDCKu3ViGEszpW7oDVRUtvPvi9tJgVvkHcWb3dNpU7EC/nvl3wgD1JTZMHMagwUMYNHgIQxeeNH8ymB3Dqhlrie+/nCOBpzn23ThsokO5//ghfxUaOFmij4CNgwNSehrFx8Ecwhf3oVnrEay/5oSTNpGnz9KZ4b9R/SD/mYwm7h606DyQTy90YtkPk3Ev7s5RWSPWYvjyDYx98iUDXx2E96AvuO69gk3vtyq6nUOTTnq2LfZ2ZRfkTbd/MK6PGfqXCTbILb9E3U6NeHAtYnHb+EqBaf8t80/QZvNBppa9djbc1zdiub28Ma1PUQQnV1xVySSaHWQMIyOQgUzD7HRGY8syGxGtLGMHZJhTAKawpP/SR3OfG3dMzCZLgzaJx48L8pUTHvNEcsa10I9wGMGhH0tPBxMekvsJ/mUKzUqyqG3qeFN2i5BJCVjIqE/PUGXceo4d3sC84R44m10dBSp6jGDe6m3s993HgX27+X58E6zMuYtrDhbWH60oES9raaTW8FRlTaRKpmWOlgqCyJP8SzSlryk7ANkI5/ciNHsDrXUx7fLOWYRao9AQipik74mI3ORfaIVQhBoT0VSzLmw26/wFFIkPJTxe4Z+JSk65ROwdN7p1rcF31+4U3+AyI9nhq2b1kA74J/ZGdWIhMfmDBTmFpBQRz6qVEClY7TYL+Skn5g8moMt8Dr0ezOtzLjJkwypcloxizRX9AeXzQ6PWIKtzClZdBAeaj/+WdaOz+G7yh2z/o9jl//IlNZQDB6KQ75/kmqZywfeqFnj3duDI3CH8JywLEKk1cg0bvHtSad9engCQQ8rjRzx8lFs6VokZJSgnmfQre/j8rT15f6to8q/tjLnwPb/l71OyWB+Z7PQMtPb22BvrQ7Lj2LTyNL7zp9H75Fz8kmST/qfkH2tIv0JoyUm5zdk9p7g1ugstnQXiDD5AUzYIzp3o1/YWe+ZH8EQDPAxm7brTDF7QH/e1F4jW3QumcsTROp07xc/oSoVZ7f8ZxeiTZFz/spHPHrnt16jbZCPt+RgxvtCatUWY9N9E/TLln5U6m54aNf1SEpiu8/2uxGw2VqjIZo1l9h/KuVM3qU8RRKr26otHfBRrC+2jLB1aUeKWnM7sDBXfOdlyE7DVqKkjSdzRT1waStJ/CUIx24B00aK13OWiiC5UrWJF/mY/wbUKlTRJJKSaqHz5pAeyeOSQZ4sfsjotN9aYi6njTdktJpv7YdtYELadlc1H8MXq71jw9BVmHNP7IZbiyse2K7NXTsDm2ymMPnKDNI1I7fFb2O2un7CUlKT+FIcg8BgtHdQyv9mKXBEl3LLU5IiqvL4b0/qasueTfATxwZtoG50H/Z8KyApHjIuGlAAEbaXCNrvuaLrVQTz0DqLzfNS930TctQUh31lzzw8UGx9KdLzCPxURzTV+3RSC23vf8H+velDL1YUqtZvRuX09nYGjhj/27uZO90nM8tJw5ODvBQN57T2CAq7hPnY6Q9xdsZascKzWiOZu5v70oUjlerVJun6DbKk+jarf5o/bz7GmSm509elM45cqYmdbEbdO45k+tDJhJ8JyV+8FZ9pP/Y4fRqWxdto8fO+K2NvbY29ng6TroOBK9w+Wsnho/ZI9WG4ucjL+30xixs86t64BVYuX6WsbwP5T94iPjyc+/i9iDx7huqc3vSqZVwKA8euXVKgEEO2q0XrI5yx5I5NNGwNzw525+pgg+/YNHr7UgPo2+hZdZFLOrGf9tR7MfLcVdpTAfwP66SM51KTzUG8aPr7KFd0niI3pYwFy+l3upNSne+962IuATQ16vtIBu1vXua/X80l1GlJXc5M/7xvzoISY1f4L0NfHbP1LrV9F5C6rUHumI+1fiJgsgpU9WOmt7pUWE/5b6l+2tSM9XFzpkPfp5mhDomTHCJfciYal9nLHhD4FCFg51cRz0CesmtmY0NVbiNG9yWBAH5MIKk5Yi+SIVkSJMo7aHCZm5vDYyppb+mlLg5n9V/aTeFJrtqFDLRtAxNrW2sz+LY/S+g8gVKD3uNG0cBLBphYDxr1CxVB/zuk+3mcsfzmTpEePeJj3efQkVe95OBOYOt6U3SJEarTsTNPKtohoSLn3Jw/TJGysC09LDJaPlTMuDqk8uPWYdI2EQ10vJrxe+JckAeP6GcPM+mM4f5GHooY2GomLEmRJKhI1al4ShILJiil9TdmfkYIYfQK5cY9ifsgkBTHwfVQxf+h974i264fIt1YjPcxEuLIGKWcEmla1C5KYdX4j8cGs4xX+6Yig5eHBT3n7qwvUm7iGQ6cD8du9mplebuiOG7WPjrAztiGeqUc4dEN3sKThj80f8fFRW0avOcq5qFD8fv43oz0czQzmEnUbvMSd6/eQqzSgXsp1/iyjLR7mIfJSzw9Yu/skEZEB/LqgJwk/TmOOb+4zF0Llfkx9tw2Va3mzaF8IMecicz9h3/Om7jY10QG3Vh3p2LhyyYKdRVjh8XJv7IL9iNK5maG9F4jfzdb071XZzDLA6PVbdfmM01HRxATuZPErOWyfOo0fr+ZGGrP1MYHmehhhqW3p3qbI5qfCaO+z79vtZA/7iDfr25aR/3nPZFy+xMUzu5jveZUlM9ZxXnewZUQfU0gek9my35d9c3vg6P4OP+73Zf/Xg3hJBDLDWT79B5JeXcupkFAi/DYz2eEAH87bx8NCkxWRWl06Uz02FGO/QVByzGn/hvQpQf0zpt9L76Aev4ucPt2g6rjc//sMyO1QHbzQdGiNXLEv6nH+ZH8QlPuZuhqNk/n1yzDG/C8j/8oZSZ3BupRk/pueg4Mmk9UpyWxLy6KqfsJSYUyfPFTt+czvAhcCd/L1cFeC5o1n9qHc/fvPKLU+AmF2jqyTsvk6OZFjKek0leyZbyuVfBW7WMzrv3IiNrLI14rxvwQRFX6GY5/1xEkAyW0kqw+e5OzRuXS282DG7tMEHFjG8Np6dbPU/gM5ofz3SBVm7wwg8swO3nM6wOwvj6L7yFTp85doPG4dh08dY2FPO5pO3or/8T3M72PuYmN5I1DB402+3nmKiIgIwg8toGnUVyw/kVToroqh8iE1gO/X3qb3Wn+iwvzY+UkTIg6FFX6eCIzqZzR+m1l/DOcv8pcg4yCpiBNAFlVcELSIokhJ9yeYxaM9SI/0PTRCzXfRNPgDKSQs92/5HmLgbuT2M9CauzXUnPigoGACoUHjJubdSxYq8frq3fgEjGTynr8K335VULAYicZTtvNTs628Pv2Qye01/zisWzBz1wqqrBzMpwF/r3cgKCgoKCgoKCiUFjOnxgLOHScxockZfj6uTFQUygMNV7f+m73VJzC104uyqveioKLeyJl4/7mclYHKREVBQUFBQUHhn4PJOytS3TF8/+NkmmuusWfRbJafiVdu3ykoKCgoKCgoKCgolDsmJysKCgoKCgoKCgoKCgr/C8zcBqagoKCgoKCgoKCgoPB8USYrCgoKCgoKCgoKCgovJMpkRUFBQUFBQUFBQUHhhUSZrCgoKCgoKCgoKCgovJAokxUFBQWF54DcMIvUJckkbksicVMK6R6Ff9vElF3hH4hVFxad9mVG8xK8yE/hf4hAhdfXEb1tPPrvBVVQKDcEmZwJKaR1kPn/9b0Pec3Jmtq9p7Fi5wkio2M4H3yS/esn0da+cOLyRHB5nfUHPqGNSqLJ1B1sHFHlOWkuUnPsVi7FXeZK/ufiSea2U+WaBSeaDfqItbtOEhlzngvBh9n0f/1xsyqcS3lh7b2MC5cvsG9Kw9w33wpODFgRzu8X9/FBE50OTOXB7MOxRK8diKuOcELVkWw+t5kxua/bBcCqywLOnPqUDnkumo11M6b+Gs3lXyfRQLfvFCvQ2Ps9lu8NJnaXnq0k2Lbkw137Wditgs6bwasxatN5rsRd4vdL54kOOsCmz4fSzKHASbFyZ/61ai/BUee5EHKELXNfo6Ftrs2kfs/yv8zvl2O5GO7H3jXT8ar9nAoYEFzaMWnlPoKjLhAbdoRNn3hT+PQSbqM3cmzFa9Qolw7QSPs3Vx8D9a8sMK2PpRjxPx9L/RO0ZL+ZgeY3B5zHO+MyyQm733QbqgG7IKPpmUHqf5JJ/CWRxJ9SePp2Nhq9tqttk0nq4mQStyWSsC2ZdPfCdsswrI9QdSSbz1/myuVLxEUH47dzJR+92hid5mkSqXpPpq/dx9nwc5wPPc4vi0fQ3LGYDAzFn+eA5P4Bvjue/3nLH4nG49dzxO8M0bGXiIsOIej4Xhb0/Xu966rcyud/3P9bjONQ1NMjyB7kU/B+rhozyHl3NrIINPqK7Flh5HSqn2d0QjswkOwZO9BUkcCxP+rJu9DUyOtQEZGbLSFn3FRkFYX6hyuXLxIXfZYT275ivGdFBMyMD3aNGTp/E8fPRnEpJoyzR7ezdHiD3P7674CNhqyJT0n+MYmEX5JIWvWUVC8NANqXU0n4NbHoZ2dujJZbpZP0QxrZjjr51cwk5aenZFbT+c4I2pYZPF2TTGpvLdlTkknc8JSMJnppyrV/eD6IIODa+3M2/7sHCdtm8lqPLnQbNImFP53mWoZ+8vLDplU76sdF8pu2Mm1ay0THJDynl98JuFZx5t6WcbTyaIm7R0vcW/fnq3PqZynsHNI5u2IS3p3a03XMeuJ7L2DewOc1mZLJvncfpy5dcweqtu3o4ZnGw/jCb7tRub9ML65zv6U3PVzK48pUNBo7h1fkP0ksVDASjSetZ/3YasSdvUSqrqlESDQY/QnD/9rE6uAUvbLPIXxxX9xbdqTPW6u42eZTlk50zw1mYi1G/mcZw7S/Mm1AT3qOXEx0009YO7M9uWNNc/TLwu/jDjRt4UkHn/f5VTuQ/8zxKd2gtKQIFej7yRLelH9holdHuo7bj92or/hmbD2dYK3h1q5vOeY2g5l9ncu43pnT/k3rU271zyx9LMEc/8vAP1FG6wzSZRWCBsgREApCjFG7bCdg9YsjzuNdcJ5ni9AunfQeBfVXbpdGyiQ10gFHKr7tguvYithfeWa2EDP0UUeyqG8rWnYfwodb79Jmzk+sfsPNvPIRKuIz5yt8EtYyokd72r7yMcFuM/n6naZ6xxuKP88H65q1qVYuCwXmICOXm88arm55D5++/ZgfmMHv34+ld78hLPD7e718tjzL53/b/5cBWTcRqoxAW6k4gWRIfgBunZEFwMoTbY00hPS8+JJ6Ain0IdoeI3InNzad0HSpjxiwSSd+5RC+uA/NmrekVc83mB9Wk2lL36ejTZ7ZaHyQaD5xCZ+1/oOvR/emfTcf3pixkp1R98kd7r/4qAenkd5Ewm5eRVwmVKTCcjtsf8vVWjzliOsbLri+4YxjmIC0u0Lu329WxD4OhFhb7O7kkNk331uZnNeykM/YYfOo4BwGkTRkjc9G2FkBx5MS1iuccZnlgM2NgiTl2z88P0Skugyb4k38xk/48uAlHqZmkBp/g5jIqyTLoGoxnUP+i+jpUHCQ1HAye0NWMyh/tCJVpevkb9hxPJgLsTGc8/uFz7yqmLXHTNXyPbYdOsSRL32o1vVj9h3ezqx29Rixch+bJzU3r8OzCIlKlZ35694DsjUaNHmfZ0MB+SnRv6xje8gNErNySL1xilMXoXrNyoX9E2vx5oYz+H/ehfw1iLJBgHsXuFi1G92qiNi07k7b21HEZuumUdH85d6Ip1ez7XJL+vVwKXkgNXH9kttI5g5+yPe/XNHLW8PVDePxHruArTEJZpV5sag8GD6sOkG7ThBvqJfUZpH052kOhsZTvU5NVIBUbwDDW8Wx4audxDxMJulOCOtXHkblM5TO9mCefnnIGjKexHHoVBxStZdw1XXGhD6lxrYD/bs94pcVe4lLlKnzshd1szS06NeHOrqVP+c39uy/R8+R3lQttcjFYKL9F8KgPmbUv9LqZ64+pcUs/y3wr1I2qcuSSfrhKRm1ZbJnJpLwSyKJ36WTozLDLguojtliEysh5IBw3wrra6CtmndxooasoWpUWxywi5AQcwAZyqynN0sfABl12iMuHV7Kh0uicZ/4Fp10hTCkDyps7URuxUTxIEtGkxRH5O/JWNvZFtLYcPwpA4z0X1KLKfzsF0zI0n44u0/DNyqGi+fPceCDvL5J1Z6Zu45zNiyKy2e+YGj//2P78dOEBB9nUQ+7gnMY9N88qvaczebDgURGnOHodx/Qvape5bcw/xcZoWIbJizbRUBoBNERwQTsXsKwenlDXVPlg4Br5yms3nmc8MhzxIT7s2fpODyd9GqRIf1M9v8CDk2H8+W244SHhxF6ZB0TWxazJcVQ/ubWH0sQbyJe0qD1bK9vAQRIuYjg2BnZQYQaXZETz+cumACgRbi0DFE7HI17HeT205DvrkS6k66bSR4yOU/vEn4ggOsV3ahT6PaJofggUa1mNRIjTxB0K4WMtATu/h5G5J/PcaXcQrRVtAiXrbF+ICBkCIg3Vaju5fmeH4vz9dTm/T9/gCmLWO+yQe6XRY4dUDWbTE8JW1+V+XFOANSfsK6ZAAAgAElEQVS5/wCQLCLmj2/Ku394joiCY0va1L9NYNDtYq9fHbebXXd7MqKva54YEvW9vKh21peABBmQcBv1DSuHW3N4zlA6t+uM14Ql7LmYYNab7tWx6xnz2mhWx9zi56kDGPCRL3cjljFswEDe+uFysddUttjg5GiHx7SdhIWHEXJsG0vebk/lYgeEEs4eoxjR5gH+QX8WvjY5lVvnwwiN+4sc3e/LAEG4SkhkLbp3qkSL7h14FBRJspVOVVY1x7u3RJBfMP7+v9Pau0fJ7woYu36xJkP/bxSpG5ZzMkkoOiHRqHO1EMSiNjORGnShk3MMQVFGgpRog0sjb4Z1dyA69BI5gE3jZrg9uswlnTsl2VcucdW2Mc1q53VXpvR7hoC1S1Ne827KvZBw7ugWsDF9LECqXg83zR/8fk+DVaMxfDbkMUsnfktkzYbk9cd5aLkfGsK9Fl3KdHumqfZfGAP6mFP/Sqmf+fqUDrP8t8S/J9Y4zqqI8yQn7O4IWC93wXWUCy5T7LFSm2HXQ26YRVZTEevovJbmpCanhoRUIYOnS5NJWp9MyoxMcpwLH1dazNKnEDLxQQFcrNAKTzedAjKkj5zAsR924DR2AW93bIj7K7OY2iyUZf+N5Zn7puKPRRjvvzSXvmN03650mxtIxm9rGNTWE4/W7Ri4Kq9vUkeyfEQ/uvt8RZijDzNHprJ0RB+69BjI4hCdWGbIf3OQ6vNyp0S+HdWHDj3G8EP6QL6Z50PlQmNBC/J/oRGpMWg6/6p0mHd6d6RNx14MnrWOwLu5tdFk+SCT/CCWI0vfxatzO9r1n4Fftff4fGyjwguhZulXTP9v5cF7Sz+m+cUveK1bZ3pO2EulLm2w1j/UUP7m1h9LEG0Qru5EqPsGWsfiWs81xDs10dZxRa7XFm6co1Aj095CCtiH3GU96mY3kc6e1THqImHr2oiXxw6g4e1oLhRZ7YKi8SGH8ydPI/jMYM7gVlQpItyLj1W4FXTLIL2XGm0ptgcKV22wvZFDZk8NOQOy0J62wyZBP5UBNBI2P1ujfTuFp700aFrloKmoYy/n/uF5ohKcKlJRSCYx2cDUQnuPgzujmDTyVWod2sodoT4ve7ngvyKYFACxOr36Nefattf5OeYhWiD95nmS9LIxitQI97q3ib0h49i3Iaprp0kqrp6XC0859Ik3IUIKCRlWVG07isXLVvFN5nAmbL+bN+GyptfCo3zd3xlH4QEnVszmu/NZhbORkwhZO5uQwt+WDUI2MYExTBwwmlfqphA05wG1RheYVc296GMVxOcXs4i/58+VD73p5erLnid5Iqo8mbX/DO/nF7HKDsenu58dDxi5fpFqAz5mgriVCYceoe2ub9dBEMxfDdDDyq0+NR9c489MfQuAFR3n+fPbPJDVtzj65WRm7b6PFgE7B3vE9FTSdJNnpZOmscfRPu9qTOgHNvRdEsGVJYCcw+PIH/l4cyyFStigPhZiZ49dZjoZUj1GzR1F2oa32He9FX2s7LFXATp3gDS3r3NT8KJeDQmumjd0NIXJ9g+Y0sdk/YPS61cCfUqDOf6Xq39mkjM5mdQuMrIgYv2LA7ZX8+q2ixatlZqclxxwmGuPpNGSMzaVtPcEKvzHBtHCOGqOPvrI6Skkaxxw1F1ZNaiPTGrcAXZcWcnsBcsY52rLxdWzCX+YX79LEH9KQ1n0X89IJ3DTBqKStUBW2cUPORn/zVu4kKwBbnFg0xEmb+xFW7uDHM9f4LYk/xcamad37vC0Thd8OgexNfAGSbdu6icyiuZmCEdv5v2ReJEDp64xtlkNJK4WTMCN6me4/5fqd6dHtUg2/xDCXzkyPPBn0/6r+HTTy8Jo/vkYqT8WIUJmINIf76Ju2RDxpp5ZyEa4EYvcdCRal6eIRx8ie+qliT+FmPou2sRjiGn6QSWvf54ro86I50b0UebP+okrGoodDxSODzIJpz7njacjmTJlCUemJ3J62xpWbDnLPQtj+/NCiHCgQnoWGUPTSB4lYnXEFvvDVrl3McxBFrH51Yasj1NJl1XYzSnZKpwYZUeFaTZk/espme4ZPO2dgdV3jjhEiOXePzxPRDktlVQq4lKhuBk3gEyi305OVhvMkCYSUgMvvOxP4huRN+sXnKnsrOXh/cdm3UkphOCE98J9HDu8nOE12zJjxwH2z+lGjQFfcch3CYPLaxOqHnJGIk/SNchyJo/ObWHF3sd49u6E87OWlk3o8jd5ffAQhr6/kcRBa9k02Z1STKJLhwDpkUHEtRvLUII5fUt3oKqihXdf3F4azCr/IM7snk6bih3o1zP/ThigvsSGicMYNHgIgwYPYejCk2ZPBoVKXsx+ryLb/7ObvMWsckDAxuH/sXfncVWU+wPHPzNz2AQUcc0N3BXFfQNXFNG03JfU1G7mUlmpaXpt0a7d683UNDUrLZdrpeYu4ooIyiIIKCiluSMqigoIKHDmzO8PQA9H4AwH8Gf3zvv1On/AM2fOPN951lntkTLSeaYdBJ5cE9tqBKsvOuJoeMBDBUAhIy0dQzkHjK5SBBt77KUMHuatrMj4Qd49GY3d3GnuMYC5Zzqx5IfJuBX3AQSWyEgjw7Y8jYbN4U1xI//6LR6DnT12+kdkmB5ZlzPIyLKlnF1BXYBlzNd/KDo+KspfSRQnPhYwn/8yzp9Kup8dqTCzPBUW2SJ2T+PhEKMynG2F7RYrpExAL2LlZ43YWI++FBoo8/F5luDojLMuhQdqGhmxFsOXrmHsvX8y4JWB+Az8B5d8lrHuvZbY8hzan5L0X6bkm1yJVztCKQZDMnfvPl2vcv8u9yQnnAt6CEFB7Puw+FgwJ0NyPsG/TKFpccZD5r5vLr1EFFIDPmf03ONUGbeaA/vW8Mlwd5xUF0eBCu4j+GTFJnbt3smendv4fnxjrASVsQOK6v8Fp4qUT79DYlpeWTdwNzEJFSX/WYWVH3PxNZcOQBbC6R0ITV/DYF3A1sWfQKg1GplQxGTTmiCiNH4HgxCKUGMicjXT0x9596w0p1m7Hrwy6Uv2XSl8qvVs+5DN7ZObmP+3fvhM+ZmUXv/mPx93xfRKvReZeNYG+88r4LTQBrFDOqlvZufcA6TWNRtsrisQYoP1Q9NEFTJFpPsiul8dKb9VIKtPNoa83y/D/uF50impZ4mJd6FL5xp8dzG+4Ab7cQSbd+tZMaQDRx94oTv0OdF5s14lleRUkdZVKyFys+DvF0Z5yKF5gwnwnIfvoGAGzYllyJpvqLhoNCvPl0XPpI6sl1H02fkue8hMucOtFLh18zrLN/fh2OiuuKyN4+Lz2sy0UPbsiUS5eZiLcuWn/9c1x8fLHr+Ph/DvsExApNbIlazx6U6lnTu4B0A2qXcTuZ2Ys3esHjxSvZ+s2vrg7dKeV31j+LvR//1Ov8yqYcP4plT2k0JWxiMM5cqRdzKkQFlxrFt+jN3zpuJ1+GP8kxWyLp7nWrW2NKskEHsnp/GzbtyMho8vsO2GDK653y0sfvkYyE69zontR7g2xpMWTgJxhd5AUzrkWxe5bDWNz2acY/moX7gkg11jN1wTLnPdNLQ6BxysM4gveEZnEVX1/4kC4pNcdPkrafiKFR8LmM2/mfpV0vypJaSJCGnAXWvsDmaR/HI28i4J6Z6EiB6DI5B3VlJHzjXRpbBtZuPzDJGqPXrhnhTJqnzXURZMcOpEn7bX2D4vnHsycDuYVd8eY/D8vritOsPZsm5/itN/CeYuQTNgKOHmFEisSNUqVuRdaC44V6GSnMz9JwNkMzIC+WLkkCf3Sij69JxYq2Xu++bSSyyLm2GbmB/2K8ubjeAfK75j/sOXmX7A5EEsBe0f287MWj4Bm6+nMMbvCumySO3xG9hWzKchFdb/X0m+T4pdY5xtIef6LpEKTkZPsyyWQsqPufiaS8+T4od4axSGhqfB9FE4mScR46IgNQDBUCl/ml1X5C51EH3fRHSah95rFOLWDQhFVpbCFNU+yDz4fS+Lf+rB4Pfb4SoeJ9Z0kReccMUauz3ZZL6mRxat0KndfkVASAchvZglR1CQm8mQIOVMjpxkst0NCHdEBAUo4/7heRKRL/LbuhBc3v6Kv7/iTi3nilSp3RSP9nWNBo4yf+7YRnzXSXzoLeO394+nA3lDAkEBF3EbO40hbs5YS1Y4VGtIMxe1jz4UqVy3NsmXrpAl1aPhS9f5szRGIWpJLnTu50Gj6hWws62AS6fxTBtambBDYTlH73WudPJuQ4PqTpSzscXJtQtvDGnJwwt/8ORKBQDBma7vL+aLofXK5qEASgpHv5rE9J+NTl0Duua96WUbwK4jCSQlJZGUdIeYvX5cau1Dj0rq9gBQ6PZnHZpJq2bNaOyW83F/Zzf3zy6nX6vBJR8oGMm6foXb1etTL+8JIgVSSD2+mtUXuzHjrZbYAfJlX7bHNmPinGE0r+xA+dpdeHfaK8h+2wk1vgewkPiZkuxr4jHUhwZ3L3De+JrbQuJTYo8j2Xf4DtkXQwm7q8OxdlemTu1J4oHDXDHZUKlOA1zlq1y+WVQOiklV/X/KND6qy5+l8StGfCxiJv9lnj9zJJnsDnrkSgqKlYLyUjaPe+oRrkmIBiDNCptoA4/HZyLbA3YyWYOyMMRaFXjPS7GZic9TAlaONWk9cDbfzGhE6IoNRBsfJC4kPkrGDeJT69HVqy7lRMCmBt1f7oDdtUvcNDyH9kdl/5V1L4m0mm3oUMsGELG2tVbZv+UqJP+qCOXxGjeG5o4i2NSi/7iXqRB6lFPGtzQUtX7lMcmJidzO/STeS3t6P5Aa5r5vLr1ERGq08KBJZVtEZFITLnM7XcLGOv+0pND9Y+VERfs0bl27S4YsYe/qzYRBuU+SNFZY/Mz0//KlQAJutWf0uFY4SWBVrQtvDHHjmZPyha1fDXPxNZf+RCpi1CGURt0KOOqfihj4HrroP03+74Ch8wco11Yg3X6McH4lUvYI5Ja1TZYzp5D2QaxCy+6daFLDCTtJxKZyC0YOaov+8p/ctGgy9JwJBvRt9MhVFBQJFCc9mT30kJDbPpc5Bbn9I9K+TCGtr56s1zPIemCLwyarnPJf1v3DcySCgdt75/K3hWeoO3ElvscC8d+2ghneLhiPGw2JfmyJaUDrND98840SZP5cP5OP9tsyZuV+TkWG4v/zvxjj7qCyMZdwrV+d+EsJKFXqUzf1Epef67WKItW7v8+qbYcJjwjgt/nduf/jVObsTsw5yiaUo37fD/l2hz+nIk8SsHEWrS99w7tfBuU/NiHa49KyIx0bVS5+Y2QxK9x7e2EX7E+k0b0ehoRA/K+2om+Pyir3ASXafsl9Mht27Wbnx91wcHuTH3ftZteXAzF6tYtZ8qUwwtLa0rWNmWfZGG6y8+tfyRo2k1H1JDDcYPPsmey0Gs33B09w4rdPaHNhEe8ujaCg55UULPeejHNniT2+lXmtL7Bo+recNh5slSA+RUvjxOIZLInvysojYQRvnUuz0wv46D9XTCZVIrU8PXgpJpSinkFQfGrqf2HxKUb5szh+auNjqaLy/zzyZ4YAsucj0r5K4cHPyST/4xH6BDscNuR2RoqA9Vp7bLOyeLgqmQer03iss8ZhrXXOkbUSKyo+uXTt+dT/DGcCt/DlcGeCPhnPLN+c+z+eKCw+j0+ydNoPJL+yiiMhoYT7r2ey/R4++GQnt59LZ6+u/8oOX8uC3VaM/yWIyJPHOfBpdxwFkFxGsmLvYU7s/xgPO3embztGwJ4lDDd9I2Bh+VcjO5T/+FVh1pYAIo5v5m3HPcz6536Mb5myfP0SjcZ9y74jB/i8ux1NJm/k6MHtzOup9mBjWRMo7z6KL7ccITw8nJO+82kSuZClh5LzHRgubP+QFsD3q67jteookWH+bJndmHDfsGfvByksfub6f/05vv9oCVe6LOFwWChHvx9Mwq795J7kf6qQ9asuP6UlcTtSYjFKSM23kOv/iRQSlvO3koAYuA2l/XQMai8NLbJ9sKaW1zt8/bMfoVHRROxbwiuPf2X6ApPy/QIztHtE2hcpJG96QPKydLIybXBYa/187gdRRKzXOVJhkhOO+3VYryyP41obdHk38ZZ5//D8CPUbNVa3yUIlBq3YRr+AkUzefuevdgZJ88KTaDTlV35qupFB03yf2+U1fxnWzZmxdRlVlg9mbsBf6x0IGo1Go9Foyo6hVSbyLRus1Lyf5S9I5dRYwKnjJCY0Ps7PB7WJiqYsyFzY+C92vDSBdzu9KEf1XhQ66o6cgc/lpSwP1CYqGo1Go9FonhJP//dOVEDFmRXJ9XW+/3EyzeSLbF8wi6XHk4q+CVGj0Wg0Go1Go9FoSoHZyYpGo9FoNBqNRqPR/H9QeRmYRqPRaDQajUaj0Txf2mRFo9FoNBqNRqPRvJC0yYpGo9FoNBqNRqN5IWmTFY1Go9FoNBqNRvNC0iYrGo1GU+YEHNzHsWx7AJFRkZwO3cPfOxm/ANVcuuZ/kpUnC47tZnqzYrzIT6PRaP7L5E5WrKntNZVlWw4RERXN6eDD7Fo9ibbl8i9cloSKg1i9ZzZtdBKN393M2hFVntO7NkRqjt3I2bhznM/7xB7m43Y60wXBuinv/hbFud8mUf859R3WPks4c+4MO6c0yHnzreBI/2Un+SN2J+83NtoInTuz9sUQtWoAzkaBE6qOZP2p9bxu9Dp5K8/5HD8ylw4FZLFIheVfLE8jn7dZuiOYmK0liI1tCz7YuovPu5Q3ejN4NUavO835uLP8cfY0UUF7WPfZUJraP82kWNmDd77ZQXDkac6E+LHh41dpkDvOMxu/J+s/xx/nYog96c+OldPwrm31ZP1lTajYjknLdxIceYaYMD/WzfYh/89LuIxZy4Flr1KjTA4vFFH/1cankPJXGszHp6SKyH+ekuZPqMIrH7xHg1Nz6N2+La27j2J55GPz6YIjTQfOZNXWw0REn+ZM8D7W/b0vLrn5l9xncDDWqO3K+0SvYIDD09WXTOHxEaqOZP3pc5w/d5a4qGD8tyxn5iuNMKqepcCamt2nsOTn/YRFRhMbeYC57YvbeJWM5PY+uzeXoG17YUk0Gr8aP//jRMWcJS4qhKCDO5jf66/1rqsy2z9m6h+AjUsfPvp+NydOhhN5Yi9rZ3pTq1TbpxJwGIp+WjhZA/s9fT9XjelkvzULRQQaLiTrwzCyO9XLTXTEMCCQrOmbkatI4NAX/eStyDXyDpyIKE0XkT3uXRQd+fqH8+diiYs6waFNCxnfusJfqvxoXnwiCDh7fcb6f3Xj/qYZvNrNky4DJ/H5T8e4+Mh08bJj07Id9eIi+N1QmTatFKKi7z+nl98JOFdxImHDOFq6t8DNvQVurfqy8JTeZDkdDcfO4WXlMg+ez4blUshKuImjZ+ecgaptO7q1Tud2Uv633ejcetODS9xs4UO3imXRTBSWf4lGk1azemw14k6cJc04qVgk6o+ZzfA761gRnGqy77M5+UUv3Fp0pOcb33C1zVwWT3TLmXyItRj57yUMM/zG1P7d6T7yC6KazGbVjPbkjDXVxC8T/4860KR5azr0e4/fDAP495x+lg1Ki0soT6/Zixil/MJE7450HrcLu9EL+Wps3Zz8ASBzbevXHHCZzoxeTqXcCaip/+bjU2blT1V8SkJN/kshf6IzVSvLnI+I5r4MSlY6Gdnq0u3sMzixbBI+ndrT+fXVJHnN55MBOQdz5Nhl9GuV2265t8DNvSVd5x4lKTaC0xlG67eYivjoI1jQqyUtug7hg403aDPnJ1a85lJq+6ei12dsmNeO6+um8YpnW9zbvcKiKNP2uWxZ16xNtTI5UKCGglJmfY7MhQ1v069XH+YFPuKP78fi1WcI8/3/Wi+fLcv9U1T9Q9eMKV/PxT36cwZ27ojH0C+50GE+X/+tYSmV/1KQeRWhyggMlQoKkAIpt8DFA0UArFpjqJGOkJHbP6YdQgq9jaHbiJzJjU0nZM96iAHrEJ5UwWxOftGTps1a0LL7a8wLq8nUxe/R0SYvXaMpORHJlWFTfEhaO5t/7j3L7bRHpCVdITriAikK6JpPw/foArrbP/2S1GAyO0JWMDBvtCJVpfPkr9h8MJgzMdGc8v+FT72rqLrGTNfibTb5+uL3z35U6/wRO/f9yoft6jJi+U7WT2r2HCq8RKXKTtxJuEWWLCPnfkxffCm5jOTjwbf5/pfzBQ8WxVqMWnOco595UroXbwiQcIbYql3oUkXEplVX2l6PJCbLeBkdzXp7IR5bwaZzLejTrWLB21gUM9tfeP5lLqwZj8/Y+WyMvq9qnxdI587wYS8RtPUQSYX1koZMki8fY29oEi/VqYkOkOr2Z3jLONYs3EL07RSS40NYvXwfun5D8SgH6uKXS5F5dC8O3yNxSNWq42ycGTPxsZhtB/p2SeSXZTuIe6BQp7c3rpkyzfv0pI5x4c/+ne27Eug+0oeqFge5AGbqfz6FxkdF+bM0fmrjYylV+bc8f2L1gSzefZCgwI1MbODAy0tPEns6mjNHP8HTynw6ykOifvmWX0Ou8CAzm7QrRzgSCy/VrJxb1wxP2ixZlpGpw6DX3Dn16x7iTRsxS6iKD4CCPj2Rs/sW88GiKNwmvkG+q9gKiY9ZkivDp3Qm5suZfHPkPEmZBlD06GXTBUugiP5Laj6Fn/2DCVncBye3qeyOjCb29Cn2vJ/bN+naM2PrQU6ERXLu+D8Y2vfv/HrwGCHBB1nQze7pb1ia/1xVu89i/b5AIsKPs/+79+la1aTwl3D9LzKhQhsmLNlKQGg4UeHBBGxbxLC6Ofk3u38QcPaYwootBzkZcYrok0fZvngcrR1NanBh8TNT/yTXrnSvGsK69VHc0ytkJZ7gm68PUanfyzQx3kWFrV9t+SkJ8SriWRlD6/amKYAAqbEIDh4o9iLU6Izy4DTCk/plQDi7BNEwHNmtDkr7qSg3liPFF3QkRCH74Q1O7gngUgUX6pTu6VXN/zhRcGhBm3rXCQy6TkHtvz5uG1tvdGdEL+fcDlqinrc31U7sJuC+Aki4jP6K5cOt2TdnKB7tPPCesIjtsfefGfAXRB+zmtdfHcOK6Gv8/G5/+s/czY3wJQzrP4A3fjhX4DaVLhscHexwn7qFsJNhhBzYxKK/tadyvoFqTYb+fTRpa5ZyOFkoeECupHHtdBihcXcwPmBaGgThAiERtejaqRLNu3YgMSiCFCujhkDXDB8viSD/YI4e/YNWPt2Kf1agqO03l39Zn7OfBPHZNJWk+p50coomKLKI03miDRUb+jCsqz1RoWfJBmwaNcUl8Rxnjc6UZJ0/ywXbRjStndtdmYvfEwLWFZvwqk8TEkJOEm9c+IqKTwlIL9XFRf6TPxJkrBq+zqdD7rJ44tdE1GxAbn+cy8DN0BASmnuW6uWZ5up/foXER035szB+6uNjGVX5L0H+DLd3M3NgH7p1H8faiw/xm94R91atadnzC0KyzafnJ+HkPpoRbW5xNOhygdtr1240I5wO8nNAcqkcGVcVn3wUkoICiC3fktYuRjuokPiYI1RoS0fXi8Q7v8PanQcI8Pdj65JJeORroEui6P5LPvsdY3p1psvHgTz6fSUD27bGvVU7BnyT2zfpI1g6og9d+y0kzKEfM0amsXhETzy7DeCLEKO2zML8AyDVo3enB3w9uicdur3ODxkD+OqTflQ2LoMlWf8LTaTGwGm8U2kfb3p1pE3HHgz+8FsCb+SURrP7B4WUWzH4LX4Lb492tOs7Hf9qb/PZWJMzH6riV0D9EwUEWY/eaLCTnZrCoxou1DK+UrGw9astPyUh2iBc2ILg+hoGh4LqzUXE+JoY6jij1G0LV06RryM3XEMK2IniuRp906tIJ04YJRqTsHVuSO+x/WlwPYozzxzt0mgspxMcK1BBSOFBSiFTC0MCe7dEMmnkK9Ty3Ui8UI/e3hU5uiyYVADxJXr0acbFTYP4Ofo2BiDj6mmSTVZTJKkhbq7Xibmi4NCrAbqLx0h+buX8Ib6zfQgRUrn/yIqqbUfzxZJv+OrxcCb8egMDItX6f8QEcSMTfBMxdDX9fi4lmZBVswgx/X9pELKIDoxmYv8xvOyaStCcW9Qa8zRZ18ybnlZBfBabSVLCUc5/4EMP591sv5cbRF1rPtx1nPfydrHODoeH2558Hyhi+1XmH0AQnj3irJKVSz1q3rrIZaPL+J+youMnR/n9E1D019j/z8l8uO0mBgTs7MshZqSRbrx4ZgbpcjkcyuVujZn4gQ29FoVzfhGgZHM34kc+Wh9DpvEihcanhOzKYfc4g0dSXUZ/PJr0NW+w81JLelqVo5wOMDoDJF+/xFXBm7o1JLigbuhojtn6D5iLj9nyB5bHrxjxsYSa/Jdp/lSxpsfn+/myrxMOwi0OLZvFd6fzlc4cQmX6jOvDg+3jMb4dpiTUxMeUkpFKimyPg/GRVQvjI1atTlUbdzxqb2bW6IVc01ehy8zvWPLFPYa8s53b6jerYKXRfz2RQeC6NUSmGIDM0ms/lBSOrt/AmRQZuMaedX5MXtuDtnZ7OZh3gLsk63+hKTyMj+dhHU/6eQSxMfAKydeumi5UJPlqCPuv5v7xIJY9Ry4ytmkNJC48nYAXGb/C65989SQn0xfz2pBGRG29QJZza16f8gq1dXHojAf8Ra4/TxHlp0REeByI9Odb6Fs0QLxqkixkIVyJQWkyEkPFh4j7b6O0Nlkm6Qhi2lsYHhxATDcdnOX2zx8r6B8lcSVqP/M+/InzpdNFaTQAiEp6GmlUoGL5gmbcAAoP/LdwuNpghjSWkOp7413uMLvDc2f9ghOVnQzcvnlX1ZmUfARHfD7fyYF9Sxlesy3TN+9h15wu1Oi/EN/dixhcVhehmlAePeBehoyiPCbx1AaW7bhLa69OOAkgVPJm1tsV+PXf28g9mPP8CZAREURcu7EMJZhj14w3REdzn164VB/MN0eDOL5tGlhbF5QAACAASURBVG0qdKBP97wzYYD+LGsmDmPg4CEMHDyEoZ8fVj0ZfD75F7Cxt0fKSOeZdhB4ck1sqxGsvuiIo+EBDxUAhYy0dAzlHDC6ShFs7LGXMniYt7Ii4wd592Q0dnOnuccA5p7pxJIfJuP2PO7hzUgjw7Y8jYbN4U1xI//6LR6DnT12+kdkmF6WL2eQkWVLOTtLp4TPMl//oej4qCh/JVGc+FjAfP7LOH+qZBG6dBSDBg9h6HtreTBwFesmu2F6D69UfyhjW57hlx1XVJ4FMc98fJ4lODrjrEvhgdpGpkgCZIaybqU/1x4pkH2HkE17uN7Kg5bWpstaoCT9lyn5JlfiCz8ubzFDMnfvPl2vcv8u9yQnnB1UlkD7Piw+FszJkJxP8C9TaFqcs5Lmvm8uvUQUUgM+Z/Tc41QZt5oD+9bwyXB3nFQXR4EK7iP4ZMUmdu3eyZ6d2/h+fGOsBJWxA4qsf1nRfDN9FUl9l+IXeIwD343DJiqUm3dvc6e4RaGw8mMuvubSAchCOL0DoelrGKwLqJfxJxBqjUYmFDHZtCaIKI3fwSCEItSYiFzNtOLl3bPSnGbtevDKpC/Zd8VoqmVu+8ylazSATkk9S0y8C1061+C7i/EFN9iPI9i8W8+KIR04+sAL3aHPic47oqmkkpwq0rpqJURuFvz9wigPOTRvMAGe8/AdFMygObEMWfMNFReNZuX/47Rc1sso+mxkwKqtD94u7XnVN4a/Gy3jd/plVg0bxjfPazvTQtmzJxLl5mEuypWf/l/XHB8ve/w+HsK/wzIBkVojV7LGpzuVdu7gHgDZpN5N5HZizt6xevBI9X56PvlXyMp4hKFcOfJOhhQoK451y4+xe95UvA5/jH+yQtbF81yr1pZmlQRi7+Q0wtaNm9Hw8QW23ZDBNfe7hcUvHwPZqdc5sf0I18Z40sJJIK7QG2hKh3zrIpetpvHZjHMsH/ULl2Swa+yGa8JlrpuGVueAg3UG8QXP6Cyiqv4/UUB8kosufyUNX7HiYwGz+TdTv0qaP7UyU+5wKwVu3bzO8s19ODa6Ky5r47j4JAZ2dBozFOcj8zlgfManhMzG5xkiVXv0wj0pklX5rqO0jCHxOgl0oGpFEXJv+hWsrNAZZPSlkc3i9F9CAZfA5mPAUPIsP0usSNUqVpA7BRWcq1BJTuZ+msoAZATyxcghT+6VUPTp3CvOdpr7vrn0EsviZtgm5of9yvJmI/jHiu+Y//Blph8weRBLQfvHtjOzlk/A5uspjPG7QrosUnv8Bra5mS5YtMLrn0LG+e189sb23CV1NH7nV14/8z2/F/tgSiHlx1x8zaXnSfFDvDUKQ8PTYPoonMyTiHFRkBqAYKiUP82uK3KXOoi+byI6zUPvNQpx6waEIiuLEXPbZy5dowFE5Iv8ti4El7e/4u+vuFPLuSJVajfFo31do4GjzJ87thHfdRIfesv47f3j6ZE7QwJBARdxGzuNIW7OWEtWOFRrSDMXtY8+FKlctzbJl66QJdWj4UvX+bM0RiFqSS507udBo+oVsLOtgEun8UwbWpmwQ2E8VCDr0ExaNWtGY7ecj/s7u7l/djn9Wg3OP1AXnOn6/mK+GFqvbB4KoKRw9KtJTP/Z6NQ1oGvem162Aew6kkBSUhJJSXeI2evHpdY+9Kikbg8AhW6/6vyXUNb1K9yuXp96RT5BRCH1+GpWX+zGjLdaYgfIl33ZHtuMiXOG0byyA+Vrd+Hdaa8g+20n1PgewELiZ0qyr4nHUB8a3L3AeeNrbguJT4k9jmTf4TtkXwwl7K4Ox9pdmTq1J4kHDnPFZEOlOg1wla9y+WZROSgmVfX/KdP4qC5/lsavGPGxiJn8l3n+zNG50sm7DQ2qO1HOxhYn1y68MaQlDy/8wW3j5qdKX8b2eciOX09SSle65zATn6cErBxr0nrgbL6Z0YjQFRuINj5IbGF8lOTj7Dpemzc+GkbT8jokh3q8PGEgVUMDnh4wKwmV/VfWvSTSarahQy0bQMTa1lpl/5bLwvwDIJTHa9wYmjuKYFOL/uNepkLoUU4Z7+ii1q88Jjkxkdu5n8R7aRRrHG3u++bSS0SkRgsPmlS2RUQmNeEyt9MlbKzzT0sK3T9WTlS0T+PWtbtkyBL2rt5MGJT7JEljhcVPTf2TdOgEEO2q0WrIZyx67THr1gbmnw4Utn41zMXXXPoTqYhRh1Aadct58pdpWuB76KL/NPm/A4bOH6BcW4F0+zHC+ZVI2SOQW9Y2Wa4I5rbPXLpGA4hg4Pbeufxt4RnqTlyJ77FA/LetYIa3C8bjRkOiH1tiGtA6zQ/ffKMEmT/Xz+Sj/baMWbmfU5Gh+P/8L8a4O6hszCVc61cn/lICSpX61E29xOXS6IRUE6ne/X1WbTtMeEQAv83vzv0fpzJnd2LRR9lMifa4tOxIx0aVi98YWcwK995e2AX757tG3ZAQiP/VVvTtUVnlPqBE2y+5T2bDrt3s/LgbDm5v8uOu3ez6ciBGr3YxS74URlhaW7q2MfMsG8NNdn79K1nDZjKqngSGG2yePZOdVqP5/uAJTvz2CW0uLOLdpREU9LySguXek3HuLLHHtzKv9QUWTf+W08aDrRLEp2hpnFg8gyXxXVl5JIzgrXNpdnoBH/3H9FIekVqeHrwUE0pRzyAoPjX1v7D4FKP8WRw/tfGxVFH5fx75M0MoR/2+H/LtDn9ORZ4kYOMsWl/6hne/DDIaDEk0HD6Gtmc389ufpROVp4qKTy5dez71P8OZwC18OdyZoE/GM8s35/6PJyyNj3KfgwumsSFzCKsPnyTSfw1vWG9n+hcHua/yxELR1PVf2eFrWbDbivG/BBF58jgHPu2OowCSy0hW7D3Mif0f42HnzvRtxwjYs4ThtU0aP0vzD5Adyn/8qjBrSwARxzfztuMeZv1zP/lOoFm8folG475l35EDfN7djiaTN3L04Hbm9VR7sLGsCZR3H8WXW44QHh7OSd/5NIlcyNJD+R8gUdj+IS2A71ddx2vVUSLD/NkyuzHhvmHP3g9SWPxU1D8rz085FhlFdOAWvng5m1/fncqPF0wu5ypk/arLT2lJ3I6UWIwSUvMt5Pp/IoWE5fytJCAGbkNpPx1DMS4N1WhKSqjfqLG6Jl+oxKAV2+gXMJLJ2++UypNmNJqnJBpN+ZWfmm5k0DTf53Z5zV+GdXNmbF1GleWDmRvw13oHgkaj0Wg0Go2lVE6NBZw6TmJC4+P8fFCbqGjKgsyFjf9ix0sTeLfTi3JU70Who+7IGfhcXsryQG2iotFoNBqN5n+H2TMrkuvrfP/jZJrJF9m+YBZLjycV7/IojUaj0Wg0Go1Go7GA2cmKRqPRaDQajUaj0fx/UHkZmEaj0Wg0Go1Go9E8X9pkRaPRaDQajUaj0byQtMmKRqPRaDQajUajeSFpkxWNRqPRaDQajUbzQtImK5oXm9SIiesPExRwlBNhUZzdNJ6yel+WRqPRvFCsPFlwbDfTmxXjRX4ajUbzXyZ32GdNba+pLNtyiIioaE4HH2bX6km0LZd/4bIkVBzE6j2zaaOTaPzuZtaOqPKc3rUhUnPsRs7GneN83if2MB+306lML1vWPks4c+4MO6c0yHnzreBI/2Un+SN2J+83NurAdO7M2hdD1KoBOBsFTqg6kvWn1vO60evkrTznc/zIXDqUUhaEiu2YtHwnwZFniAnzY91sH2pbmS6lgm0LPti6i8+7lH+67+ULrHmjN928ejHgqwhM3gv8X8F8/CRcxqzlwLJXqVEmE7Ui6r9YjdHrTnM+7hx/nIsh9qQ/O1ZOw9t0BxdS/kqD+fiUVBH5z1OG+SsNL2U/YsHDFA4l3+dEcjLT9aZLlETh8RGqjmT96XOcP3eWuKhg/LcsZ+YrjbAvxRhJhmzeTkvBL/kBgcnJ/JCRSZPn/AxLye19dm+eRP3/ujmDRKPxq/HzP05UzFniokIIOriD+b3+Wu+6KtP9I5ankc/bLN0RTMzW0v2NjhnJ/PRYfuaocdf0ZL7LNDzz/2JzGIp+WjhZA/s9fT9XjelkvzULRQQaLiTrwzCyO9XLTXTEMCCQrOmbkatI4NAX/eStyDVsc9NFlKaLyB73LoqK8cPzaB80/xtEEHD2+oz1/+rG/U0zeLWbJ10GTuLzn45x8ZHp4mXHpmU76sVF8LuhMm1aKURF339OL78TcK7iRMKGcbR0b4GbewvcWvVl4am83t5cellTyEq4iaNn55yBqm07urVO53ZS/rfd6Nx604NL3GzhQ7eKz7ElEMrTa/YiRim/MNG7I53H7cJu9EK+Gls3Z3KlmkT9MbMZfmcdK4JTn9O+fwGoip/Mta1fc8BlOjN6OZXyIEJN/c/E/6MONGnemg793uM3wwD+PadfvkF7mZU/VfEpCTX5L8P8lQKn7HS+zdBzw9aB1yo408XJiRUqBhLqqIiPPoIFvVrSousQPth4gzZzfmLFay6ltH8UvDPS8BbtmFChIj0rOBAuZzDvsVxK61fHumZtqpV45GgpBaXMGkSZCxvepl+vPswLfMQf34/Fq88Q5vv/tV4+W3b7R6LRpNWsHluNuBNnSTNNLqG7okgFg2IyKVFwUhTuCULpvNMu8ypClREYKhUUIAVSboGLB4oAWLXGUCMdISP3l9MOIYXextBtRM7kxqYTsmc9xIB1CGqHQGXaPmj+V4hIrgyb4kPS2tn8c+9Zbqc9Ii3pCtERF0hRQNd8Gr5HF9Dd/umXpAaT2RGygoF5oxWpKp0nf8Xmg8GciYnmlP8vfOpdRdVRAV2Lt9nk64vfP/tRrfNH7Nz3Kx+2q8uI5TtZP6nZcyjQEpUqO3En4RZZsoyc+3naSJhLzyXWYtSa4xz9zJO8YxClQ4CEM8RW7UKXKiI2rbrS9nokMVnGy+ho1tsL8dgKNp1rQZ9uFYs/oLV0+2070LdLIr8s20HcA4U6vb1xzZRp3qcndYqz83TuDB/2EkFbD5FUzF5SV70b7y3fxrGQUCKC9rJu7gAalgMoz8BVYawZYhoPCffpu9k/syWqx3SWxscctfHL/p3tuxLoPtKHqmoqllpm6n8+isyje3H4HolDqlYd5yfboaL8WRo/tfGxlKr8l2H+Skxm4ONsztk58IOVxP3cDVM7jjBLVXwAFPTpiZzdt5gPFkXhNvENOhkHwuL4KNgC8ZIVtwWQBR1RkoA1yrP7wFJF9F9S8yn87B9MyOI+OLlNZXdkNLGnT7Hn/dy+SdeeGVsPciIsknPH/8HQvn/n14PHCAk+yIJudk9/w+L856jafRbr9wUSEX6c/d+9T9eqJoW/hOt/kQkV2jBhyVYCQsOJCg8mYNsihtXNyb/Z/YOAs8cUVmw5yMmIU0SfPMr2xeNo7WhSegqNn8yFNePxGTufjdH3Cx7TFFF+nihk/XdFgfKKAQkDQ9IesD8jG2sMOCsid8VSKuHiVcSzMobW7U1TAAFSYxEcPFDsRajRGeXBaQQ5L92AcHYJomE4slsdlPZTUW4sR4rPMF6JCmbaB43GDFFwaEGbetcJDLrOk/JpRB+3ja03ujOil3Nu5yBRz9ubaid2E3BfASRcRn/F8uHW7JszFI92HnhPWMT22PvPDugLoI9ZzeuvjmFF9DV+frc//Wfu5kb4Eob1H8AbP5wrcJtKlw2ODna4T91C2MkwQg5sYtHf2lP5SUtjLj2Xksa102GExt0p9UuVBOECIRG16NqpEs27diAxKIIUK6OGTNcMHy+JIP9gjh79g1Y+3Yp/qYqF2y+9VBcX+U/+SJCxavg6nw65y+KJXxNRswG5/YkqUn1POjlFExRZzNN5UiPeXLYQr4SljOjuQadX5hDoMoPVH3WhvJDO1StJ1HCthSi+RN9Zi/n3mOZYYYeLaxWuX7qmvnxZGB9z1MfPwM3QEBKae5bq5Znm6n9+AtYVm/CqTxMSQk4Sn/cFNeXPwvipj49lVOW/DPNXUoKip60skaA84pvUZHanpPBT+iPaq2l8VVAVn3wUkoICiC3fktYuRjvI4viI+Nva4piZzmi9TOOsDN6SrfjWRldKE7Ki+y/57HeM6dWZLh8H8uj3lQxs2xr3Vu0Y8E1u36SPYOmIPnTtt5Awh37MGJnG4hE98ew2gC9CjNoyi/MPSPXo3ekBX4/uSYdur/NDxgC++qQflY3LYEnW/0ITqTFwGu9U2sebXh1p07EHgz/8lsAbOaXR7P5BIeVWDH6L38Lbox3t+k7Hv9rbfDa2Yf4DoUXFT9bnrEsQC5isFF1+nihk/Y9FkQyDgYqKHneDyENZT11FobJB4O6zP2YZ0QbhwhYE19cwOBS00ouI8TUx1HFGqdsWrpwiX0YN15ACdqJ4rkbf9CrSiRNGicVVSPug0ZihExwrUEFI4UFKIb2bIYG9WyKZNPIVavluJF6oR2/vihxdFkwqgPgSPfo04+KmQfwcfRsDkHH1NMkmqymS1BA31+vEXFFw6NUA3cVjJJse1S0zD/Gd7UOIkMr9R1ZUbTuaL5Z8w1ePhzPh1xsYzKbnUpIJWTWLEONVlxYhi+jAaCb2H8PLrqkEzblFrTFPk3XNvOlpFcRnsZkkJRzl/Ac+9HDezfZ7uUHUtebDXcd5L29jdXY4PNz25PuA5dtvVw67xxk8kuoy+uPRpK95g52XWtLTqhzldEC+M0CFs3KpR81bF7n82DSlaFKD3vR3PcWaiSHcyQayz7HpW19GfzeQTl8GE37pOlV61KZc5SYM69uOxhk3cdu2j7q17nP5Spr6Sx0sjY85xYiffP0SVwVv6taQ4IK6oaM5Zus/ADb0WhTO+UWAks3diB/5aH0MmbmpZssfWB6/YsTHEmryX6b5KyHRYKCyoqe9wYZ5juWIFwx0ynjIFxkiYx1suGP6hWJSEx9TSkYqKbI9DsYXppcgPumSNdulNN5PT+M1RSHOzoFTBY25LFEa/dcTGQSuW0NkigHIfFI/gBLlHyWFo+s3cCZFBq6xZ50fk9f2oK3dXg7mHeAuyfpfaAoP4+N5WMeTfh5BbAy8QvK1q6YLFUm+GsL+q7l/PIhlz5GLjG1aA4kLTyfgauInCM+ezVNbfgpZvyyI3FMUKst66kk2HDJk00KRqKiIxD7zY5YS4XEg0p9voW/RAPGqSbKQhXAlBqXJSAwVHyLuv43S2mSZpCOIaW9heHAAMV11r1mgAtsHjcYMUUlPI40KVCxfWOuv8MB/C4erDWZIYwmpvjfe5Q6zOzz3qJHgRGUnA7dv3lV1JiUfwRGfz3dyYN9Shtdsy/TNe9g1pws1+i/Ed/ciBpfNRajPUB494F6GjKI8JvHUBpbtuEtrr0445dYlc+llToCMiCDi2o1lKMEcu2Y8UNXR3KcXLtUH883RII5vm0abCh3o0z3vTBigP8uaicMYOHgIAwcPYejnh0tvMpiRRoZteRoNm8Ob4kb+9Vs8Bjt77PSPyFB96FPAxt4eKSOd4raDolNFKjxM5I7RQUzDnVskWjlTyRHSrl7lfg1XmnTqjGv4f9iR0R7Phq64VrvBxXxx/H9SnPjJGWRk2VLOrvQKnvn6D3n3rDR2c6e5xwDmnunEkh8m46YDVeWvJIoTHwuYz38Z5680CFb8YmtNvAAgEm5rQ7w+m+bFrEsFMR+fZwmOzjjrUnhQKo2MgYHpDxkplmNUhQoMLW/P1aw0Vj7SY2O6qCVK0n+Zkm9yJf6Z4/IlZ0jm7t2n61Xu3+We5ISzg8oSaN+HxceCORmS8wn+ZQpNi3NQ29z3zaWXiEJqwOeMnnucKuNWc2DfGj4Z7o6T6uIoUMF9BJ+s2MSu3TvZs3Mb349vjJWgMnbmlLD8GESJJMVAQ73MQ501ETqFFtkGygsi9/I20Vx8zaUDkIVwegdC09cwWBdQL+NPINQajUwoYrJpTkSUxu9gEEIRakxErmadP1nV7z/1TPtQzO9r/jfplNSzxMS70KVzDb67GF9whXscwebdelYM6cDRB17oDn1OdN4RTSWV5FSR1lUrIXKz4O8XRnnIoXmDCfCch++gYAbNiWXImm+ouGg0K8///w0kZb2Mos8u9LIHc+llIi2UPXsiUW4e5qJc+en/dc3x8bLH7+Mh/DssExCpNXIla3y6U2nnDu4BkE3q3URuJ+bsHasHj4q3n4og37rIZatpfDbjHMtH/cIlGewau+GacJnrqgOkkJXxCEO5cpQrZh9iSLrL/fLNqGYvkHcRvVitBtWy75P0UEG+don4yh3w8WjC78ELOJ48mKl9W2CdcoUrDwtotJ+zYsVP54CDdQbxxZ3RFUFV/X/CQHbqdU5sP8K1MZ60cBKISy66/BX3/iNTxYqPBczm30z9Kmn+SsogitwmmyoKPJk9KQo6KJX2yWx8niFStUcv3JMiWfXkOkHLCUo2PfUSe8tZ8QBAtGKtnRX907NoYqfjjOkXiqs4/ZcgFHAZkDEDhpJn+VliRapWsSJvjwrOVagkJ3M/TWXhywjki5FDntwroejTuVec7TT3fXPpJZbFzbBNzA/7leXNRvCPFd8x/+HLTD9g8iCWgvaPbWdmLZ+AzddTGON3hXRZpPb4DWxzM13QQsUpPwURBO5ioINe4XdbkfOihEumnmxRl9t3Yz6+5tLzpPgh3hqFoeFpMH1UQOZJxLgoSA1AMFTKn2bXFblLHUTfNxGd5qH3GoW4dQNCXmbV/j5QYPtQrO9r/leJyBf5bV0ILm9/xd9fcaeWc0Wq1G6KR/u6RgNHmT93bCO+6yQ+9Jbx2/vH047QkEBQwEXcxk5jiJsz1pIVDtUa0sxF7aMPRSrXrU3ypStkSfVo+NJ1/iyNUYhakgud+3nQqHoF7Gwr4NJpPNOGVibsUBgPFRXpeQRnur6/mC+G1iubhwIoKRz9ahLTfzY6dQ3omveml20Au44kkJSURFLSHWL2+nGptQ89KqnbA4Dl2/84kn2H75B9MZSwuzoca3dl6tSeJB44zJVi7Mas61e4Xb0+9Yp5uFS+eoi9f7ZhwjtdqW4NoqMbr7/9CtZH93HyMSipV7ma6YaHWwLhkQ84Fx5DnW6dqRx/iWKdWLE0PuYUI35SnQa4yle5fLM4G26Gqvr/lGRfE4+hPjS4e4HzKYr68mdp/IoRH4uYyX+Z56+EFMGafVYGRmVk0kgBUZHp/TiLKlbWxBSw/4rNTHyeErByrEnrgbP5ZkYjQldsINr4JIOF8VEQSRBkPLJlygEoBjyz9NhKErdMF7aEyv4r614SaTXb0KGWDSBibWutsn/LZWH+ARDK4zVuDM0dRbCpRf9xL1Mh9CinjG/vK2r9ymOSExO5nftJvJdWvPt9zH3fXHqJiNRo4UGTyraIyKQmXOZ2uoSNdf5pSaH7x8qJivZp3Lp2lwxZwt7VmwmD3J6NUVHxK4rK8lP4+kVuizJtZIlYCTIlHQ9kPdUF4elkxVx8zaU/kYoYdQilUbecJ3+ZpgW+hy76T5P/O2Do/AHKtRVItx8jnF+JlD0CuWXtp4uo+v0i2gdV39f8rxPBwO29c/nbwjPUnbgS32OB+G9bwQxvl3yn2Q2JfmyJaUDrND98840SZP5cP5OP9tsyZuV+TkWG4v/zvxjj7qCyMZdwrV+d+EsJKFXqUzf1EpdLeB168YhU7/4+q7YdJjwigN/md+f+j1OZszsx9yiJufS81djj0rIjHRtVLl5jVyJWuPf2wi7Yn0ijez0MCYH4X21F3x6VVe4DSrD9aZxYPIMl8V1ZeSSM4K1zaXZ6AR/950qxjuzKl8IIS2tL1zYmjwjRteTd//gSEHgC/888sWs1nT0njnJk51x6lAPkK2z8cDaHq73Lf46EEH7wa3zufMu7/w4kVQHka1y8UYt6hkjC7xh4fCaCi7Xqobt25dmnXRXF4viYozZ+IrU8PXgpJpTiPoOgaGrqf+49K+fOEnt8K/NaX2DR9G85nV2M8mdx/NTGx1JF5f955K+kBI6Wc2CzkMmSlAcEpDxkFDZ8XM4650xEiRUVn1y69nzqf4YzgVv4crgzQZ+MZ5ZvzvX7T1gaH8GKb+1tScl6yM7kBxxJSeUNxZq/lyv5/Tg51PVf2eFrWbDbivG/BBF58jgHPu2OowCSy0hW7D3Mif0f42HnzvRtxwjYs4Thpm+utTT/ANmh/MevCrO2BBBxfDNvO+5h1j/3Y3zLlOXrl2g07lv2HTnA593taDJ5I0cPbmdeT7UHG8uaQHn3UXy55Qjh4eGc9J1Pk8iFLD2UnO+sSmH7h7QAvl91Ha9VR4kM82fL7MaE+4blv58Iioyf5D6ZDbt2s/Pjbji4vcmPu3az68uB5Ly6TF35KXz9IncEBXtJR5wAiqjjjGBAFEWKefumOonbkRJNc1iEmm8h1/8TKSQs528lATFwG0r76RjUXhqqpn3QaMwQ6jdqrG7IJlRi0Ipt9AsYyeTtd9TfmKzRqCLRaMqv/NR0I4Om+f6/X17zwrFuzoyty6iyfDBzA/5a70DQaDQajUajsZTKqbGAU8dJTGh8nJ8PahMVTVmQubDxX+x4aQLvdnpRjuq9KHTUHTkDn8tLWR6oTVQ0Go1Go9H87zB7ZkVyfZ3vf5xMM/ki2xfMYunxJO30nUaj0Wg0Go1GoylzZicrGo1Go9FoNBqNRvP/QeVlYBqNRqPRaDQajUbzfGmTFY1Go9FoNBqNRvNC0iYrGo1Go9FoNBqN5oWkTVY0Go1Go9FoNBrNC0mbrGhebFIjJq4/TFDAUU6ERXF203hM37em0Wg0/5WsPFlwbDfTmxXjRX4ajUbzXyZ32GdNba+pLNtyiIioaE4HH2bX6km0LZd/4bIkVBzE6j2zaaOTaPzuZtaOqPKc3rUhUnPsRs7GneN83if2MB+30xktY03N7lNY8vN+wiKjiY08wNz2xullx9pnCWfOnWHnlAY5b74VHOm/7CR/xO7k/cZGHZjOnVn7YohaNQBno8AJVUey/tR6Xs951qKvUwAAFStJREFU3S4AVp7zOX5kLh1KKQtCxXZMWr6T4MgzxIT5sW62D7WtTJdSwbYFH2zdxeddyj/d9/IF1rzRm25evRjwVQTZxsv/lzAfPwmXMWs5sOxVapTJRK2I+i9WY/S605yPO8cf52KIPenPjpXT8DbdwYWUv9JgPj4lVUT+85Rh/kpC0mew7cF9wk0/yWm8XGrPeSw8PkLVkaw/fY7z584SFxWM/5blzHylEfalGCNB0TM+LYUDyfc5kZzCykdZ1DRdqIxJbu+ze/Mk6v/XzRkkGo1fjZ//caJizhIXFULQwR3M7/XXetdVme4fsTyNfN5m6Y5gYraW7m90zEjmp8fyM0eNu6Yn812m4Zn/F5vDUPTTwska2O/p+7lqTCf7rVkoItBwIVkfhpHdqV5uoiOGAYFkTd+MXEUCh77oJ29FrmGbmy6iNF1E9rh3UVSMH55H+6D53yCCgLPXZ6z/Vzfub5rBq9086TJwEp//dIyLj0wXLzs2LdtRLy6C3w2VadNKISr6/nN6+Z2AcxUnEjaMo6V7C9zcW+DWqi8LT+mfpFf0+owN89pxfd00XvFsi3u7V1gUlZde1hSyEm7i6Nk5Z6Bq245urdO5nZT/bTc6t9704BI3W/jQreJzbAmE8vSavYhRyi9M9O5I53G7sBu9kK/G1s2ZXKkmUX/MbIbfWceK4NTntO9fAKriJ3Nt69cccJnOjF5OpTyIUFP/M/H/qANNmremQ7/3+M0wgH/P6Zdv0F5m5U9VfEpCTf7LMH8lJOvKMaKiMx5Gn/721tyTdMSWymaqiI8+ggW9WtKi6xA+2HiDNnN+YsVrLqW0fxS6ZaQxRLDlgwoV6etoje3jdP5RwACvLFnXrE215/mD+SgoZdYgylzY8Db9evVhXuAj/vh+LF59hjDf/6/18tmy2z8SjSatZvXYasSdOEuaaXIJ3RVFKhgUk7Ks4KQo3BOE0nmnXeZVhCojMFQqKEAKpNwCFw8UAbBqjaFGOkJG7i+nHUIKvY2h24icyY1NJ2TPeogB6xDUDoHKtH3Q/K8QkVwZNsWHpLWz+efes9xOe0Ra0hWiIy6QooCu+TR8jy6gu/3TL0kNJrMjZAUD80YrUlU6T/6KzQeDORMTzSn/X/jUu4qqzkTX4m02+fri989+VOv8ETv3/cqH7eoyYvlO1k9q9hwKtESlyk7cSbhFliwj536eNBKSK8OndCbmy5l8c+Q8SZkGUPToZeN1AGItRq05ztHPPMk7BlE6BEg4Q2zVLnSpImLTqittr0cSk2W8jI5mvb0Qj61g07kW9OlWsfgDWku337YDfbsk8suyHcQ9UKjT2xvXTJnmfXpSpzg7T+fO8GEvEbT1EEnF7CV11bvx3vJtHAsJJSJoL+vmDqBhOYDyDFwVxpohpvGQcJ++m/0zW6Li4FAOS+Njjtr4Zf/O9l0JdB/pQ1U1FUstM/U/H0Xm0b04fI/EIVWrjvOT7VBR/iyNn9r4WEpV/sswf6XAAMhPPjL9MvWctrEhwWQ5i6iKD4CCPj2Rs/sW88GiKNwmvkEn40BYGh8lG+9ske22NpwXoFZWNnUEaJKdTW3TZS1VRP8lNZ/Cz/7BhCzug5PbVHZHRhN7+hR73s/tm3TtmbH1ICfCIjl3/B8M7ft3fj14jJDggyzoZvf0NyzNf66q3Wexfl8gEeHH2f/d+3StalL4S7j+F5lQoQ0TlmwlIDScqPBgArYtYljdnPyb3T8IOHtMYcWWg5yMOEX0yaNsXzyO1o4mNbjQ+MlcWDMen7Hz2Rh9v+AxTRHl54lC1n9XFCivGJAwMCTtAfszsrHGgLMicld8ppWxjHgV8ayMoXV70xRAgNRYBAcPFHsRanRGeXAa4cn4xoBwdgmiYTiyWx2U9lNRbixHis8wXokKZtoHjcYMUXBoQZt61wkMuo7p+BtAH7eNrTe6M6KXc24HLVHP25tqJ3YTcF8BJFxGf8Xy4dbsmzMUj3YeeE9YxPbY+6qOCuhjVvP6q2NYEX2Nn9/tT/+Zu7kRvoRh/Qfwxg/nCtym0mWDo4Md7lO3EHYyjJADm1j0t/ZUzm1phApt6eh6kXjnd1i78wAB/n5sXTIJj7wF8ihpXDsdRmjcnVK/VEkQLhASUYuunSrRvGsHEoMiSLEyash0zfDxkgjyD+bo0T9o5dOt+JeqWLj90kt1cZH/5I8EGauGr/PpkLssnvg1ETUbkNufqCLV96STUzRBkcU8nSc14s1lC/FKWMqI7h50emUOgS4zWP1RF8oL6Vy9kkQN11qI4kv0nbWYf49pjhV2uLhW4fqla+rLl4XxMUd9/AzcDA0hoblnqV6eaa7+5ydgXbEJr/o0ISHkJPF5X1BT/iyMn/r4WEZV/sswf6XNVp/JIIM1v1kJpXJkXFV88lFICgogtnxLWrsY7SAL4yMaZGoJEn9KYCVnMjNLYKWDHdGyTB3ThS1SdP8ln/2OMb060+XjQB79vpKBbVvj3qodA77J7Zv0ESwd0Yeu/RYS5tCPGSPTWDyiJ57dBvBFiFFbZmH+AZDq0bvTA74e3ZMO3V7nh4wBfPVJPyobl8GSrP+FJlJj4DTeqbSPN7060qZjDwZ/+C2BN3JKo9n9g0LKrRj8Fr+Ft0c72vWdjn+1t/lsbMP8B0KLip+sz1mXIBYwWSm6/DxRyPofiyIZBgMVFT3uBpGHsp66ikJlg8DdZ3/MMqINwoUtCK6vYXAoaKUXEeNrYqjjjFK3LVw5Rb6MGq4hBexE8VyNvulVpBMnjBKL6//au/PwLIo8gePf7n5zJ5BAOIRAwg2BgOBwBETCYQT1WQigjDAjrqzitbOAi7rgDDK43jhyqss6yqEjGo6EcOYyhBwEM1zKDJCQy0AuyMmbs7v3DwIkL0neft8kyj7W53nyR1Jv99v1666qrq6qTjP1gyBYIUseHekolVJc2kzXQstl385URsx9FB+ZGxXnNC9iwhMoA5DvIeihoaTteJ8vT+ZhrqmiJPMU5/KNNW0AKAPw98vmnxk67gP6Y0q7QElbtLSGlBPxajBTpwQxdlwQIa/H4PXUet6f54MMyF2709UpgMBex/nz/BlMnv4U64ums/bNEBosAwG9hMRNy1kZmmawUbeBVMPJuJP0D1rAjMAyjh690qgyMQ2dxhSHo0SdraYoLobzI4IJajRHZyQv743neGICxxMTOPZRE/Pu7T1+F1dcqsxUKn2Yv3I+17e8w570ciodXHE1PGwBDr596XkljUtVliktU/o/yCN+3/PXjxMpqAW17Ed2bI5Ae2gm45w1stKz6eLbC1fv+5k7/TdM+G0w/k496eNzjUsZFcZv6OyNjzU2xE/NTidT6kWfHm1XyVst/wA4MfW9FM6f+4Gzx77mBfcw3vriDNX1qVavP7A/fjbExx5G8t+u+WtTGlOqaihxcuKUZfm2k5H4WNLNZZSqbrg3nJhuZ3wkwBmJSl1lrrmKSmc39isylei4Gi68LWiL9usWM3GfbyG1VAO1muqG02TszD8AeikxX2zldKmKXpVF+OcHKBkbxH0NBm5atf+7mk55Tg7lvcfzcKAfHlItJVmZFN7Ro2iempnIwRM5lNeBWnyW8Kg0uvfuYdFZMRA/SWpiRNXg9dPM/lVJ5qqu463W0Vdx4gh1DNc1vHSZwju+zF4yVMWhXOyJOry/ZSJINUgZZ9D7zUPrXY6ckXej4DVUFIVc4QU/HUK+3rqC12T9IAhWyPr1CiroiFeHpnrcADrF0TuJ7BbC7EEKSr9pTHONJCyl/qmR5Im3p0be5UJDIymNSB4Er97Dof0f8ljP+1j6dTh7X7ufHo+8TUTYe4S0zyTUO+iVxVw1q+h6Ffnfb+Wj3YWMnDwOTwlAguokPt8YTValDrUFJO4IJ/veQEY4Wu6pnUhgPnGUc7/5PXNI4LushtWdiWHBU/HtHsL6mKPEhy5hVMcxPDTp5kgYUPcDW56Zy8yQ2cwMmc2c1ZFt1xk0V2B27sDAua/xtLyNt77NQXNxw6WuErPROa1IOLm5oZivY2s9KHt60bE8n4IGDzG1givkO3SiswdUZGZyrYcfg8dNwC9lO7vNoxk/wA+/bj+R1iiOvxBb4qeaMdc44+rSdpW89fIPN9esDPIPYFjgv7Di9DjW/s9i/E1g6PprDVviYwfr+W/n/LUhWa1mXp2JUEfF9rq4GdbjcyfJoxOdTKUUt0EloyNRiU7/GjMLcGatk4ym67gAlW1xAlrTfllSL5ORY8NdtFFaCYUN7s71a4VcVTzp5G4wAG4P8cF3Nx5UHU9MIOGr5xhiy/MOa9tbS28VnbLY1cxfEU+XJz/m0P4tvP5YAJ6GL0eJjgGP8/qGHewN20P4nlA+XTgIB8lg7Kxp5fWjyQpFusaAOpVykyMnTDrDazU6SDJXbx6itfhaSwegBunUbqQhv0VzbKJc5hxD8pmPShJyiWVOZPRBL6BJSUg9nkHtZnHjY+j7b7ujfrBxe+HXyaSX/cCZHF/un9CDT9Jymi5wVSf4OqyODbPHEFM8GdOR1Zy8uWZCL6OkTGZk187IXG56++bo5RxZFULs+FVEzEpg1mtnmb1lPV7vzWfj+V/uRlKtU9HralEBLT+bXMbQ1UuG+kVnkoMDJk2lroky324qkggPT0W/HEma6n3776ZhBE9248DK2byTXA3I+MzbyJbgSXTes5urANRSVphPXv6N43corrTtPLVAvZLGJYcl/GnZj6x74ivSVXAZ5I9f7iWyDZ9CnRpzJZqrK642tiFaUSHXOgylm5vEzUn0crcedKu9RlG5jpqVTo73GIIDB/OPhDXEl4Tw0vThOJZmkFH+c57AptkUP5M77o5mcmzt0bXAUPm/RaO2LJtju6LIWjCe4Z4S50pavv5sXX9kyab42MFq/q2Ur9bmr+3ojK6uxtPRjRjDN3LWWY3PHWS6Bk0loCiVTbfmCdpPkxWydDPLK0184uFMJuCs1tFbUcix/LA9bGm/JKmJaUANaWitz/KdZC+6dnGA+mfyUqcudFZLuFZh8OIzx/HmvNm31krodde5astxWtveWnqr1XA5eQdvJP+NdUMf588bPuGN8hksPWTxIpamzo/zBJavW4TTX55jwYEMrqsyvRZuJdTf8oN2suX6aYokUYjGmDqdfzjLnJcVfKvrqJVN9W031uNrLf2m0gPIV55AG3AKLF8VUH0c+dzfoSwWSevcOM1lIur9vZEjnkb2XEXd5CeQv9mKdDOzRr8faLJ+sGl74ddKRk3j288T8X3+ff7r0QB8OnnRpdcQAkf3aXDjqHJxdyg5E5/l5WkqB/b98/ZQppbL0dg0/H+/hNn+nXBUHHDvNoChvkZffSjj3acXJekZ1Ch9GXBPNhfb4i7EKMWXCQ8HMrB7R1ycO+I7biFL5niTfCSZch30knj2xvfiqVfmMqSDCcW9LzMWzaRrUuztDhuA1ImJf/iAN+f0bZ+XAuilxLz/LEu/vNBoGNk07EGmOseyNyqXoqIiiooKOLPvAOkjgwnqbOwMAPYff1Uq+yMLqE1LIrnQhEevibz00hTyD0WSYcNprMnOIK97P/o6Waa0TM08wr6Lo1j0wkS6O4Ls4c/vnn8Ux5j9HK8CvSyTzGp/Av1zSUkt5seUM/R+YALeOenYNLBib3yssSF+Su/++KmZXLpsy4FbYaj836a49SRwTjD9Cy9wvlQ3fv3ZGz8b4mMXK/lv9/y1EUmrYV6NRISTAzau+mqZlfjcJuHg0ZORM19l/bKBJG3YysmGgwz2xkcyccRRplZ2IFXWcddqeaaqlkIHR7IsP2sPg+1XzdUiKnqOYoyPEyDj6OxosH2rZ2/+AaQOTH5yAcM8ZHDy4ZEnZ9AxKYbvG57olvavV1GSn09e/U/+1QpsGpS0tr219FaR6TE8kMHezsiolOVeIu+6gpNj425Js+fHwRMvtwquZBViVhXc/KaxaJb/nTFqKX4tMXj9NL9/mTxZZZSqcFaBasVEsVpHd0m63VmxFl9r6beUIf/9CPrAB268+csyLe7fMZ28aPF3d7QJ/4GetQElrwrp/EaU2sdRR/S6/RFD399C/WBoe+HXTgaNvH0r+Ne3T9PnmY1EfBdHdOgGlk3zpeF9o5Z/gJ1n+jOy4gARje4SVC5+8Z+8ctCZBRsP8n1qEtFfvsWCAHeDlbmCX7/u5KTnonfpR5+ydC41etNVe5PpPukPbAqNJOVELN++MYlrn73Ea2H5N56S6Nc4vGYJW6tn83HkcVKjt/CU4y6WvnmYaw0f68hu+I4Yy9iB3rZVdq3iQMCDk3FJiCa1wVoPLTeO6Mx7mR7kbfAc0Irjr+DYB8tYmzORjVHJJHyzgqGn1vDK9ozm5/42QU1PJrniPiaOsnhFiGkEL26PIDbuGNF/Go/LvUsJPxZD1J4VBLkCagbbXn6VyG4vsj0qkZTDfyG4YDMvvhNHmQ6oWaT95ENfLZWUAo2q0ydI8+mLKSvjzrddtcTu+FhjNH4yPuMDuedMEra+g6BlRsp//ZqVH3/gbPw3rBp5gfeWbuZUrQ3Xn93xMxofe7WU/58jf22jX00VI0zOhLX5l7cUn3qm0fwx+jSn43by7mOdOPr6QpZH5DV+ymx3fCSSXdzZrNTwbmkxh8rMDFZcWeXcVlPdjLVftSn/y5owBxZ+dZTU4/Ec+uMkPCRQfOexYV8kxw6uJNAlgKWh3xEbvpbHLP9zrd35B2qT2H6gC8t3xnIi/mue9whn+X8f5GqbtD8KA5/czP6oQ6ye5MLgxduIObyLVVOMPmxsbxIdAp7g3Z1RpKSkcDziDQanvs2HR0oajao0d36oiOXTTdlM3hRDanI0O18dREpE8q31dre0ED8lYDFb94axZ+UDuPs/zWd7w9j77sz6NavGrp/m9y9TIOm4KSbOSaDLJk5LGrIsY+PyTWPyd6HkW+awBT3/DbXfRZTE5Bu/67nIcaHoo5eiGZ0aaqR+EAQrpH4DBxm7ZZM6M2tDKA/HzmPxrgLjC5MFwRCFgc/9jb8O2casJRF30fSau4TjMJZ98xFd1oWwIvb/1/9AEARBEARBsJfBrrGE59hnWTQoni8Pi46K0B5ULmx7i933LOLFcXfLU727hYk+85YRfOlD1sWJjoogCIIgCL8eVkdWFL/f8elnixmqprFrzXI+jC8Sw3eCIAiCIAiCILQ7q50VQRAEQRAEQRCEX4LBaWCCIAiCIAiCIAg/L9FZEQRBEARBEAThrvR/sL65+GSxc7YAAAAASUVORK5CYII=;" vertex="1" parent="1">
          <mxGeometry x="8" y="197.5" width="811" height="365" as="geometry" />
        </mxCell>
        <mxCell id="tsz8T1JmrRWFxbx-3Yt2-18" style="edgeStyle=orthogonalEdgeStyle;rounded=0;orthogonalLoop=1;jettySize=auto;html=1;exitX=0.5;exitY=0;exitDx=0;exitDy=0;entryX=0.5;entryY=1;entryDx=0;entryDy=0;fillColor=#f8cecc;strokeColor=#b85450;strokeWidth=3;" edge="1" parent="1" source="tsz8T1JmrRWFxbx-3Yt2-2" target="tsz8T1JmrRWFxbx-3Yt2-11">
          <mxGeometry relative="1" as="geometry" />
        </mxCell>
        <mxCell id="tsz8T1JmrRWFxbx-3Yt2-2" value="" style="rounded=1;whiteSpace=wrap;html=1;fillColor=none;strokeColor=#FF0000;strokeWidth=3;" vertex="1" parent="1">
          <mxGeometry x="394.5" y="235" width="55.5" height="20" as="geometry" />
        </mxCell>
        <mxCell id="tsz8T1JmrRWFxbx-3Yt2-3" value="" style="rounded=1;whiteSpace=wrap;html=1;fillColor=none;strokeColor=#FF0000;strokeWidth=3;" vertex="1" parent="1">
          <mxGeometry x="320" y="235" width="70" height="20" as="geometry" />
        </mxCell>
        <mxCell id="tsz8T1JmrRWFxbx-3Yt2-15" style="edgeStyle=orthogonalEdgeStyle;rounded=0;orthogonalLoop=1;jettySize=auto;html=1;exitX=0;exitY=0.5;exitDx=0;exitDy=0;entryX=0.5;entryY=1;entryDx=0;entryDy=0;fillColor=#f8cecc;strokeColor=#b85450;strokeWidth=3;" edge="1" parent="1" source="tsz8T1JmrRWFxbx-3Yt2-4" target="tsz8T1JmrRWFxbx-3Yt2-13">
          <mxGeometry relative="1" as="geometry" />
        </mxCell>
        <mxCell id="tsz8T1JmrRWFxbx-3Yt2-4" value="" style="rounded=1;whiteSpace=wrap;html=1;fillColor=none;strokeColor=#FF0000;strokeWidth=3;" vertex="1" parent="1">
          <mxGeometry x="260" y="200" width="130" height="20" as="geometry" />
        </mxCell>
        <mxCell id="tsz8T1JmrRWFxbx-3Yt2-19" style="edgeStyle=orthogonalEdgeStyle;rounded=0;orthogonalLoop=1;jettySize=auto;html=1;exitX=1;exitY=0.5;exitDx=0;exitDy=0;entryX=0.5;entryY=1;entryDx=0;entryDy=0;fillColor=#f8cecc;strokeColor=#b85450;strokeWidth=3;" edge="1" parent="1" source="tsz8T1JmrRWFxbx-3Yt2-5" target="tsz8T1JmrRWFxbx-3Yt2-10">
          <mxGeometry relative="1" as="geometry" />
        </mxCell>
        <mxCell id="tsz8T1JmrRWFxbx-3Yt2-5" value="" style="rounded=1;whiteSpace=wrap;html=1;fillColor=none;strokeColor=#FF0000;strokeWidth=3;" vertex="1" parent="1">
          <mxGeometry x="390" y="360" width="60" height="40" as="geometry" />
        </mxCell>
        <mxCell id="tsz8T1JmrRWFxbx-3Yt2-23" style="edgeStyle=orthogonalEdgeStyle;rounded=0;orthogonalLoop=1;jettySize=auto;html=1;exitX=1;exitY=0.5;exitDx=0;exitDy=0;entryX=0.5;entryY=0;entryDx=0;entryDy=0;fillColor=#f8cecc;strokeColor=#b85450;strokeWidth=3;" edge="1" parent="1" source="tsz8T1JmrRWFxbx-3Yt2-6" target="tsz8T1JmrRWFxbx-3Yt2-14">
          <mxGeometry relative="1" as="geometry" />
        </mxCell>
        <mxCell id="tsz8T1JmrRWFxbx-3Yt2-6" value="" style="rounded=1;whiteSpace=wrap;html=1;fillColor=none;strokeColor=#FF0000;strokeWidth=3;" vertex="1" parent="1">
          <mxGeometry x="390" y="450" width="60" height="40" as="geometry" />
        </mxCell>
        <mxCell id="tsz8T1JmrRWFxbx-3Yt2-24" style="edgeStyle=orthogonalEdgeStyle;rounded=0;orthogonalLoop=1;jettySize=auto;html=1;exitX=1;exitY=0.5;exitDx=0;exitDy=0;entryX=0.5;entryY=0;entryDx=0;entryDy=0;fillColor=#f8cecc;strokeColor=#b85450;strokeWidth=3;" edge="1" parent="1" source="tsz8T1JmrRWFxbx-3Yt2-7" target="tsz8T1JmrRWFxbx-3Yt2-22">
          <mxGeometry relative="1" as="geometry" />
        </mxCell>
        <mxCell id="tsz8T1JmrRWFxbx-3Yt2-7" value="" style="rounded=1;whiteSpace=wrap;html=1;fillColor=none;strokeColor=#FF0000;strokeWidth=3;" vertex="1" parent="1">
          <mxGeometry x="390" y="522.5" width="60" height="40" as="geometry" />
        </mxCell>
        <mxCell id="tsz8T1JmrRWFxbx-3Yt2-26" style="edgeStyle=orthogonalEdgeStyle;rounded=0;orthogonalLoop=1;jettySize=auto;html=1;exitX=0.25;exitY=1;exitDx=0;exitDy=0;entryX=0;entryY=0.5;entryDx=0;entryDy=0;fillColor=#f8cecc;strokeColor=#b85450;strokeWidth=3;" edge="1" parent="1" source="tsz8T1JmrRWFxbx-3Yt2-8" target="tsz8T1JmrRWFxbx-3Yt2-25">
          <mxGeometry relative="1" as="geometry" />
        </mxCell>
        <mxCell id="tsz8T1JmrRWFxbx-3Yt2-8" value="" style="rounded=1;whiteSpace=wrap;html=1;fillColor=none;strokeColor=#FF0000;strokeWidth=3;" vertex="1" parent="1">
          <mxGeometry x="260" y="450" width="60" height="20" as="geometry" />
        </mxCell>
        <mxCell id="tsz8T1JmrRWFxbx-3Yt2-21" style="edgeStyle=orthogonalEdgeStyle;rounded=0;orthogonalLoop=1;jettySize=auto;html=1;exitX=0;exitY=0.5;exitDx=0;exitDy=0;entryX=0.5;entryY=1;entryDx=0;entryDy=0;fillColor=#f8cecc;strokeColor=#b85450;strokeWidth=3;" edge="1" parent="1" source="tsz8T1JmrRWFxbx-3Yt2-9" target="tsz8T1JmrRWFxbx-3Yt2-20">
          <mxGeometry relative="1" as="geometry" />
        </mxCell>
        <mxCell id="tsz8T1JmrRWFxbx-3Yt2-9" value="" style="rounded=1;whiteSpace=wrap;html=1;fillColor=none;strokeColor=#FF0000;strokeWidth=3;" vertex="1" parent="1">
          <mxGeometry x="325" y="360" width="60" height="20" as="geometry" />
        </mxCell>
        <mxCell id="tsz8T1JmrRWFxbx-3Yt2-10" value="AH:AL" style="rounded=1;whiteSpace=wrap;html=1;fillColor=#d80073;strokeColor=#A50040;fontColor=#ffffff;" vertex="1" parent="1">
          <mxGeometry x="470" y="140" width="51" height="25" as="geometry" />
        </mxCell>
        <mxCell id="tsz8T1JmrRWFxbx-3Yt2-11" value="Flags" style="rounded=1;whiteSpace=wrap;html=1;fillColor=#d80073;strokeColor=#A50040;fontColor=#ffffff;" vertex="1" parent="1">
          <mxGeometry x="399" y="140" width="51" height="25" as="geometry" />
        </mxCell>
        <mxCell id="tsz8T1JmrRWFxbx-3Yt2-12" value="SP" style="rounded=1;whiteSpace=wrap;html=1;fillColor=#d80073;strokeColor=#A50040;fontColor=#ffffff;" vertex="1" parent="1">
          <mxGeometry x="150" y="140" width="51" height="25" as="geometry" />
        </mxCell>
        <mxCell id="tsz8T1JmrRWFxbx-3Yt2-13" value="PBR:PC" style="rounded=1;whiteSpace=wrap;html=1;fillColor=#d80073;strokeColor=#A50040;fontColor=#ffffff;" vertex="1" parent="1">
          <mxGeometry x="210" y="140" width="61" height="25" as="geometry" />
        </mxCell>
        <mxCell id="tsz8T1JmrRWFxbx-3Yt2-14" value="XH:XL" style="rounded=1;whiteSpace=wrap;html=1;fillColor=#d80073;strokeColor=#A50040;fontColor=#ffffff;" vertex="1" parent="1">
          <mxGeometry x="530" y="572" width="50" height="25" as="geometry" />
        </mxCell>
        <mxCell id="tsz8T1JmrRWFxbx-3Yt2-17" style="edgeStyle=orthogonalEdgeStyle;rounded=0;orthogonalLoop=1;jettySize=auto;html=1;exitX=0;exitY=0.5;exitDx=0;exitDy=0;entryX=0.574;entryY=0.971;entryDx=0;entryDy=0;entryPerimeter=0;fillColor=#f8cecc;strokeColor=#b85450;strokeWidth=3;" edge="1" parent="1" source="tsz8T1JmrRWFxbx-3Yt2-3" target="tsz8T1JmrRWFxbx-3Yt2-12">
          <mxGeometry relative="1" as="geometry" />
        </mxCell>
        <mxCell id="tsz8T1JmrRWFxbx-3Yt2-20" value="DH:DL+2" style="rounded=1;whiteSpace=wrap;html=1;fillColor=#d80073;strokeColor=#A50040;fontColor=#ffffff;" vertex="1" parent="1">
          <mxGeometry x="80" y="140" width="61" height="25" as="geometry" />
        </mxCell>
        <mxCell id="tsz8T1JmrRWFxbx-3Yt2-22" value="YH:YL" style="rounded=1;whiteSpace=wrap;html=1;fillColor=#d80073;strokeColor=#A50040;fontColor=#ffffff;" vertex="1" parent="1">
          <mxGeometry x="460" y="572" width="50" height="25" as="geometry" />
        </mxCell>
        <mxCell id="tsz8T1JmrRWFxbx-3Yt2-25" value="DBR" style="rounded=1;whiteSpace=wrap;html=1;fillColor=#d80073;strokeColor=#A50040;fontColor=#ffffff;" vertex="1" parent="1">
          <mxGeometry x="320" y="572" width="50" height="25" as="geometry" />
        </mxCell>
        <mxCell id="tsz8T1JmrRWFxbx-3Yt2-29" style="edgeStyle=orthogonalEdgeStyle;rounded=0;orthogonalLoop=1;jettySize=auto;html=1;exitX=0;exitY=0.5;exitDx=0;exitDy=0;entryX=0.5;entryY=1;entryDx=0;entryDy=0;fillColor=#f8cecc;strokeColor=#b85450;strokeWidth=3;" edge="1" parent="1" source="tsz8T1JmrRWFxbx-3Yt2-27" target="tsz8T1JmrRWFxbx-3Yt2-28">
          <mxGeometry relative="1" as="geometry" />
        </mxCell>
        <mxCell id="tsz8T1JmrRWFxbx-3Yt2-27" value="Memory writes silently blocked!" style="rounded=1;whiteSpace=wrap;html=1;fillColor=#f8cecc;strokeColor=#b85450;" vertex="1" parent="1">
          <mxGeometry x="640" y="572" width="100" height="30" as="geometry" />
        </mxCell>
        <mxCell id="tsz8T1JmrRWFxbx-3Yt2-28" value="" style="rounded=1;whiteSpace=wrap;html=1;fillColor=none;strokeColor=#EA6B66;strokeWidth=3;" vertex="1" parent="1">
          <mxGeometry x="610" y="360" width="20" height="200" as="geometry" />
        </mxCell>
        <mxCell id="tsz8T1JmrRWFxbx-3Yt2-30" value="&lt;b&gt;N &lt;/b&gt;= Native mode (CPU in 16b).&lt;br&gt;&lt;b&gt;M&lt;/b&gt; = Accumulator &amp;amp; Memory in 16b.&lt;br&gt;&lt;b&gt;X&lt;/b&gt; = Index regs in 16b." style="rounded=1;whiteSpace=wrap;html=1;align=center;fillColor=#dae8fc;gradientColor=#7ea6e0;strokeColor=#6c8ebf;" vertex="1" parent="1">
          <mxGeometry x="619" y="130" width="200" height="60" as="geometry" />
        </mxCell>
      </root>
    </mxGraphModel>
  </diagram>
</mxfile>
